<svg xmlns="http://www.w3.org/2000/svg" xmlns:xlink="http://www.w3.org/1999/xlink" width="60" height="85" viewBox="0 0 60 85">
  <defs>
    <linearGradient id="badge-a" x1="0%" y1="0%" y2="100%">
      <stop offset="0%" stop-color="#FE0"/>
      <stop offset="100%" stop-color="#FFCE00"/>
    </linearGradient>
    <path id="badge-b" d="M48.3978261,59.3121739 L48.8695652,59.3121739 C48.968986,59.3121739 49.0744922,59.3086232 49.186087,59.3015217 C49.2976817,59.2944203 49.4047096,59.2802175 49.5071739,59.258913 C49.6096382,59.2376086 49.7024634,59.2081886 49.7856522,59.1706522 C49.868841,59.1331158 49.9307244,59.0849278 49.9713043,59.026087 C50.0017393,58.9814491 50.0174638,58.9215946 50.0184783,58.8465217 C50.0194928,58.7714489 50.0093479,58.6892758 49.9880435,58.6 C49.966739,58.5107242 49.9383335,58.4168846 49.9028261,58.3184783 C49.8673187,58.220072 49.8292756,58.1247106 49.7886957,58.0323913 C49.7481157,57.940072 49.7080437,57.8528265 49.6684783,57.7706522 C49.6289128,57.6884779 49.5959422,57.6189858 49.5695652,57.5621739 L50.2786957,57.2121739 C50.3334785,57.3095657 50.3877534,57.4267384 50.4415217,57.5636957 C50.4952901,57.7006529 50.5424636,57.8421732 50.5830435,57.9882609 C50.6236234,58.1343486 50.6565941,58.2784051 50.6819565,58.4204348 C50.707319,58.5624645 50.72,58.6882603 50.72,58.7978261 C50.72,58.9946387 50.6865221,59.1701442 50.6195652,59.3243478 C50.5424634,59.5028994 50.4339137,59.6494922 50.293913,59.7641304 C50.1539123,59.8787687 49.9875372,59.9644925 49.7947826,60.0213043 C49.7359417,60.0375363 49.6623917,60.0502173 49.5741304,60.0593478 C49.4858691,60.0684783 49.3960874,60.0755797 49.3047826,60.0806522 C49.2134778,60.0857247 49.1267395,60.0887681 49.0445652,60.0897826 C48.9623909,60.0907971 48.8989857,60.0913043 48.8543478,60.0913043 L48.3856522,60.0913043 C48.3793759,60.0913043 48.3731529,60.0911712 48.3669831,60.0909049 C48.3515615,60.0906514 48.3344513,60.0902773 48.3156522,60.0897826 C48.2771013,60.0887681 48.2350002,60.0842029 48.1893478,60.076087 C48.1436954,60.067971 48.094493,60.0552899 48.0417391,60.0380435 C47.9889852,60.020797 47.9372466,59.9959422 47.8865217,59.9634783 C47.8601448,60.2191317 47.7825369,60.4641293 47.6536957,60.6984783 C47.5248544,60.9328273 47.36203,61.1524627 47.1652174,61.3573913 C46.9684048,61.5623199 46.7477548,61.7499991 46.5032609,61.9204348 C46.2587669,62.0908704 46.0076824,62.2399994 45.75,62.3678261 L45.4091304,61.6647826 C45.5511601,61.5917388 45.6936949,61.5126091 45.8367391,61.4273913 C45.9797833,61.3421735 46.1162312,61.2513773 46.246087,61.155 C46.3759427,61.0586227 46.4971734,60.9566672 46.6097826,60.8491304 C46.7223919,60.7415937 46.8197822,60.6305078 46.9019565,60.5158696 C46.9841308,60.4012313 47.0490577,60.2830441 47.0967391,60.1613043 C47.1444205,60.0395646 47.1682609,59.9147832 47.1682609,59.7869565 C47.1682609,59.7707246 47.1677536,59.7539856 47.1667391,59.7367391 C47.1657246,59.7194927 47.1642029,59.7027537 47.1621739,59.6865217 L47.1621739,59.6895652 C47.1479709,59.5759415 47.1241306,59.4607977 47.0906522,59.3441304 C47.0571737,59.2274632 47.0211596,59.1143484 46.9826087,59.0047826 C46.9440578,58.8952168 46.9055074,58.7902179 46.8669565,58.6897826 C46.8284056,58.5893473 46.7959422,58.4985511 46.7695652,58.4173913 L47.5,58.1130435 C47.5791308,58.350436 47.6536953,58.5467384 47.7236957,58.7019565 C47.793696,58.8571747 47.8642025,58.9799271 47.9352174,59.0702174 C48.0062322,59.1605077 48.0787677,59.2234056 48.1528261,59.258913 C48.2268844,59.2944205 48.3085503,59.3121739 48.3978261,59.3121739 Z M48.9395652,61.61 L48.4221739,61.0895652 L48.9456522,60.5691304 L49.4630435,61.0865217 L48.9395652,61.61 Z M50.09,61.603913 L49.5726087,61.0865217 L50.096087,60.5630435 L50.6134783,61.0834783 L50.09,61.603913 Z M49.5208696,61.4882609 L49.9956522,61.9630435 L49.5178261,62.4408696 L49.0430435,61.966087 L49.5208696,61.4882609 Z M42.9926087,58.8952174 C43.0697105,58.9439133 43.1625357,58.9936229 43.271087,59.0443478 C43.3796382,59.0950727 43.4922458,59.1412317 43.608913,59.1828261 C43.7255803,59.2244205 43.8402168,59.2578984 43.9528261,59.2832609 C44.0654353,59.3086233 44.1643474,59.3213043 44.2495652,59.3213043 C44.3002901,59.3213043 44.3687677,59.3187681 44.455,59.3136957 C44.5412323,59.3086232 44.6259416,59.2944204 44.7091304,59.271087 C44.7923193,59.2477535 44.8643475,59.2112321 44.9252174,59.1615217 C44.9860873,59.1118113 45.0175362,59.0413048 45.0195652,58.95 C45.0215942,58.8668112 44.9992756,58.7729715 44.9526087,58.6684783 C44.9059418,58.563985 44.8430439,58.4554353 44.763913,58.3428261 C44.6847822,58.2302168 44.5934788,58.117102 44.49,58.0034783 C44.3865212,57.8898545 44.2789861,57.7807976 44.1673913,57.6763043 C44.0557965,57.5718111 43.9436962,57.4754352 43.831087,57.3871739 C43.7184777,57.2989126 43.6134787,57.2243481 43.516087,57.1634783 L43.9695652,56.4908696 C44.1562328,56.6186963 44.3403614,56.7627528 44.5219565,56.9230435 C44.7035516,57.0833341 44.8709413,57.2542745 45.0241304,57.4358696 C45.1773196,57.6174647 45.3102168,57.8066657 45.4228261,58.0034783 C45.5354353,58.2002908 45.6160867,58.3991294 45.6647826,58.6 C45.7175365,58.8252185 45.718551,59.0331875 45.6678261,59.223913 C45.6171012,59.4146386 45.5257978,59.5784776 45.393913,59.7154348 C45.2620283,59.852392 45.0946387,59.9573909 44.8917391,60.0304348 C44.6888396,60.1034786 44.4615955,60.1339131 44.21,60.1217391 C44.0760863,60.1217391 43.9401456,60.1085509 43.8021739,60.0821739 C43.6642022,60.055797 43.5287688,60.0207973 43.3958696,59.9771739 C43.2629704,59.9335505 43.1351455,59.8828264 43.0123913,59.825 C42.8896371,59.7671736 42.7755078,59.7057974 42.67,59.6408696 L42.9926087,58.8952174 Z M41.2365217,55.4895652 L42.0186957,55.233913 C42.1201454,56.0029024 42.1728985,56.7221706 42.1769565,57.3917391 C42.1810145,58.4691358 42.1657973,59.3263736 42.1313043,59.9634783 L41.333913,60.0852174 C41.3947829,59.1478214 41.4130436,58.3626119 41.3886957,57.7295652 C41.3562317,56.901735 41.3055076,56.1550758 41.2365217,55.4895652 Z M36.1021739,59.312855 C36.1102104,59.312401 36.1183263,59.3121739 36.1265217,59.3121739 L36.7291304,59.3121739 C36.9807259,59.3121739 37.2368828,59.2883336 37.4976087,59.2406522 C37.7583346,59.1929708 38.0175349,59.1300729 38.2752174,59.0519565 C38.5328998,58.9738402 38.7844915,58.8840585 39.03,58.7826087 C39.2755085,58.6811589 39.507825,58.5766672 39.7269565,58.4691304 C39.5524629,58.4305795 39.3901457,58.3793481 39.24,58.3154348 C39.0898543,58.2515214 38.9478268,58.1891307 38.813913,58.1282609 C38.6799993,58.067391 38.55116,58.0146379 38.4273913,57.97 C38.3036226,57.9253621 38.1808702,57.9030435 38.0591304,57.9030435 C37.9881156,57.9030435 37.921667,57.9157245 37.8597826,57.941087 C37.7978982,57.9664494 37.74058,57.9984056 37.6878261,58.0369565 C37.6350722,58.0755074 37.5878988,58.1181157 37.5463043,58.1647826 C37.5047099,58.2114495 37.4681886,58.256594 37.4367391,58.3002174 C37.4052897,58.3438408 37.3794204,58.3828984 37.3591304,58.4173913 C37.3388405,58.4518842 37.3246377,58.4762318 37.3165217,58.4904348 L36.6834783,58.0795652 C36.7524641,57.9578255 36.8346372,57.8396383 36.93,57.725 C37.0253628,57.6103617 37.1313762,57.507899 37.2480435,57.4176087 C37.3647107,57.3273184 37.4910138,57.2552901 37.6269565,57.2015217 C37.7628992,57.1477534 37.9069558,57.1208696 38.0591304,57.1208696 C38.2153631,57.1208696 38.3705789,57.1416665 38.5247826,57.1832609 C38.6789863,57.2248553 38.8316659,57.2771011 38.9828261,57.34 C39.1339863,57.4028989 39.2856514,57.4713764 39.4378261,57.5454348 C39.5900008,57.6194931 39.7436949,57.6884779 39.898913,57.7523913 C40.0541312,57.8163047 40.2108688,57.8700722 40.3691304,57.9136957 C40.5273921,57.9573191 40.6897093,57.9801449 40.856087,57.9821739 L40.7921739,58.7673913 C40.5081145,58.903334 40.2118856,59.0473905 39.9034783,59.1995652 C39.5950709,59.3517399 39.2724655,59.492753 38.9356522,59.6226087 C38.5988389,59.7524644 38.2468134,59.8610141 37.8795652,59.9482609 C37.512317,60.0355077 37.1288426,60.0831884 36.7291304,60.0913043 L36.1265217,60.0913043 C36.1183263,60.0913043 36.1102104,60.0910773 36.1021739,60.0906232 C36.0941374,60.0910773 36.0860215,60.0913043 36.0778261,60.0913043 L36.0534783,60.0913043 C35.8850716,60.0913043 35.7308703,60.0771016 35.5908696,60.0486957 C35.4508689,60.0202897 35.3230441,59.9751452 35.2073913,59.9132609 C35.0917386,59.8513765 34.9887686,59.7722469 34.8984783,59.6758696 C34.808188,59.5794923 34.7295656,59.463334 34.6626087,59.3273913 C34.1046349,59.8427562 33.2697157,60.1004348 32.1578261,60.1004348 C31.5268084,60.0963768 31.0028282,60.0172471 30.5858696,59.8630435 C30.168911,59.7088398 29.86203,59.4734798 29.6652174,59.1569565 C29.5881156,59.0271008 29.5328263,58.8921746 29.4993478,58.7521739 C29.4658694,58.6121732 29.4491304,58.4752181 29.4491304,58.3413043 C29.4491304,58.1769557 29.4694201,58.0186964 29.51,57.8665217 L29.51,57.8695652 C29.5343479,57.7701444 29.55971,57.6834062 29.586087,57.6093478 C29.6124639,57.5352895 29.6368115,57.4728988 29.6591304,57.4221739 C29.6814494,57.371449 29.7007246,57.3318842 29.7169565,57.3034783 C29.7331885,57.2750723 29.7443478,57.2557972 29.7504348,57.2456522 L30.3378261,57.613913 C30.3175361,57.650435 30.294203,57.6899998 30.2678261,57.7326087 C30.2414491,57.7752176 30.2165943,57.8249273 30.1932609,57.8817391 C30.1699274,57.938551 30.150145,58.0055069 30.133913,58.0826087 C30.1176811,58.1597105 30.1095652,58.2499995 30.1095652,58.3534783 C30.1095652,58.4244931 30.1227535,58.4970286 30.1491304,58.571087 C30.1755074,58.6451453 30.2089853,58.7146374 30.2495652,58.7795652 C30.3063771,58.874928 30.3926081,58.9560866 30.5082609,59.0230435 C30.6239136,59.0900003 30.7644195,59.1447824 30.9297826,59.1873913 C31.0951458,59.2300002 31.2813033,59.2614492 31.4882609,59.2817391 C31.6952184,59.3020291 31.9184046,59.3121739 32.1578261,59.3121739 C32.3749286,59.3121739 32.5808686,59.3040581 32.7756522,59.2878261 C32.9704358,59.2715941 33.1515209,59.2457248 33.318913,59.2102174 C33.4863052,59.17471 33.6374631,59.1290583 33.7723913,59.0732609 C33.9073195,59.0174635 34.0244923,58.9489859 34.123913,58.8678261 C34.2131889,58.7988402 34.2852171,58.7186961 34.34,58.6273913 C34.3947829,58.5360865 34.4404346,58.4402179 34.4769565,58.3397826 C34.5134784,58.2393473 34.5439129,58.1363773 34.5682609,58.0308696 C34.5926088,57.9253618 34.6189854,57.8239135 34.6473913,57.7265217 L35.3473913,57.9152174 C35.3210144,58.0247832 35.2931161,58.13384 35.2636957,58.2423913 C35.2342752,58.3509426 35.2205797,58.4630429 35.2226087,58.5786957 L35.2226087,58.5756522 C35.2286957,58.6872469 35.2479709,58.7886952 35.2804348,58.88 C35.3128987,58.9713048 35.3631156,59.0489127 35.431087,59.1128261 C35.4990583,59.1767395 35.5857966,59.2259419 35.6913043,59.2604348 C35.7968121,59.2949277 35.9256514,59.3121739 36.0778261,59.3121739 C36.0860215,59.3121739 36.0941374,59.312401 36.1021739,59.312855 Z M38.5126087,56.0891304 L37.9313043,56.6704348 L37.3469565,56.086087 L37.9282609,55.5047826 L38.5126087,56.0891304 Z M32.3465217,57.0052174 L31.8291304,57.5226087 L31.3056522,57.0021739 L31.8230435,56.4817391 L32.3465217,57.0052174 Z M33.4969565,57.0082609 L32.9795652,57.5286957 L32.456087,57.0052174 L32.9734783,56.4878261 L33.4969565,57.0082609 Z M27.0586957,55.4895652 L27.8408696,55.233913 C27.9423193,56.0029024 27.9950724,56.7221706 27.9991304,57.3917391 C28.0031884,58.4691358 27.9879712,59.3263736 27.9534783,59.9634783 L27.156087,60.0852174 C27.2169568,59.1478214 27.2352175,58.3626119 27.2108696,57.7295652 C27.1784056,56.901735 27.1276815,56.1550758 27.0586957,55.4895652 Z M25.0530435,61.05 L24.5356522,61.5673913 L24.0121739,61.0469565 L24.5295652,60.5265217 L25.0530435,61.05 Z M26.2034783,61.0530435 L25.686087,61.5734783 L25.1626087,61.05 L25.68,60.5326087 L26.2034783,61.0530435 Z M24.0318838,59.3121739 L24.2921739,59.3121739 C24.3915947,59.3121739 24.4971009,59.3086232 24.6086957,59.3015217 C24.7202904,59.2944203 24.8273183,59.2802175 24.9297826,59.258913 C25.0322469,59.2376086 25.125072,59.2081886 25.2082609,59.1706522 C25.2914497,59.1331158 25.3533331,59.0849278 25.393913,59.026087 C25.424348,58.9814491 25.4400725,58.9215946 25.441087,58.8465217 C25.4421015,58.7714489 25.4319566,58.6892758 25.4106522,58.6 C25.3893477,58.5107242 25.3609422,58.4168846 25.3254348,58.3184783 C25.2899274,58.220072 25.2518843,58.1247106 25.2113043,58.0323913 C25.1707244,57.940072 25.1306524,57.8528265 25.091087,57.7706522 C25.0515215,57.6884779 25.0185509,57.6189858 24.9921739,57.5621739 L25.7013043,57.2121739 C25.7560872,57.3095657 25.8103621,57.4267384 25.8641304,57.5636957 C25.9178988,57.7006529 25.9650723,57.8421732 26.0056522,57.9882609 C26.0462321,58.1343486 26.0792028,58.2784051 26.1045652,58.4204348 C26.1299277,58.5624645 26.1426087,58.6882603 26.1426087,58.7978261 C26.1426087,58.9946387 26.1091308,59.1701442 26.0421739,59.3243478 C25.9650721,59.5028994 25.8565224,59.6494922 25.7165217,59.7641304 C25.576521,59.8787687 25.4101459,59.9644925 25.2173913,60.0213043 C25.1585504,60.0375363 25.0850004,60.0502173 24.9967391,60.0593478 C24.9084778,60.0684783 24.8186961,60.0755797 24.7273913,60.0806522 C24.6360865,60.0857247 24.5493482,60.0887681 24.4671739,60.0897826 C24.3849996,60.0907971 24.3215944,60.0913043 24.2769565,60.0913043 L23.8082609,60.0913043 C23.7554121,60.0913043 23.7063405,60.0818632 23.6610448,60.0629806 C23.4971546,60.0279027 23.3697055,59.9602427 23.2786957,59.86 L23.2147826,59.79 L23.1508696,59.8569565 C23.0007239,60.0050732 22.8100012,60.0791304 22.5786957,60.0791304 C22.4569559,60.0791304 22.3169573,60.0527539 22.1586957,60 C22.0308689,59.9594201 21.8949283,59.9026091 21.7508696,59.8295652 C21.5865209,59.7463764 21.4434789,59.6631888 21.3217391,59.58 C21.2649273,59.6652178 21.1776817,59.7514488 21.06,59.8386957 C20.8226075,60.0111603 20.5537696,60.0973913 20.2534783,60.0973913 C20.2284192,60.0973913 20.2042417,60.0952979 20.1809456,60.0911112 C19.9601472,60.0879276 19.7580947,60.0453837 19.5747826,59.9634783 C19.5768116,60.1318849 19.5626088,60.3043469 19.5321739,60.4808696 C19.501739,60.6573922 19.4520293,60.8268108 19.3830435,60.9891304 C19.3140576,61.1514501 19.2252904,61.3021008 19.1167391,61.441087 C19.0081879,61.5800732 18.8768124,61.6962314 18.7226087,61.7895652 L18.7256522,61.7895652 C18.6302894,61.8544931 18.5278266,61.9102896 18.4182609,61.9569565 C18.3086951,62.0036234 18.1925368,62.0421738 18.0697826,62.0726087 C17.9470284,62.1030436 17.8176818,62.126884 17.6817391,62.1441304 C17.5457964,62.1613769 17.4017399,62.1740579 17.2495652,62.1821739 C16.9107229,62.1821739 16.6200737,62.1415946 16.3776087,62.0604348 C16.1351437,61.979275 15.9246386,61.8626095 15.746087,61.7104348 C15.5310134,61.5136222 15.3707252,61.2818129 15.2652174,61.015 C15.1597096,60.7481871 15.1069565,60.4666681 15.1069565,60.1704348 C15.1069565,59.9999991 15.1181158,59.8392037 15.1404348,59.6880435 C15.1627537,59.5368833 15.1962317,59.3882616 15.2408696,59.2421739 C15.2855075,59.0960862 15.3423185,58.9469573 15.4113043,58.7947826 C15.4802902,58.6426079 15.5614488,58.4792762 15.6547826,58.3047826 L16.293913,58.7673913 C16.2310142,58.8810151 16.1691307,59.0052892 16.1082609,59.1402174 C16.047391,59.2751456 15.9941307,59.4151442 15.9484783,59.5602174 C15.9028259,59.7052906 15.8693479,59.8508688 15.8480435,59.9969565 C15.826739,60.1430442 15.8252173,60.2830428 15.8434783,60.4169565 C15.8515942,60.4656524 15.8663042,60.5239852 15.8876087,60.5919565 C15.9089132,60.6599279 15.9403621,60.7304344 15.9819565,60.8034783 C16.0235509,60.8765221 16.076304,60.9490576 16.1402174,61.021087 C16.2041308,61.0931163 16.2817387,61.1570287 16.3730435,61.2128261 C16.4643483,61.2686235 16.5713762,61.3142752 16.6941304,61.3497826 C16.8168847,61.38529 16.958405,61.4030435 17.1186957,61.4030435 L17.1704348,61.4030435 C17.1805798,61.4030435 17.1907246,61.402029 17.2008696,61.4 C17.4037691,61.389855 17.5924629,61.3695654 17.7669565,61.3391304 C17.9414501,61.3086955 18.0981877,61.2615221 18.2371739,61.1976087 C18.3761601,61.1336953 18.4953618,61.0505078 18.5947826,60.9480435 C18.6942034,60.8455792 18.7713041,60.7182616 18.826087,60.566087 C18.8768118,60.4240573 18.8976087,60.2734066 18.8884783,60.1141304 C18.8793478,59.9548543 18.8489133,59.7889864 18.7971739,59.6165217 C18.7454345,59.4440571 18.6779714,59.2655082 18.5947826,59.0808696 C18.5115938,58.896231 18.4223193,58.7085517 18.3269565,58.5178261 L19.0026087,58.0886957 L19.2643478,58.5908696 C19.3556526,58.7714502 19.4439126,58.9104343 19.5291304,59.0078261 C19.6143483,59.1052179 19.6965213,59.1767389 19.7756522,59.2223913 C19.854783,59.2680437 19.930362,59.2944203 20.0023913,59.3015217 C20.0744207,59.3086232 20.1428982,59.3121739 20.2078261,59.3121739 C20.2251008,59.3121739 20.2420224,59.3131826 20.2585909,59.3152001 C20.4918839,59.3136237 20.7001776,59.2040653 20.8834783,58.9865217 C20.9544931,58.9013039 21.0265214,58.7947832 21.0995652,58.6669565 C21.1442031,58.5857967 21.2020286,58.4721746 21.2730435,58.326087 L21.3491304,58.173913 C21.4708702,57.9324626 21.6017384,57.7498557 21.7417391,57.626087 C21.9060878,57.4799993 22.1039119,57.4069565 22.3352174,57.4069565 C22.6131898,57.4069565 22.8576801,57.4992744 23.0686957,57.683913 C23.3081171,57.8949286 23.4450723,58.1840561 23.4795652,58.5513043 L23.4795652,58.5786957 L23.4826087,58.5878261 L23.4826087,58.593913 C23.4846377,58.6 23.4856522,58.6071014 23.4856522,58.6152174 L23.4856522,58.6304348 C23.4856522,58.6365218 23.4866667,58.6436231 23.4886957,58.6517391 C23.4907246,58.6740581 23.4927536,58.6973912 23.4947826,58.7217391 C23.5028986,58.80087 23.5150724,58.8728982 23.5313043,58.9378261 C23.5901452,59.1813056 23.7311583,59.304058 23.9543478,59.306087 L23.9604348,59.306087 C23.9851055,59.306087 24.0089218,59.3081159 24.0318838,59.3121739 Z M22.6821739,59.3547826 C22.8302906,59.3121737 22.9084058,59.1873923 22.9165217,58.9804348 C22.9246377,58.8039122 22.8901453,58.6466674 22.8130435,58.5086957 C22.7460866,58.3889849 22.6598556,58.2956525 22.5543478,58.2286957 C22.4427531,58.1597098 22.3321745,58.1363767 22.2226087,58.1586957 C22.1556518,58.1728986 22.0582615,58.3068103 21.9304348,58.5604348 L21.8208696,58.7795652 C21.8086956,58.8059422 21.7975363,58.8302897 21.7873913,58.8526087 C21.7772463,58.8708697 21.7721739,58.8810145 21.7721739,58.8830435 L21.7417391,58.956087 C22.2124661,59.2259434 22.508695,59.3608696 22.6304348,59.3608696 C22.6507247,59.3608696 22.6679709,59.3588406 22.6821739,59.3547826 Z M17.9373913,58.2530435 L17.356087,58.8343478 L16.7717391,58.25 L17.3530435,57.6686957 L17.9373913,58.2530435 Z M12.0676812,59.3121739 L12.4426087,59.3121739 C12.5278265,59.3121739 12.6120286,59.3086232 12.6952174,59.3015217 C12.7784062,59.2944203 12.8565214,59.2797103 12.9295652,59.2573913 C13.0026091,59.2350724 13.0670287,59.2036234 13.1228261,59.1630435 C13.1786235,59.1224636 13.221739,59.0697105 13.2521739,59.0047826 C13.2744929,58.9601447 13.2856522,58.8931889 13.2856522,58.803913 C13.2856522,58.7511592 13.2750001,58.6771019 13.2536957,58.5817391 C13.2323912,58.4863763 13.2029712,58.3808701 13.1654348,58.2652174 C13.1278984,58.1495646 13.0842756,58.0298557 13.0345652,57.906087 C12.9848548,57.7823182 12.932609,57.6666672 12.8778261,57.5591304 L13.5808696,57.2121739 C13.6315945,57.3278267 13.6823186,57.4505791 13.7330435,57.5804348 C13.7837684,57.7102905 13.8289128,57.843695 13.8684783,57.9806522 C13.9080437,58.1176094 13.9399999,58.2550718 13.9643478,58.3930435 C13.9886958,58.5310152 14.0008696,58.6659414 14.0008696,58.7978261 C14.0008696,58.9946387 13.9673916,59.1701442 13.9004348,59.3243478 C13.8233329,59.5028994 13.7147833,59.6494922 13.5747826,59.7641304 C13.4347819,59.8787687 13.2684068,59.9644925 13.0756522,60.0213043 C12.9599994,60.0537683 12.8478991,60.0735507 12.7393478,60.0806522 C12.6307966,60.0877537 12.5298555,60.0913043 12.4365217,60.0913043 L11.9921739,60.0913043 C11.9862048,60.0913043 11.9802839,60.0911839 11.9744111,60.090943 C11.7582814,60.0874517 11.5714504,60.0586594 11.413913,60.0045652 C11.2455064,59.9467388 11.1004354,59.8589861 10.9786957,59.7413043 C10.9056518,59.6682605 10.849348,59.5896381 10.8097826,59.5054348 C10.7702172,59.4212315 10.7413044,59.3390584 10.7230435,59.258913 C10.7047825,59.1787677 10.6941305,59.1026815 10.691087,59.0306522 C10.6880435,58.9586228 10.6865217,58.8962321 10.6865217,58.8434783 C10.6885507,58.7785504 10.6910869,58.6710152 10.6941304,58.5208696 C10.6971739,58.3707239 10.6986957,58.1891315 10.6986957,57.976087 C10.6986957,57.8482602 10.6981884,57.7118123 10.6971739,57.5667391 C10.6961594,57.4216659 10.6946377,57.2740587 10.6926087,57.123913 C10.6905797,56.9737674 10.687029,56.8231167 10.6819565,56.6719565 C10.676884,56.5207963 10.6697827,56.3752181 10.6606522,56.2352174 C10.6515217,56.0952167 10.6403624,55.9638412 10.6271739,55.841087 C10.6139854,55.7183327 10.598261,55.6092758 10.58,55.513913 L11.343913,55.2856522 C11.366232,55.4033339 11.3855072,55.5453615 11.4017391,55.7117391 C11.4179711,55.8781168 11.4311594,56.055144 11.4413043,56.2428261 C11.4514493,56.4305082 11.4595652,56.6222454 11.4656522,56.8180435 C11.4717392,57.0138416 11.4747826,57.1999991 11.4747826,57.3765217 C11.4747826,57.4292756 11.4752899,57.4850722 11.4763043,57.543913 C11.4773188,57.6027539 11.4783333,57.6610867 11.4793478,57.718913 C11.4803623,57.7767394 11.4808696,57.8330432 11.4808696,57.8878261 L11.4808696,58.0369565 C11.4808696,58.1140584 11.4803623,58.1865939 11.4793478,58.2545652 C11.4783333,58.3225366 11.4773188,58.3879707 11.4763043,58.4508696 C11.4752899,58.5137684 11.4742754,58.5756519 11.4732609,58.6365217 C11.4722464,58.6973916 11.4717391,58.759275 11.4717391,58.8221739 C11.4697101,58.8992757 11.4717391,58.9718113 11.4778261,59.0397826 C11.4839131,59.107754 11.5042027,59.1579709 11.5386957,59.1904348 C11.6117395,59.2675366 11.7628974,59.3071014 11.9921739,59.3091304 L12.0195652,59.3091304 C12.0358455,59.3091304 12.0518841,59.3101449 12.0676812,59.3121739 Z M13.4895652,61.1443478 L12.9082609,61.7256522 L12.323913,61.1413043 L12.9052174,60.56 L13.4895652,61.1443478 Z"/>
  </defs>
  <g fill="none" fill-rule="evenodd">
    <rect width="60" height="85" fill="url(#badge-a)" rx="6"/>
    <use fill="#FFF" xlink:href="#badge-b"/>
    <use fill="#222852" xlink:href="#badge-b"/>
    <path fill="#222852" d="M49.0789303 69.1890625C49.5876476 69.1890625 50 69.6025526 50 70.1123273L50 75.0767352C50 75.5865099 49.5876476 76 49.0789303 76 48.570213 76 48.1578606 75.5865099 48.1578606 75.0767352L48.1578606 70.1123273C48.1578606 69.6025526 48.570213 69.1890625 49.0789303 69.1890625zM17.873633 64.9120363C17.9150924 68.3530152 17.9358221 70.073879 17.9358221 70.0746275L17.9358221 71.9820718C17.9358221 74.1960546 16.1558717 75.9973894 13.9680511 75.9973894 11.7799503 75.9973894 10 74.1960546 10 71.9820718L10 70.1825817C10 69.672807 10.4120722 69.2593169 10.9210697 69.2593169 11.429787 69.2593169 11.8421394 69.672807 11.8421394 70.1825817L11.8421394 71.9820718C11.8421394 73.1779088 12.7957042 74.1511405 13.9680511 74.1511405 15.1398377 74.1511405 16.0936827 73.1779088 16.0936827 71.9820718L16.0936827 70.1231909 16.0314937 64.9342126C16.0253308 64.4244379 16.4326408 64.0061757 16.9528435 64 17.4565185 64 17.8677503 64.4059109 17.873633 64.9120363zM36.5448752 69.1890625L40.538058 69.1890625C41.0467753 69.1890625 41.4591277 69.6025526 41.4591277 70.1123273 41.4591277 70.6218212 41.0467753 71.0353113 40.538058 71.0353113L36.5448752 71.0353113 36.5448752 71.8260796C36.5448752 74.1259606 34.6775241 75.9971929 32.3824134 75.9971929 30.0873027 75.9971929 28.2199516 74.1259606 28.2199516 71.8260796L28.2199516 70.1823852C28.2199516 69.6726105 28.6320238 69.2594011 29.1410213 69.2594011 29.6497386 69.2594011 30.062091 69.6726105 30.062091 70.1823852L30.062091 71.8260796C30.062091 73.1080955 31.1030566 74.150944 32.3824134 74.150944 33.6617702 74.150944 34.7027358 73.1080955 34.7027358 71.8260796L34.7027358 68.7708002C34.7027358 68.2610256 35.1150882 67.8478162 35.6238055 67.8478162 36.132803 67.8478162 36.5448752 68.2610256 36.5448752 68.7708002L36.5448752 69.1890625zM21.4451592 69.1890625L24.7850772 69.1890625C25.2937946 69.1890625 25.7061469 69.6025526 25.7061469 70.1123273 25.7061469 70.6218212 25.2937946 71.0353113 24.7850772 71.0353113L20.5347345 71.0353113C20.4717051 71.0353113 20.4097962 71.0288549 20.3501283 71.0167843 20.3338808 71.0134157 20.319314 71.0063979 20.3033465 71.0021872 20.2607666 70.9909587 20.2179067 70.9800109 20.177848 70.9631681 20.1582388 70.9550275 20.1408707 70.9426761 20.1218218 70.9328511 20.087926 70.9157276 20.0531898 70.899727 20.0218152 70.8786735 20.0033266 70.8663222 19.9876392 70.8500408 19.9702711 70.8365666 19.9414177 70.8138289 19.9117238 70.792214 19.8856717 70.7666691 19.8699843 70.7509492 19.8579387 70.7327028 19.8436521 70.7161408 19.8195608 70.6883502 19.7940689 70.6614017 19.7733393 70.6305233 19.7607334 70.6119963 19.7520493 70.5912235 19.7408441 70.5718543 19.7223555 70.539853 19.7027463 70.5089746 19.6881795 70.4747276 19.6786551 70.4522706 19.6733326 70.4278486 19.6657691 70.4045494 19.6542837 70.3708639 19.6413977 70.3380205 19.6341143 70.3026506 19.6285117 70.2765443 19.6282316 70.2487538 19.62487 70.222086 19.6212283 70.1892426 19.614225 70.1572413 19.6139449 70.1232751L19.552036 64.9342968C19.5458731 64.4245221 19.9531832 64.0062599 20.4733858 64.0000842 20.9770608 64.0000842 21.3880125 64.4059951 21.3941754 64.9121205L21.4451592 69.1890625zM44.9998074 69.1890625C45.5085247 69.1890625 45.9208771 69.6025526 45.9208771 70.1123273L45.9208771 75.0767352C45.9208771 75.5865099 45.5085247 76 44.9998074 76 44.4910901 76 44.0787377 75.5865099 44.0787377 75.0767352L44.0787377 70.1123273C44.0787377 69.6025526 44.4910901 69.1890625 44.9998074 69.1890625zM32.381629 70.9794214C32.1547232 70.9794214 31.9306186 70.8867861 31.7709441 70.7267798 31.6084684 70.5639663 31.5160252 70.339396 31.5160252 70.1120185 31.5160252 69.884641 31.6084684 69.6600707 31.7709441 69.5000643 32.0902931 69.1772445 32.6729649 69.1744373 32.9951152 69.5000643 33.1547897 69.6600707 33.2472328 69.884641 33.2472328 70.1120185 33.2472328 70.339396 33.1547897 70.5639663 32.9951152 70.7267798 32.8326394 70.8867861 32.6113362 70.9794214 32.381629 70.9794214zM49.0773056 68.079657C48.8503997 68.079657 48.6265753 67.9870217 48.4666207 67.8270153 48.3069462 67.6642019 48.2117018 67.4396315 48.2117018 67.2122541 48.2117018 66.9848766 48.3069462 66.7603063 48.4666207 66.6002999 48.6683148 66.3981866 48.9680546 66.3055513 49.2481853 66.3616939 49.3044915 66.3729224 49.3574362 66.3897652 49.4106611 66.4122222 49.4610846 66.4346793 49.5117882 66.4599434 49.5594105 66.4908219 49.6070327 66.5245074 49.6518536 66.5610001 49.6907918 66.6002999 49.8507464 66.7603063 49.9431895 66.9848766 49.9431895 67.2122541 49.9431895 67.4424386 49.8507464 67.6642019 49.6907918 67.8270153 49.6518536 67.8663152 49.6070327 67.9028078 49.5594105 67.9336863 49.5117882 67.9645647 49.4610846 67.992636 49.4106611 68.015093 49.3574362 68.0347429 49.3016902 68.0515857 49.2481853 68.0628142 49.1921591 68.0740427 49.1333317 68.079657 49.0773056 68.079657zM23.5582289 74.7045099C23.5806394 74.7578453 23.5946459 74.8111808 23.6058511 74.8673234 23.6170564 74.923466 23.6254603 74.9796085 23.6254603 75.0357511 23.6254603 75.0918937 23.6170564 75.1508434 23.6058511 75.206986 23.5946459 75.2603215 23.5806394 75.316464 23.5582289 75.3669924 23.5358185 75.4203278 23.5106067 75.4708562 23.4800725 75.5185773 23.4464568 75.5662985 23.4100398 75.6084055 23.3705414 75.6505124 23.3313231 75.6898122 23.2865022 75.7263049 23.2388799 75.7571833 23.1912577 75.7880617 23.1411143 75.816133 23.0904107 75.8385901 23.037466 75.85824 22.983961 75.8750828 22.9279349 75.8863113 22.8719087 75.8975398 22.8161627 75.903154 22.7598565 75.903154 22.7038303 75.903154 22.6450029 75.8975398 22.5889768 75.8863113 22.5360321 75.8750828 22.4797258 75.85824 22.4295824 75.8385901 22.3760774 75.816133 22.325934 75.7880617 22.2783118 75.7571833 22.2306896 75.7263049 22.1858687 75.6898122 22.1463703 75.6505124 22.107152 75.6084055 22.070735 75.5662985 22.0399206 75.5185773 22.0093864 75.4708562 21.9810932 75.4203278 21.9586827 75.3669924 21.9393537 75.316464 21.9222657 75.2603215 21.9110605 75.206986 21.8998553 75.1508434 21.8945328 75.0918937 21.8945328 75.0357511 21.8945328 74.9796085 21.8998553 74.923466 21.9110605 74.8673234 21.9222657 74.8111808 21.9393537 74.7578453 21.9586827 74.7045099 21.9810932 74.6539816 22.0093864 74.6034532 22.0399206 74.555732 22.070735 74.5080108 22.107152 74.4630968 22.1463703 74.423797 22.1858687 74.3844972 22.2306896 74.3480045 22.2783118 74.3143189 22.325934 74.2834405 22.3760774 74.2581763 22.426501 74.2357193 22.4797258 74.2132623 22.5360321 74.1964195 22.5889768 74.185191 22.701029 74.162734 22.8161627 74.162734 22.9279349 74.185191 22.983961 74.1964195 23.037466 74.2132623 23.0904107 74.2357193 23.1411143 74.2581763 23.1912577 74.2834405 23.2388799 74.3143189 23.2865022 74.3480045 23.3313231 74.3844972 23.3705414 74.423797 23.4100398 74.4630968 23.4464568 74.5080108 23.4800725 74.555732 23.5106067 74.6034532 23.5358185 74.6539816 23.5582289 74.7045099zM38.4130267 72.5624177L40.8902223 72.5624177C41.2885681 72.5624177 41.6112787 72.8860797 41.6112787 73.2852534 41.6112787 73.6844272 41.2885681 74.0078085 40.8902223 74.0078085L38.4130267 74.0078085C38.0146808 74.0078085 37.6919703 73.6844272 37.6919703 73.2852534 37.6919703 72.8860797 38.0146808 72.5624177 38.4130267 72.5624177zM23.997866 72.2730588C24.3962118 72.2730588 24.7189224 72.5967208 24.7189224 72.9958946 24.7189224 73.3950683 24.3962118 73.7184496 23.997866 73.7184496L21.5206704 73.7184496C21.1223246 73.7184496 20.799614 73.3950683 20.799614 72.9958946 20.799614 72.5967208 21.1223246 72.2730588 21.5206704 72.2730588L23.997866 72.2730588zM11.074072 10L22.260805 10C23.2074447 10 23.6898669 11.139429 23.0253986 11.8086175L11.8659725 23.013003C11.192402 23.6912346 10.0364092 23.220994 10.0364092 22.2714698L10 11.0670843C10 10.4792836 10.4733199 10 11.074072 10zM48.9429517 50L37.7398875 50C36.7926366 50 36.3099029 48.860571 36.9748002 48.1913825L48.1323235 36.986997C48.8063289 36.3087654 49.962977 36.779006 49.962977 37.7285302L49.9995008 48.9329157C50.0177172 49.5207164 49.5349835 50 48.9429517 50zM11.6646386 40.306587L40.313945 11.6643035C42.5334631 9.44523216 46.125578 9.44523216 48.3353614 11.6643035 50.5548795 13.8832776 50.5548795 17.4744146 48.3353614 19.6837536L19.686055 48.3357695C17.4762716 50.5547435 13.874422 50.5547435 11.6646386 48.3357695 9.44512047 46.1166981 9.44512047 42.5255611 11.6646386 40.306587z"/>
  </g>
</svg>
