<svg width="400" height="400" viewBox="0 0 400 400" fill="none" xmlns="http://www.w3.org/2000/svg">
<rect width="400" height="400" fill="url(#paint0_linear)"/>
<path fill-rule="evenodd" clip-rule="evenodd" d="M191.882 102.16C210.69 103.705 222.013 121.414 236.08 134.004C251.62 147.911 275.242 157.442 276.893 178.24C278.582 199.517 260.014 216.356 243.709 230.112C229.007 242.517 211.107 249.534 191.882 249.966C172.152 250.409 151.447 246.64 137.673 232.495C124.028 218.482 121.651 197.803 122.038 178.24C122.416 159.156 126.878 140.152 139.782 126.096C153.222 111.456 172.083 100.535 191.882 102.16Z" fill="#A7F3D0"/>
<path d="M145 149.938C145 148.893 145.52 147.892 146.446 147.153C147.372 146.415 148.628 146 149.938 146H174.625C175.935 146 177.19 146.415 178.116 147.153C179.042 147.892 179.562 148.893 179.562 149.938V205.062C179.562 206.107 179.042 207.108 178.116 207.847C177.19 208.585 175.935 209 174.625 209H149.938C148.628 209 147.372 208.585 146.446 207.847C145.52 207.108 145 206.107 145 205.062V149.938ZM189.438 149.938C189.438 148.893 189.958 147.892 190.884 147.153C191.81 146.415 193.065 146 194.375 146H219.062C220.372 146 221.628 146.415 222.554 147.153C223.48 147.892 224 148.893 224 149.938V169.625C224 170.669 223.48 171.671 222.554 172.409C221.628 173.148 220.372 173.562 219.062 173.562H194.375C193.065 173.562 191.81 173.148 190.884 172.409C189.958 171.671 189.438 170.669 189.438 169.625V149.938ZM189.438 185.375C189.438 184.331 189.958 183.329 190.884 182.591C191.81 181.852 193.065 181.438 194.375 181.438H219.062C220.372 181.438 221.628 181.852 222.554 182.591C223.48 183.329 224 184.331 224 185.375V205.062C224 206.107 223.48 207.108 222.554 207.847C221.628 208.585 220.372 209 219.062 209H194.375C193.065 209 191.81 208.585 190.884 207.847C189.958 207.108 189.438 206.107 189.438 205.062V185.375Z" fill="#10B981"/>
<path d="M197.96 297.68C197.96 298.8 197.77 299.86 197.39 300.86C197.01 301.86 196.48 302.73 195.8 303.47C195.12 304.23 194.3 304.83 193.34 305.27C192.4 305.71 191.35 305.93 190.19 305.93H186.89L186.38 300.17H189.53C190.61 300.17 191.37 299.95 191.81 299.51C192.27 299.07 192.5 298.52 192.5 297.86V288.26H197.96V297.68ZM213.798 293.21C213.918 293.21 214.018 293.24 214.098 293.3C214.178 293.34 214.238 293.45 214.278 293.63C214.338 293.81 214.378 294.09 214.398 294.47C214.418 294.85 214.428 295.37 214.428 296.03C214.428 296.73 214.418 297.28 214.398 297.68C214.378 298.08 214.338 298.38 214.278 298.58C214.238 298.78 214.178 298.9 214.098 298.94C214.018 298.98 213.918 299 213.798 299H212.088C212.028 300.22 211.798 301.29 211.398 302.21C211.018 303.13 210.498 303.9 209.838 304.52C209.178 305.16 208.398 305.64 207.498 305.96C206.598 306.28 205.618 306.44 204.558 306.44H200.088L199.758 300.65H204.888C205.548 300.65 206.008 300.52 206.268 300.26C206.548 300 206.688 299.58 206.688 299H206.208C204.968 299 203.948 298.86 203.148 298.58C202.348 298.3 201.718 297.91 201.258 297.41C200.818 296.89 200.508 296.26 200.328 295.52C200.168 294.78 200.088 293.96 200.088 293.06C200.088 292.2 200.218 291.38 200.478 290.6C200.738 289.82 201.118 289.14 201.618 288.56C202.138 287.96 202.768 287.49 203.508 287.15C204.248 286.79 205.088 286.61 206.028 286.61C206.848 286.61 207.628 286.73 208.368 286.97C209.108 287.21 209.758 287.6 210.318 288.14C210.878 288.66 211.318 289.34 211.638 290.18C211.978 291 212.148 292.01 212.148 293.21H213.798ZM205.218 292.7C205.218 293.02 205.278 293.27 205.398 293.45C205.518 293.63 205.788 293.72 206.208 293.72H207.018V292.88C207.018 292.12 206.708 291.74 206.088 291.74C205.508 291.74 205.218 292.06 205.218 292.7ZM215.447 291.26L215.927 285.8H223.367C223.947 285.8 224.497 285.87 225.017 286.01C225.537 286.15 226.027 286.44 226.487 286.88C226.967 287.32 227.417 287.96 227.837 288.8C228.257 289.62 228.667 290.71 229.067 292.07L227.597 293.21H230.777C230.897 293.21 230.997 293.24 231.077 293.3C231.177 293.34 231.247 293.45 231.287 293.63C231.347 293.81 231.387 294.09 231.407 294.47C231.427 294.85 231.437 295.37 231.437 296.03C231.437 296.73 231.427 297.28 231.407 297.68C231.387 298.08 231.347 298.38 231.287 298.58C231.247 298.78 231.177 298.9 231.077 298.94C230.997 298.98 230.897 299 230.777 299H228.317C227.177 299 226.257 298.77 225.557 298.31C224.877 297.85 224.337 297.32 223.937 296.72L223.367 297.02C222.707 297.4 222.097 297.72 221.537 297.98C220.977 298.22 220.407 298.42 219.827 298.58C219.267 298.72 218.667 298.83 218.027 298.91C217.407 298.97 216.707 299 215.927 299H213.797C213.677 299 213.577 298.98 213.497 298.94C213.397 298.9 213.327 298.79 213.287 298.61C213.227 298.41 213.187 298.12 213.167 297.74C213.147 297.36 213.137 296.84 213.137 296.18C213.137 295.48 213.147 294.93 213.167 294.53C213.187 294.13 213.227 293.84 213.287 293.66C213.327 293.46 213.397 293.34 213.497 293.3C213.577 293.24 213.677 293.21 213.797 293.21H216.107C216.607 293.21 217.097 293.21 217.577 293.21C218.077 293.19 218.587 293.14 219.107 293.06C219.647 292.96 220.217 292.83 220.817 292.67C221.437 292.49 222.117 292.23 222.857 291.89C222.777 291.65 222.657 291.49 222.497 291.41C222.337 291.31 222.127 291.26 221.867 291.26H215.447ZM231.929 293.21C232.069 293.21 232.189 293.17 232.289 293.09C232.389 292.99 232.439 292.87 232.439 292.73C232.439 290.73 232.969 289.16 234.029 288.02C235.109 286.86 236.579 286.28 238.439 286.28C240.399 286.28 241.869 286.85 242.849 287.99C243.829 289.13 244.319 290.65 244.319 292.55C244.319 294.55 243.779 296.13 242.699 297.29C241.619 298.43 240.129 299 238.229 299C237.649 299 237.079 298.92 236.519 298.76C235.959 298.6 235.479 298.35 235.079 298.01C234.839 298.23 234.579 298.4 234.299 298.52C234.039 298.64 233.739 298.74 233.399 298.82C233.079 298.9 232.709 298.95 232.289 298.97C231.869 298.99 231.369 299 230.789 299C230.669 299 230.569 298.98 230.489 298.94C230.389 298.9 230.319 298.79 230.279 298.61C230.219 298.41 230.179 298.12 230.159 297.74C230.139 297.36 230.129 296.84 230.129 296.18C230.129 295.48 230.139 294.93 230.159 294.53C230.179 294.13 230.219 293.84 230.279 293.66C230.319 293.46 230.389 293.34 230.489 293.3C230.569 293.24 230.669 293.21 230.789 293.21H231.929ZM237.389 292.55C237.389 292.97 237.479 293.24 237.659 293.36C237.839 293.48 238.059 293.54 238.319 293.54C238.539 293.54 238.739 293.48 238.919 293.36C239.099 293.24 239.189 292.97 239.189 292.55C239.189 291.89 238.899 291.56 238.319 291.56C237.699 291.56 237.389 291.89 237.389 292.55ZM249.295 293.21C249.295 292.23 249.495 291.31 249.895 290.45C250.295 289.57 250.915 288.62 251.755 287.6L250.495 286.28L254.335 282.5C255.875 283.9 257.115 285.12 258.055 286.16C258.995 287.18 259.715 288.1 260.215 288.92C260.735 289.72 261.075 290.46 261.235 291.14C261.415 291.82 261.505 292.51 261.505 293.21C261.505 294.05 261.345 294.82 261.025 295.52C260.705 296.22 260.265 296.83 259.705 297.35C259.165 297.87 258.505 298.28 257.725 298.58C256.965 298.86 256.135 299 255.235 299C254.335 299 253.515 298.86 252.775 298.58C252.035 298.3 251.405 297.91 250.885 297.41C250.385 296.91 249.995 296.31 249.715 295.61C249.435 294.89 249.295 294.09 249.295 293.21ZM256.375 292.67C256.375 292.11 256.045 291.53 255.385 290.93C254.725 291.57 254.395 292.15 254.395 292.67C254.395 293.25 254.725 293.54 255.385 293.54C256.045 293.54 256.375 293.25 256.375 292.67ZM269.093 297.68C269.093 298.8 268.903 299.86 268.523 300.86C268.143 301.86 267.613 302.73 266.933 303.47C266.253 304.23 265.433 304.83 264.473 305.27C263.533 305.71 262.483 305.93 261.323 305.93H258.022L257.512 300.17H260.662C261.742 300.17 262.503 299.95 262.943 299.51C263.403 299.07 263.633 298.52 263.633 297.86V288.26H269.093V297.68ZM268.403 281.66H264.113V277.55H268.403V281.66ZM270.563 286.61H261.982V282.5H270.563V286.61ZM283.28 298.34C283.28 299.66 283.09 300.82 282.71 301.82C282.35 302.84 281.83 303.69 281.15 304.37C280.47 305.05 279.66 305.56 278.72 305.9C277.8 306.26 276.79 306.44 275.69 306.44H271.22L270.89 300.65H276.02C276.68 300.65 277.14 300.52 277.4 300.26C277.68 300 277.82 299.58 277.82 299H277.34C276.1 299 275.08 298.86 274.28 298.58C273.48 298.3 272.85 297.91 272.39 297.41C271.95 296.89 271.64 296.26 271.46 295.52C271.3 294.78 271.22 293.96 271.22 293.06C271.22 292.2 271.35 291.38 271.61 290.6C271.87 289.82 272.25 289.14 272.75 288.56C273.27 287.96 273.9 287.49 274.64 287.15C275.38 286.79 276.22 286.61 277.16 286.61C277.98 286.61 278.76 286.73 279.5 286.97C280.24 287.21 280.89 287.6 281.45 288.14C282.01 288.66 282.45 289.34 282.77 290.18C283.11 291 283.28 292.01 283.28 293.21V298.34ZM276.35 292.7C276.35 293.02 276.41 293.27 276.53 293.45C276.65 293.63 276.92 293.72 277.34 293.72H278.15V292.88C278.15 292.12 277.84 291.74 277.22 291.74C276.64 291.74 276.35 292.06 276.35 292.7ZM282.43 300.17C283.51 300.17 284.27 299.95 284.71 299.51C285.17 299.07 285.4 298.52 285.4 297.86V288.26H290.86V292.79C290.86 293.07 291.02 293.21 291.34 293.21H292.48C292.6 293.21 292.7 293.24 292.78 293.3C292.88 293.34 292.95 293.45 292.99 293.63C293.05 293.81 293.09 294.09 293.11 294.47C293.13 294.85 293.14 295.37 293.14 296.03C293.14 296.73 293.13 297.28 293.11 297.68C293.09 298.08 293.05 298.38 292.99 298.58C292.95 298.78 292.88 298.9 292.78 298.94C292.7 298.98 292.6 299 292.48 299H292C291.52 299 291.1 298.97 290.74 298.91C290.62 299.89 290.35 300.8 289.93 301.64C289.51 302.5 288.97 303.24 288.31 303.86C287.65 304.5 286.87 305 285.97 305.36C285.09 305.74 284.12 305.93 283.06 305.93H281.59L281.11 300.17H282.43ZM295.812 293.21C295.932 293.21 296.042 293.17 296.142 293.09C296.242 292.99 296.292 292.87 296.292 292.73V288.26H301.722V293.21C301.722 294.17 301.582 295.01 301.302 295.73C301.042 296.45 300.672 297.05 300.192 297.53C299.712 298.01 299.132 298.38 298.452 298.64C297.792 298.88 297.072 299 296.292 299H293.982C293.862 299 293.762 298.98 293.682 298.94C293.582 298.9 293.512 298.79 293.472 298.61C293.412 298.41 293.372 298.12 293.352 297.74C293.332 297.36 293.322 296.84 293.322 296.18C293.322 295.48 293.332 294.93 293.352 294.53C293.372 294.13 293.412 293.84 293.472 293.66C293.512 293.46 293.582 293.34 293.682 293.3C293.762 293.24 293.862 293.21 293.982 293.21H295.812ZM300.402 309.71H296.112V305.57H300.402V309.71ZM302.562 304.76H293.982V300.62H302.562V304.76ZM306.717 293.21C306.717 292.23 306.917 291.31 307.317 290.45C307.717 289.57 308.337 288.62 309.177 287.6L307.917 286.28L311.757 282.5C313.297 283.9 314.537 285.12 315.477 286.16C316.417 287.18 317.137 288.1 317.637 288.92C318.157 289.72 318.497 290.46 318.657 291.14C318.837 291.82 318.927 292.51 318.927 293.21C318.927 294.05 318.767 294.82 318.447 295.52C318.127 296.22 317.687 296.83 317.127 297.35C316.587 297.87 315.927 298.28 315.147 298.58C314.387 298.86 313.557 299 312.657 299C311.757 299 310.937 298.86 310.197 298.58C309.457 298.3 308.827 297.91 308.307 297.41C307.807 296.91 307.417 296.31 307.137 295.61C306.857 294.89 306.717 294.09 306.717 293.21ZM313.797 292.67C313.797 292.11 313.467 291.53 312.807 290.93C312.147 291.57 311.817 292.15 311.817 292.67C311.817 293.25 312.147 293.54 312.807 293.54C313.467 293.54 313.797 293.25 313.797 292.67ZM326.514 297.68C326.514 298.8 326.324 299.86 325.944 300.86C325.564 301.86 325.034 302.73 324.354 303.47C323.674 304.23 322.854 304.83 321.894 305.27C320.954 305.71 319.904 305.93 318.744 305.93H315.444L314.934 300.17H318.084C319.164 300.17 319.924 299.95 320.364 299.51C320.824 299.07 321.054 298.52 321.054 297.86V288.26H326.514V297.68ZM340.702 298.34C340.702 299.66 340.512 300.82 340.132 301.82C339.772 302.84 339.252 303.69 338.572 304.37C337.892 305.05 337.082 305.56 336.142 305.9C335.222 306.26 334.212 306.44 333.112 306.44H328.642L328.312 300.65H333.442C334.102 300.65 334.562 300.52 334.822 300.26C335.102 300 335.242 299.58 335.242 299H334.762C333.522 299 332.502 298.86 331.702 298.58C330.902 298.3 330.272 297.91 329.812 297.41C329.372 296.89 329.062 296.26 328.882 295.52C328.722 294.78 328.642 293.96 328.642 293.06C328.642 292.2 328.772 291.38 329.032 290.6C329.292 289.82 329.672 289.14 330.172 288.56C330.692 287.96 331.322 287.49 332.062 287.15C332.802 286.79 333.642 286.61 334.582 286.61C335.402 286.61 336.182 286.73 336.922 286.97C337.662 287.21 338.312 287.6 338.872 288.14C339.432 288.66 339.872 289.34 340.192 290.18C340.532 291 340.702 292.01 340.702 293.21V298.34ZM333.772 292.7C333.772 293.02 333.832 293.27 333.952 293.45C334.072 293.63 334.342 293.72 334.762 293.72H335.572V292.88C335.572 292.12 335.262 291.74 334.642 291.74C334.062 291.74 333.772 292.06 333.772 292.7ZM344.982 287.12L349.092 283.16L354.372 289.61C355.132 290.51 355.622 291.32 355.842 292.04C356.082 292.76 356.202 293.43 356.202 294.05C356.202 294.73 356.082 295.37 355.842 295.97C355.622 296.57 355.282 297.1 354.822 297.56C354.362 298 353.772 298.35 353.052 298.61C352.352 298.87 351.522 299 350.562 299H342.642L342.162 293.21H349.092C349.412 293.21 349.572 293.08 349.572 292.82C349.572 292.64 349.462 292.41 349.242 292.13L344.982 287.12Z" fill="#10B981"/>
<path d="M54.7223 290.09V293.72H60.9023V297.98H54.7223V305H48.9023V285.89H62.1923V290.09H54.7223ZM69.5234 285.53V305H64.1834V285.53H69.5234ZM79.6355 296.09C79.5955 295.69 79.4655 295.35 79.2455 295.07C79.0455 294.77 78.6955 294.62 78.1955 294.62C77.3955 294.62 76.8455 295.11 76.5455 296.09H79.6355ZM76.4255 299.24C76.5855 300.04 76.8455 300.6 77.2055 300.92C77.5855 301.24 78.0655 301.4 78.6455 301.4C79.0255 301.4 79.3555 301.35 79.6355 301.25C79.9155 301.13 80.1755 301.01 80.4155 300.89C80.6555 300.75 80.8955 300.63 81.1355 300.53C81.3955 300.41 81.6855 300.35 82.0055 300.35C82.3255 300.35 82.5855 300.39 82.7855 300.47C82.9855 300.55 83.1655 300.67 83.3255 300.83L84.7055 302.54C84.2255 303.08 83.7055 303.53 83.1455 303.89C82.6055 304.23 82.0555 304.5 81.4955 304.7C80.9355 304.9 80.3755 305.03 79.8155 305.09C79.2755 305.17 78.7555 305.21 78.2555 305.21C77.2555 305.21 76.3155 305.05 75.4355 304.73C74.5555 304.41 73.7855 303.94 73.1255 303.32C72.4655 302.7 71.9355 301.93 71.5355 301.01C71.1555 300.09 70.9655 299.03 70.9655 297.83C70.9655 296.91 71.1255 296.04 71.4455 295.22C71.7855 294.4 72.2655 293.68 72.8855 293.06C73.5055 292.44 74.2555 291.95 75.1355 291.59C76.0155 291.21 77.0155 291.02 78.1355 291.02C79.0955 291.02 79.9755 291.17 80.7755 291.47C81.5755 291.75 82.2655 292.16 82.8455 292.7C83.4255 293.24 83.8755 293.91 84.1955 294.71C84.5155 295.49 84.6755 296.38 84.6755 297.38C84.6755 298.12 84.5755 298.62 84.3755 298.88C84.1755 299.12 83.7255 299.24 83.0255 299.24H76.4255ZM100.669 305H95.899C95.419 305 95.039 304.91 94.759 304.73C94.499 304.55 94.299 304.33 94.159 304.07L92.569 301.4L91.009 304.1C90.849 304.36 90.639 304.58 90.379 304.76C90.119 304.92 89.749 305 89.269 305H84.739L89.359 297.95C88.659 296.93 87.909 295.81 87.109 294.59C86.329 293.35 85.599 292.22 84.919 291.2H89.749C90.189 291.2 90.519 291.26 90.739 291.38C90.979 291.5 91.169 291.66 91.309 291.86L92.929 294.47L94.369 291.95C94.549 291.67 94.749 291.48 94.969 291.38C95.189 291.26 95.499 291.2 95.899 291.2H100.609L96.109 297.68L100.669 305ZM121.241 295.61V301.04H107.891V295.61H121.241ZM135.651 294.65H143.691V302.93C142.611 303.75 141.481 304.34 140.301 304.7C139.141 305.04 137.931 305.21 136.671 305.21C135.051 305.21 133.581 304.97 132.261 304.49C130.961 303.99 129.841 303.31 128.901 302.45C127.981 301.57 127.271 300.54 126.771 299.36C126.271 298.18 126.021 296.89 126.021 295.49C126.021 294.05 126.251 292.73 126.711 291.53C127.191 290.31 127.871 289.27 128.751 288.41C129.631 287.53 130.701 286.85 131.961 286.37C133.221 285.89 134.641 285.65 136.221 285.65C137.921 285.65 139.411 285.93 140.691 286.49C141.971 287.05 143.031 287.75 143.871 288.59L142.461 290.69C142.261 290.97 142.041 291.19 141.801 291.35C141.561 291.51 141.271 291.58 140.931 291.56C140.731 291.56 140.531 291.54 140.331 291.5C140.131 291.44 139.921 291.33 139.701 291.17C139.081 290.79 138.511 290.52 137.991 290.36C137.471 290.18 136.861 290.09 136.161 290.09C134.801 290.09 133.751 290.58 133.011 291.56C132.291 292.54 131.931 293.85 131.931 295.49C131.931 297.25 132.341 298.61 133.161 299.57C133.981 300.53 135.101 301.01 136.521 301.01C136.861 301.01 137.171 300.98 137.451 300.92C137.751 300.86 138.031 300.79 138.291 300.71V298.67H137.301C136.761 298.67 136.351 298.55 136.071 298.31C135.791 298.05 135.651 297.75 135.651 297.41V294.65ZM149.89 291.2C150.43 291.2 150.83 291.27 151.09 291.41C151.35 291.55 151.53 291.74 151.63 291.98C152.01 291.66 152.42 291.41 152.86 291.23C153.3 291.05 153.81 290.96 154.39 290.96C155.19 290.96 155.92 291.19 156.58 291.65L156.34 294.68C156.3 295.06 156.16 295.31 155.92 295.43C155.7 295.53 155.37 295.58 154.93 295.58C154.65 295.58 154.42 295.57 154.24 295.55C154.06 295.51 153.87 295.49 153.67 295.49C153.35 295.49 153.08 295.6 152.86 295.82C152.66 296.04 152.46 296.35 152.26 296.75V305H146.86V291.2H149.89ZM163.013 291.74V305H157.613V291.74H163.013ZM163.343 287.96C163.343 288.32 163.263 288.67 163.103 289.01C162.943 289.33 162.723 289.61 162.443 289.85C162.183 290.09 161.863 290.29 161.483 290.45C161.103 290.59 160.703 290.66 160.283 290.66C159.863 290.66 159.473 290.59 159.113 290.45C158.753 290.29 158.433 290.09 158.153 289.85C157.893 289.61 157.683 289.33 157.523 289.01C157.383 288.67 157.313 288.32 157.313 287.96C157.313 287.58 157.383 287.23 157.523 286.91C157.683 286.57 157.893 286.28 158.153 286.04C158.433 285.78 158.753 285.58 159.113 285.44C159.473 285.3 159.863 285.23 160.283 285.23C160.703 285.23 161.103 285.3 161.483 285.44C161.863 285.58 162.183 285.78 162.443 286.04C162.723 286.28 162.943 286.57 163.103 286.91C163.263 287.23 163.343 287.58 163.343 287.96ZM173.089 295.25C172.849 295.03 172.639 294.89 172.459 294.83C172.279 294.77 172.069 294.74 171.829 294.74C171.369 294.74 170.969 294.99 170.629 295.49C170.309 295.99 170.149 296.87 170.149 298.13C170.149 299.33 170.259 300.16 170.479 300.62C170.719 301.08 171.029 301.31 171.409 301.31C171.709 301.31 171.999 301.23 172.279 301.07C172.579 300.89 172.849 300.69 173.089 300.47V295.25ZM178.549 285.53V305H175.339C174.419 305 173.859 304.71 173.659 304.13C173.199 304.45 172.679 304.71 172.099 304.91C171.519 305.11 170.849 305.21 170.089 305.21C169.309 305.21 168.579 305.05 167.899 304.73C167.239 304.41 166.669 303.95 166.189 303.35C165.709 302.73 165.329 301.99 165.049 301.13C164.769 300.25 164.629 299.25 164.629 298.13C164.629 297.11 164.779 296.16 165.079 295.28C165.379 294.4 165.809 293.64 166.369 293C166.929 292.36 167.589 291.86 168.349 291.5C169.129 291.14 169.989 290.96 170.929 290.96C171.369 290.96 171.759 291 172.099 291.08C172.459 291.14 172.789 291.23 173.089 291.35C173.109 290.43 173.119 289.43 173.119 288.35C173.139 287.27 173.149 286.33 173.149 285.53H178.549Z" fill="#10B981"/>
<defs>
<linearGradient id="paint0_linear" x1="0" y1="400" x2="400" y2="0" gradientUnits="userSpaceOnUse">
<stop offset="0.107603" stop-color="#A7F3D0"/>
<stop offset="0.893841" stop-color="#ECFDF5"/>
</linearGradient>
</defs>
</svg>
