<svg width="400" height="400" fill="none" xmlns="http://www.w3.org/2000/svg"><path fill="url(#a)" d="M0 0h400v400H0z"/><path d="M69.683 291.604a.59.59 0 0 0-.18-.432.55.55 0 0 0-.396-.18h-6.948v-7.308c0-1.08.168-2.064.504-2.952.336-.912.804-1.692 1.404-2.34a6.486 6.486 0 0 1 2.268-1.512c.888-.36 1.872-.54 2.952-.54h5.724l.396 6.732h-6.12a.59.59 0 0 0-.432.18.67.67 0 0 0-.144.432v.576h1.188c1.176 0 2.16.156 2.952.468.816.312 1.464.744 1.944 1.296.504.528.864 1.176 1.08 1.944.216.744.324 1.56.324 2.448a9.06 9.06 0 0 1-.756 3.672 9.01 9.01 0 0 1-2.052 3.024c-.888.864-1.956 1.548-3.204 2.052-1.224.504-2.58.756-4.068.756h-2.592c-1.488 0-2.82-.228-3.996-.684a8.104 8.104 0 0 1-2.952-1.98c-.816-.84-1.44-1.872-1.872-3.096-.432-1.224-.648-2.604-.648-4.14v-7.524h6.516v7.704c0 .912.264 1.608.792 2.088s1.38.72 2.556.72h2.592c1.2 0 2.028-.132 2.484-.396.456-.264.684-.6.684-1.008Zm5.54 1.8c1.296 0 2.208-.264 2.736-.792.552-.528.828-1.188.828-1.98v-11.52h6.552v5.436c0 .336.192.504.576.504h1.368c.144 0 .264.036.36.108.12.048.204.18.252.396.072.216.12.552.144 1.008.024.456.036 1.08.036 1.872 0 .84-.012 1.5-.036 1.98-.024.48-.072.84-.144 1.08-.048.24-.132.384-.252.432a.801.801 0 0 1-.36.072h-.576c-.576 0-1.08-.036-1.512-.108a9.978 9.978 0 0 1-.972 3.276 9.083 9.083 0 0 1-1.944 2.664 8.541 8.541 0 0 1-2.808 1.8c-1.056.456-2.22.684-3.492.684h-1.764l-.576-6.912h1.584Zm15.23-8.352a.67.67 0 0 0 .433-.144.59.59 0 0 0 .18-.432v-5.364h6.336v5.364c0 .168.06.312.18.432a.67.67 0 0 0 .828 0 .59.59 0 0 0 .18-.432v-5.364h6.336v5.364c0 .168.06.312.18.432a.67.67 0 0 0 .828 0 .59.59 0 0 0 .18-.432v-5.364h6.336v5.364c0 .168.06.312.18.432a.62.62 0 0 0 .396.144h1.404c.144 0 .264.036.36.108.12.048.204.18.252.396.072.216.12.552.144 1.008.024.456.036 1.08.036 1.872 0 .84-.012 1.5-.036 1.98-.024.48-.072.84-.144 1.08-.048.24-.132.384-.252.432a.801.801 0 0 1-.36.072h-1.152c-.816 0-1.536-.072-2.16-.216-.6-.144-1.152-.468-1.656-.972-.6.504-1.236.828-1.908.972a9.267 9.267 0 0 1-2.016.216c-.504 0-1.104-.072-1.8-.216a3.301 3.301 0 0 1-1.764-.972c-.624.504-1.212.828-1.764.972-.528.144-.936.216-1.224.216h-.972c-.504 0-1.104-.072-1.8-.216a3.495 3.495 0 0 1-1.8-.972c-.576.504-1.14.828-1.692.972-.552.144-.972.216-1.26.216h-2.376a.801.801 0 0 1-.36-.072c-.12-.048-.204-.18-.252-.396-.072-.24-.12-.588-.144-1.044a37.682 37.682 0 0 1-.036-1.872c0-.84.012-1.5.036-1.98.024-.48.072-.828.144-1.044.048-.24.132-.384.252-.432a.583.583 0 0 1 .36-.108h1.368Zm25.349 0a.67.67 0 0 0 .432-.144.59.59 0 0 0 .18-.432v-5.364h6.552v5.364c0 .384.192.576.576.576h1.368c.144 0 .264.036.36.108.12.048.204.18.252.396.072.216.12.552.144 1.008.024.456.036 1.08.036 1.872 0 .84-.012 1.5-.036 1.98-.024.48-.072.84-.144 1.08-.048.24-.132.384-.252.432a.801.801 0 0 1-.36.072h-1.116c-.816 0-1.572-.072-2.268-.216a3.485 3.485 0 0 1-1.764-.972c-.576.504-1.164.828-1.764.972a6.573 6.573 0 0 1-1.584.216h-1.98a.801.801 0 0 1-.36-.072c-.12-.048-.204-.18-.252-.396-.072-.24-.12-.588-.144-1.044a37.682 37.682 0 0 1-.036-1.872c0-.84.012-1.5.036-1.98.024-.48.072-.828.144-1.044.048-.24.132-.384.252-.432a.583.583 0 0 1 .36-.108h1.368Zm7.164-7.92h-6.552V272.2h6.552v4.932Zm3.312 7.92a.67.67 0 0 0 .432-.144.59.59 0 0 0 .18-.432V270.04h6.552v14.436c0 .384.192.576.576.576h1.368c.144 0 .264.036.36.108.12.048.204.18.252.396.072.216.12.552.144 1.008.024.456.036 1.08.036 1.872 0 .84-.012 1.5-.036 1.98-.024.48-.072.84-.144 1.08-.048.24-.132.384-.252.432a.801.801 0 0 1-.36.072h-1.116c-.816 0-1.572-.072-2.268-.216a3.485 3.485 0 0 1-1.764-.972c-.576.504-1.164.828-1.764.972a6.573 6.573 0 0 1-1.584.216h-1.98a.801.801 0 0 1-.36-.072c-.12-.048-.204-.18-.252-.396-.072-.24-.12-.588-.144-1.044a37.682 37.682 0 0 1-.036-1.872c0-.84.012-1.5.036-1.98.024-.48.072-.828.144-1.044.048-.24.132-.384.252-.432a.583.583 0 0 1 .36-.108h1.368Zm19.189 0a.67.67 0 0 0 .432-.144.59.59 0 0 0 .18-.432v-5.364h6.552v5.94c0 1.152-.168 2.16-.504 3.024-.312.864-.768 1.584-1.368 2.16a5.879 5.879 0 0 1-2.088 1.332c-.792.288-1.656.432-2.592.432h-10.692a.801.801 0 0 1-.36-.072c-.12-.048-.204-.18-.252-.396-.072-.24-.12-.588-.144-1.044a37.682 37.682 0 0 1-.036-1.872c0-.84.012-1.5.036-1.98.024-.48.072-.828.144-1.044.048-.24.132-.384.252-.432a.583.583 0 0 1 .36-.108h10.08Zm2.196 13.86h-10.296v-4.968h10.296v4.968Zm3.955-5.508c1.296 0 2.208-.264 2.736-.792.552-.528.828-1.188.828-1.98v-11.52h6.552v5.436c0 .336.192.504.576.504h1.368c.144 0 .264.036.36.108.12.048.204.18.252.396.072.216.12.552.144 1.008.024.456.036 1.08.036 1.872 0 .84-.012 1.5-.036 1.98-.024.48-.072.84-.144 1.08-.048.24-.132.384-.252.432a.801.801 0 0 1-.36.072h-.576c-.576 0-1.08-.036-1.512-.108a9.978 9.978 0 0 1-.972 3.276 9.083 9.083 0 0 1-1.944 2.664 8.541 8.541 0 0 1-2.808 1.8c-1.056.456-2.22.684-3.492.684h-1.764l-.576-6.912h1.584Zm14.445-8.352a8.127 8.127 0 0 1-.323-1.188 9.279 9.279 0 0 1-.072-1.152c0-.792.144-1.596.432-2.412a6.67 6.67 0 0 1 1.368-2.232c.6-.672 1.356-1.224 2.268-1.656.936-.432 2.016-.648 3.24-.648 1.032 0 1.992.144 2.88.432a5.593 5.593 0 0 1 2.268 1.368c.624.624 1.116 1.44 1.476 2.448.36 1.008.54 2.232.54 3.672v1.368c0 1.008-.168 1.932-.504 2.772a5.644 5.644 0 0 1-1.476 2.196c-.672.624-1.524 1.116-2.556 1.476-1.008.336-2.208.504-3.6.504h-8.316a.803.803 0 0 1-.361-.072c-.12-.048-.204-.18-.252-.396-.072-.24-.12-.588-.144-1.044a37.682 37.682 0 0 1-.036-1.872c0-.84.012-1.5.036-1.98.024-.48.072-.828.144-1.044.048-.24.132-.384.252-.432a.584.584 0 0 1 .361-.108h2.375Zm7.705.216c.12-.192.18-.432.18-.72a10.4 10.4 0 0 0 .036-.864c0-.408-.084-.768-.252-1.08-.144-.336-.456-.504-.936-.504a.977.977 0 0 0-.72.288c-.168.168-.252.396-.252.684 0 .288.096.624.288 1.008.216.384.768.78 1.656 1.188Zm2.412-11.484h-6.552v-4.932h6.552v4.932Zm17.054 10.764c0 .336.192.504.576.504h1.368c.144 0 .264.036.36.108.12.048.204.18.252.396.072.216.12.552.144 1.008.024.456.036 1.08.036 1.872 0 .84-.012 1.5-.036 1.98-.024.48-.072.84-.144 1.08-.048.24-.132.384-.252.432a.801.801 0 0 1-.36.072h-.576c-.576 0-1.08-.036-1.512-.108a9.978 9.978 0 0 1-.972 3.276 9.083 9.083 0 0 1-1.944 2.664 8.541 8.541 0 0 1-2.808 1.8c-1.056.456-2.208.684-3.456.684h-3.96l-.612-6.912h3.78c1.296 0 2.208-.264 2.736-.792.552-.528.828-1.188.828-1.98v-11.52h6.552v5.436Zm6.204.504a.67.67 0 0 0 .432-.144.59.59 0 0 0 .18-.432v-5.364h6.552v5.364c0 .384.192.576.576.576h1.368c.144 0 .264.036.36.108.12.048.204.18.252.396.072.216.12.552.144 1.008.024.456.036 1.08.036 1.872 0 .84-.012 1.5-.036 1.98-.024.48-.072.84-.144 1.08-.048.24-.132.384-.252.432a.801.801 0 0 1-.36.072h-1.116c-.816 0-1.572-.072-2.268-.216a3.485 3.485 0 0 1-1.764-.972c-.576.504-1.164.828-1.764.972a6.573 6.573 0 0 1-1.584.216h-1.98a.801.801 0 0 1-.36-.072c-.12-.048-.204-.18-.252-.396-.072-.24-.12-.588-.144-1.044a37.682 37.682 0 0 1-.036-1.872c0-.84.012-1.5.036-1.98.024-.48.072-.828.144-1.044.048-.24.132-.384.252-.432a.583.583 0 0 1 .36-.108h1.368Zm8.928 13.86H198.07v-4.968h10.296v4.968Zm1.549-13.86a.67.67 0 0 0 .432-.144.59.59 0 0 0 .18-.432v-5.364h6.336v5.364c0 .168.06.312.18.432a.67.67 0 0 0 .828 0 .59.59 0 0 0 .18-.432v-5.364h6.336v5.364c0 .168.06.312.18.432a.67.67 0 0 0 .828 0 .59.59 0 0 0 .18-.432v-5.364h6.336v5.364c0 .168.06.312.18.432a.62.62 0 0 0 .396.144h1.404c.144 0 .264.036.36.108.12.048.204.18.252.396.072.216.12.552.144 1.008.024.456.036 1.08.036 1.872 0 .84-.012 1.5-.036 1.98-.024.48-.072.84-.144 1.08-.048.24-.132.384-.252.432a.801.801 0 0 1-.36.072h-1.152c-.816 0-1.536-.072-2.16-.216-.6-.144-1.152-.468-1.656-.972-.6.504-1.236.828-1.908.972a9.267 9.267 0 0 1-2.016.216c-.504 0-1.104-.072-1.8-.216a3.301 3.301 0 0 1-1.764-.972c-.624.504-1.212.828-1.764.972-.528.144-.936.216-1.224.216h-.972c-.504 0-1.104-.072-1.8-.216a3.495 3.495 0 0 1-1.8-.972c-.576.504-1.14.828-1.692.972-.552.144-.972.216-1.26.216h-2.376a.801.801 0 0 1-.36-.072c-.12-.048-.204-.18-.252-.396-.072-.24-.12-.588-.144-1.044a37.682 37.682 0 0 1-.036-1.872c0-.84.012-1.5.036-1.98.024-.48.072-.828.144-1.044.048-.24.132-.384.252-.432a.583.583 0 0 1 .36-.108h1.368Zm25.348 0a.67.67 0 0 0 .432-.144.59.59 0 0 0 .18-.432c0-2.4.636-4.284 1.908-5.652 1.296-1.392 3.06-2.088 5.292-2.088 2.352 0 4.116.684 5.292 2.052 1.176 1.368 1.764 3.192 1.764 5.472 0 2.4-.648 4.296-1.944 5.688-1.296 1.368-3.084 2.052-5.364 2.052-.696 0-1.38-.096-2.052-.288a4.564 4.564 0 0 1-1.728-.9c-.288.264-.6.468-.936.612a5.692 5.692 0 0 1-1.08.36 6.88 6.88 0 0 1-1.332.18c-.504.024-1.104.036-1.8.036a.801.801 0 0 1-.36-.072c-.12-.048-.204-.18-.252-.396-.072-.24-.12-.588-.144-1.044a37.682 37.682 0 0 1-.036-1.872c0-.84.012-1.5.036-1.98.024-.48.072-.828.144-1.044.048-.24.132-.384.252-.432a.583.583 0 0 1 .36-.108h1.368Zm6.552-.792c0 .504.108.828.324.972.216.144.48.216.792.216.264 0 .504-.072.72-.216.216-.144.324-.468.324-.972 0-.792-.348-1.188-1.044-1.188-.744 0-1.116.396-1.116 1.188Zm21.415 6.156c0 1.344-.228 2.616-.684 3.816a9.63 9.63 0 0 1-1.908 3.132 8.869 8.869 0 0 1-2.952 2.16c-1.128.528-2.388.792-3.78.792h-3.96l-.612-6.912h3.78c1.296 0 2.208-.264 2.736-.792.552-.528.828-1.188.828-1.98v-11.52h6.552v11.304Zm8.028-12.672 4.932-4.752 6.336 7.74c.912 1.08 1.5 2.052 1.764 2.916.288.864.432 1.668.432 2.412 0 .816-.144 1.584-.432 2.304a5.204 5.204 0 0 1-1.224 1.908c-.552.528-1.26.948-2.124 1.26-.84.312-1.836.468-2.988.468h-9.504l-.576-6.948h8.316c.384 0 .576-.156.576-.468 0-.216-.132-.492-.396-.828l-5.112-6.012Zm19.402 7.308c0-1.176.24-2.28.72-3.312.48-1.056 1.224-2.196 2.232-3.42l-1.512-1.584 4.608-4.536c1.848 1.68 3.336 3.144 4.464 4.392 1.128 1.224 1.992 2.328 2.592 3.312.624.96 1.032 1.848 1.224 2.664.216.816.324 1.644.324 2.484 0 1.008-.192 1.932-.576 2.772a6.857 6.857 0 0 1-1.584 2.196c-.648.624-1.44 1.116-2.376 1.476-.912.336-1.908.504-2.988.504s-2.064-.168-2.952-.504c-.888-.336-1.644-.804-2.268-1.404-.6-.6-1.068-1.32-1.404-2.16-.336-.864-.504-1.824-.504-2.88Zm8.496-.648c0-.672-.396-1.368-1.188-2.088-.792.768-1.188 1.464-1.188 2.088 0 .696.396 1.044 1.188 1.044.792 0 1.188-.348 1.188-1.044Zm15.261 6.012c0 1.344-.228 2.616-.684 3.816a9.63 9.63 0 0 1-1.908 3.132 8.869 8.869 0 0 1-2.952 2.16c-1.128.528-2.388.792-3.78.792h-3.96l-.612-6.912h3.78c1.296 0 2.208-.264 2.736-.792.552-.528.828-1.188.828-1.98v-11.52h6.552v11.304Zm17.026.792c0 1.584-.228 2.976-.684 4.176-.432 1.224-1.056 2.244-1.872 3.06a7.833 7.833 0 0 1-2.916 1.836c-1.104.432-2.316.648-3.636.648h-5.364l-.396-6.948h6.156c.792 0 1.344-.156 1.656-.468.336-.312.504-.816.504-1.512h-.576c-1.488 0-2.712-.168-3.672-.504-.96-.336-1.716-.804-2.268-1.404-.528-.624-.9-1.38-1.116-2.268-.192-.888-.288-1.872-.288-2.952 0-1.032.156-2.016.468-2.952a7.18 7.18 0 0 1 1.368-2.448 6.619 6.619 0 0 1 2.268-1.692c.888-.432 1.896-.648 3.024-.648.984 0 1.92.144 2.808.432a5.991 5.991 0 0 1 2.34 1.404c.672.624 1.2 1.44 1.584 2.448.408.984.612 2.196.612 3.636v6.156Zm-8.316-6.768c0 .384.072.684.216.9.144.216.468.324.972.324h.972v-1.008c0-.912-.372-1.368-1.116-1.368-.696 0-1.044.384-1.044 1.152Zm13.451-6.696 4.932-4.752 6.336 7.74c.912 1.08 1.5 2.052 1.764 2.916.288.864.432 1.668.432 2.412 0 .816-.144 1.584-.432 2.304a5.204 5.204 0 0 1-1.224 1.908c-.552.528-1.26.948-2.124 1.26-.84.312-1.836.468-2.988.468h-9.504l-.576-6.948h8.316c.384 0 .576-.156.576-.468 0-.216-.132-.492-.396-.828l-5.112-6.012Z" fill="#16A34A"/><path fill-rule="evenodd" clip-rule="evenodd" d="M204.882 102.16c18.808 1.545 30.131 19.254 44.198 31.844 15.54 13.907 39.162 23.438 40.813 44.236 1.689 21.277-16.879 38.116-33.184 51.872-14.702 12.405-32.602 19.422-51.827 19.854-19.73.443-40.435-3.326-54.209-17.471-13.645-14.013-16.022-34.692-15.635-54.255.378-19.084 4.84-38.088 17.744-52.144 13.44-14.64 32.301-25.561 52.1-23.936Z" fill="#BBF7D0"/><path d="M183.125 222.25h38.75" stroke="#0FA958" stroke-width="3.5" stroke-linecap="round" stroke-linejoin="round"/><path d="M163.75 202.875V152.5a7.752 7.752 0 0 1 7.75-7.75h62a7.752 7.752 0 0 1 7.75 7.75v50.375a7.752 7.752 0 0 1-7.75 7.75h-62a7.752 7.752 0 0 1-7.75-7.75Z" stroke="#0FA958" stroke-width="2.5"/><path d="m190.875 177.688 7.75 7.75 15.5-15.5" stroke="#0FA958" stroke-width="5.5" stroke-linecap="round" stroke-linejoin="round"/><defs><linearGradient id="a" x1="0" y1="400" x2="400" y2="0" gradientUnits="userSpaceOnUse"><stop offset=".09" stop-color="#BBF7D0"/><stop offset=".858" stop-color="#F0FDF4"/></linearGradient></defs></svg>