<svg width="400" height="400" viewBox="0 0 400 400" fill="none" xmlns="http://www.w3.org/2000/svg">
<rect width="400" height="400" fill="url(#paint0_linear)"/>
<path d="M228.34 282.27L230.65 277.95H237.4C238.98 277.95 240.17 278.32 240.97 279.06C241.79 279.78 242.2 280.68 242.2 281.76C242.2 282.52 242.08 283.14 241.84 283.62C241.62 284.1 241.3 284.63 240.88 285.21H243.85C243.97 285.21 244.07 285.24 244.15 285.3C244.23 285.34 244.3 285.45 244.36 285.63C244.42 285.81 244.46 286.09 244.48 286.47C244.5 286.85 244.51 287.37 244.51 288.03C244.51 288.73 244.5 289.28 244.48 289.68C244.46 290.08 244.42 290.38 244.36 290.58C244.3 290.78 244.23 290.9 244.15 290.94C244.07 290.98 243.97 291 243.85 291H240.55C239.55 291 238.61 290.96 237.73 290.88C236.85 290.8 236.08 290.51 235.42 290.01C234.78 290.43 234.26 290.88 233.86 291.36C233.48 291.86 233.29 292.4 233.29 292.98C233.29 293.56 233.51 294.03 233.95 294.39C234.39 294.77 235.1 294.96 236.08 294.96H241.87L241.45 300.75H235.93C234.41 300.75 233.13 300.55 232.09 300.15C231.07 299.77 230.24 299.24 229.6 298.56C228.98 297.88 228.53 297.08 228.25 296.16C227.99 295.24 227.86 294.24 227.86 293.16C227.86 291.9 228.12 290.73 228.64 289.65C229.16 288.55 229.99 287.46 231.13 286.38L228.34 282.27ZM237.25 283.71C237.25 283.41 237.03 283.26 236.59 283.26H234.13L235.75 285.21C236.25 284.81 236.62 284.51 236.86 284.31C237.12 284.09 237.25 283.89 237.25 283.71ZM244.976 285.21C245.116 285.21 245.236 285.17 245.336 285.09C245.436 284.99 245.486 284.87 245.486 284.73C245.486 282.73 246.016 281.16 247.076 280.02C248.156 278.86 249.626 278.28 251.486 278.28C253.446 278.28 254.916 278.85 255.896 279.99C256.876 281.13 257.366 282.65 257.366 284.55C257.366 286.55 256.826 288.13 255.746 289.29C254.666 290.43 253.176 291 251.276 291C250.696 291 250.126 290.92 249.566 290.76C249.006 290.6 248.526 290.35 248.126 290.01C247.886 290.23 247.626 290.4 247.346 290.52C247.086 290.64 246.786 290.74 246.446 290.82C246.126 290.9 245.756 290.95 245.336 290.97C244.916 290.99 244.416 291 243.836 291C243.716 291 243.616 290.98 243.536 290.94C243.436 290.9 243.366 290.79 243.326 290.61C243.266 290.41 243.226 290.12 243.206 289.74C243.186 289.36 243.176 288.84 243.176 288.18C243.176 287.48 243.186 286.93 243.206 286.53C243.226 286.13 243.266 285.84 243.326 285.66C243.366 285.46 243.436 285.34 243.536 285.3C243.616 285.24 243.716 285.21 243.836 285.21H244.976ZM250.436 284.55C250.436 284.97 250.526 285.24 250.706 285.36C250.886 285.48 251.106 285.54 251.366 285.54C251.586 285.54 251.786 285.48 251.966 285.36C252.146 285.24 252.236 284.97 252.236 284.55C252.236 283.89 251.946 283.56 251.366 283.56C250.746 283.56 250.436 283.89 250.436 284.55ZM266.261 285.21C266.381 285.21 266.481 285.24 266.561 285.3C266.661 285.34 266.731 285.45 266.771 285.63C266.831 285.81 266.871 286.09 266.891 286.47C266.911 286.85 266.921 287.37 266.921 288.03C266.921 288.73 266.911 289.28 266.891 289.68C266.871 290.08 266.831 290.38 266.771 290.58C266.731 290.78 266.661 290.9 266.561 290.94C266.481 290.98 266.381 291 266.261 291H264.791C263.751 291 262.871 290.85 262.151 290.55C261.451 290.23 260.881 289.81 260.441 289.29C260.001 288.77 259.681 288.16 259.481 287.46C259.281 286.74 259.181 285.99 259.181 285.21V272.7H264.641V284.73C264.641 285.05 264.801 285.21 265.121 285.21H266.261ZM268.558 285.21C269.058 285.21 269.548 285.21 270.028 285.21C270.528 285.19 271.038 285.14 271.558 285.06C272.098 284.96 272.668 284.83 273.268 284.67C273.888 284.49 274.568 284.23 275.308 283.89C275.228 283.65 275.108 283.49 274.948 283.41C274.788 283.31 274.578 283.26 274.318 283.26H267.898L268.378 277.8H275.818C276.398 277.8 276.958 277.88 277.498 278.04C278.058 278.2 278.598 278.55 279.118 279.09C279.638 279.61 280.128 280.38 280.588 281.4C281.068 282.42 281.508 283.8 281.908 285.54L275.818 289.02C275.158 289.4 274.548 289.72 273.988 289.98C273.428 290.22 272.858 290.42 272.278 290.58C271.718 290.72 271.118 290.83 270.478 290.91C269.858 290.97 269.158 291 268.378 291H266.248C266.128 291 266.028 290.98 265.948 290.94C265.848 290.9 265.778 290.79 265.738 290.61C265.678 290.41 265.638 290.12 265.618 289.74C265.598 289.36 265.588 288.84 265.588 288.18C265.588 287.48 265.598 286.93 265.618 286.53C265.638 286.13 265.678 285.84 265.738 285.66C265.778 285.46 265.848 285.34 265.948 285.3C266.028 285.24 266.128 285.21 266.248 285.21H268.558ZM276.178 296.76H270.718V292.62H276.178V296.76ZM286.717 285.21C286.717 284.23 286.917 283.31 287.317 282.45C287.717 281.57 288.337 280.62 289.177 279.6L287.917 278.28L291.757 274.5C293.297 275.9 294.537 277.12 295.477 278.16C296.417 279.18 297.137 280.1 297.637 280.92C298.157 281.72 298.497 282.46 298.657 283.14C298.837 283.82 298.927 284.51 298.927 285.21C298.927 286.05 298.767 286.82 298.447 287.52C298.127 288.22 297.687 288.83 297.127 289.35C296.587 289.87 295.927 290.28 295.147 290.58C294.387 290.86 293.557 291 292.657 291C291.757 291 290.937 290.86 290.197 290.58C289.457 290.3 288.827 289.91 288.307 289.41C287.807 288.91 287.417 288.31 287.137 287.61C286.857 286.89 286.717 286.09 286.717 285.21ZM293.797 284.67C293.797 284.11 293.467 283.53 292.807 282.93C292.147 283.57 291.817 284.15 291.817 284.67C291.817 285.25 292.147 285.54 292.807 285.54C293.467 285.54 293.797 285.25 293.797 284.67ZM306.514 289.68C306.514 290.8 306.324 291.86 305.944 292.86C305.564 293.86 305.034 294.73 304.354 295.47C303.674 296.23 302.854 296.83 301.894 297.27C300.954 297.71 299.904 297.93 298.744 297.93H295.444L294.934 292.17H298.084C299.164 292.17 299.924 291.95 300.364 291.51C300.824 291.07 301.054 290.52 301.054 289.86V280.26H306.514V289.68ZM320.702 290.34C320.702 291.66 320.512 292.82 320.132 293.82C319.772 294.84 319.252 295.69 318.572 296.37C317.892 297.05 317.082 297.56 316.142 297.9C315.222 298.26 314.212 298.44 313.112 298.44H308.642L308.312 292.65H313.442C314.102 292.65 314.562 292.52 314.822 292.26C315.102 292 315.242 291.58 315.242 291H314.762C313.522 291 312.502 290.86 311.702 290.58C310.902 290.3 310.272 289.91 309.812 289.41C309.372 288.89 309.062 288.26 308.882 287.52C308.722 286.78 308.642 285.96 308.642 285.06C308.642 284.2 308.772 283.38 309.032 282.6C309.292 281.82 309.672 281.14 310.172 280.56C310.692 279.96 311.322 279.49 312.062 279.15C312.802 278.79 313.642 278.61 314.582 278.61C315.402 278.61 316.182 278.73 316.922 278.97C317.662 279.21 318.312 279.6 318.872 280.14C319.432 280.66 319.872 281.34 320.192 282.18C320.532 283 320.702 284.01 320.702 285.21V290.34ZM313.772 284.7C313.772 285.02 313.832 285.27 313.952 285.45C314.072 285.63 314.342 285.72 314.762 285.72H315.572V284.88C315.572 284.12 315.262 283.74 314.642 283.74C314.062 283.74 313.772 284.06 313.772 284.7ZM324.982 279.12L329.092 275.16L334.372 281.61C335.132 282.51 335.622 283.32 335.842 284.04C336.082 284.76 336.202 285.43 336.202 286.05C336.202 286.73 336.082 287.37 335.842 287.97C335.622 288.57 335.282 289.1 334.822 289.56C334.362 290 333.772 290.35 333.052 290.61C332.352 290.87 331.522 291 330.562 291H322.642L322.162 285.21H329.092C329.412 285.21 329.572 285.08 329.572 284.82C329.572 284.64 329.462 284.41 329.242 284.13L324.982 279.12Z" fill="#6366F1"/>
<path fill-rule="evenodd" clip-rule="evenodd" d="M204.882 102.16C223.69 103.705 235.013 121.414 249.08 134.004C264.62 147.911 288.242 157.442 289.893 178.24C291.582 199.517 273.014 216.356 256.709 230.112C242.007 242.517 224.107 249.534 204.882 249.966C185.152 250.409 164.447 246.64 150.673 232.495C137.028 218.482 134.651 197.803 135.038 178.24C135.416 159.156 139.878 140.152 152.782 126.096C166.222 111.456 185.083 100.535 204.882 102.16Z" fill="#C7D2FE"/>
<path d="M78.3557 282.65H86.3957V290.93C85.3157 291.75 84.1857 292.34 83.0057 292.7C81.8457 293.04 80.6357 293.21 79.3757 293.21C77.7557 293.21 76.2857 292.97 74.9657 292.49C73.6657 291.99 72.5457 291.31 71.6057 290.45C70.6857 289.57 69.9757 288.54 69.4757 287.36C68.9757 286.18 68.7257 284.89 68.7257 283.49C68.7257 282.05 68.9557 280.73 69.4157 279.53C69.8957 278.31 70.5757 277.27 71.4557 276.41C72.3357 275.53 73.4057 274.85 74.6657 274.37C75.9257 273.89 77.3457 273.65 78.9257 273.65C80.6257 273.65 82.1157 273.93 83.3957 274.49C84.6757 275.05 85.7357 275.75 86.5757 276.59L85.1657 278.69C84.9657 278.97 84.7457 279.19 84.5057 279.35C84.2657 279.51 83.9757 279.58 83.6357 279.56C83.4357 279.56 83.2357 279.54 83.0357 279.5C82.8357 279.44 82.6257 279.33 82.4057 279.17C81.7857 278.79 81.2157 278.52 80.6957 278.36C80.1757 278.18 79.5657 278.09 78.8657 278.09C77.5057 278.09 76.4557 278.58 75.7157 279.56C74.9957 280.54 74.6357 281.85 74.6357 283.49C74.6357 285.25 75.0457 286.61 75.8657 287.57C76.6857 288.53 77.8057 289.01 79.2257 289.01C79.5657 289.01 79.8757 288.98 80.1557 288.92C80.4557 288.86 80.7357 288.79 80.9957 288.71V286.67H80.0057C79.4657 286.67 79.0557 286.55 78.7757 286.31C78.4957 286.05 78.3557 285.75 78.3557 285.41V282.65ZM94.9949 279.74V293H89.5949V279.74H94.9949ZM95.3249 275.96C95.3249 276.32 95.2449 276.67 95.0849 277.01C94.9249 277.33 94.7049 277.61 94.4249 277.85C94.1649 278.09 93.8449 278.29 93.4649 278.45C93.0849 278.59 92.6849 278.66 92.2649 278.66C91.8449 278.66 91.4549 278.59 91.0949 278.45C90.7349 278.29 90.4149 278.09 90.1349 277.85C89.8749 277.61 89.6649 277.33 89.5049 277.01C89.3649 276.67 89.2949 276.32 89.2949 275.96C89.2949 275.58 89.3649 275.23 89.5049 274.91C89.6649 274.57 89.8749 274.28 90.1349 274.04C90.4149 273.78 90.7349 273.58 91.0949 273.44C91.4549 273.3 91.8449 273.23 92.2649 273.23C92.6849 273.23 93.0849 273.3 93.4649 273.44C93.8449 273.58 94.1649 273.78 94.4249 274.04C94.7049 274.28 94.9249 274.57 95.0849 274.91C95.2449 275.23 95.3249 275.58 95.3249 275.96ZM102.551 293.21C101.091 293.21 99.9714 292.83 99.1914 292.07C98.4114 291.31 98.0214 290.28 98.0214 288.98V282.83C97.4414 282.83 96.9914 282.72 96.6714 282.5C96.3514 282.26 96.1914 281.94 96.1914 281.54V279.71L98.3214 279.29C98.4614 278.83 98.5914 278.36 98.7114 277.88C98.8514 277.38 98.9714 276.89 99.0714 276.41C99.2514 275.77 99.7714 275.45 100.631 275.45H103.421V279.2H106.571V282.83H103.421V288.71C103.421 288.87 103.431 289.01 103.451 289.13C103.471 289.23 103.491 289.28 103.511 289.28C103.631 289.28 103.741 289.23 103.841 289.13C103.961 289.03 104.181 288.98 104.501 288.98C104.821 288.98 105.061 289.03 105.221 289.13C105.401 289.21 105.551 289.35 105.671 289.55L107.021 291.68C105.701 292.7 104.211 293.21 102.551 293.21ZM124.473 283.61V289.04H111.123V283.61H124.473ZM138.883 282.65H146.923V290.93C145.843 291.75 144.713 292.34 143.533 292.7C142.373 293.04 141.163 293.21 139.903 293.21C138.283 293.21 136.813 292.97 135.493 292.49C134.193 291.99 133.073 291.31 132.133 290.45C131.213 289.57 130.503 288.54 130.003 287.36C129.503 286.18 129.253 284.89 129.253 283.49C129.253 282.05 129.483 280.73 129.943 279.53C130.423 278.31 131.103 277.27 131.983 276.41C132.863 275.53 133.933 274.85 135.193 274.37C136.453 273.89 137.873 273.65 139.453 273.65C141.153 273.65 142.643 273.93 143.923 274.49C145.203 275.05 146.263 275.75 147.103 276.59L145.693 278.69C145.493 278.97 145.273 279.19 145.033 279.35C144.793 279.51 144.503 279.58 144.163 279.56C143.963 279.56 143.763 279.54 143.563 279.5C143.363 279.44 143.153 279.33 142.933 279.17C142.313 278.79 141.743 278.52 141.223 278.36C140.703 278.18 140.093 278.09 139.393 278.09C138.033 278.09 136.983 278.58 136.243 279.56C135.523 280.54 135.163 281.85 135.163 283.49C135.163 285.25 135.573 286.61 136.393 287.57C137.213 288.53 138.333 289.01 139.753 289.01C140.093 289.01 140.403 288.98 140.683 288.92C140.983 288.86 141.263 288.79 141.523 288.71V286.67H140.533C139.993 286.67 139.583 286.55 139.303 286.31C139.023 286.05 138.883 285.75 138.883 285.41V282.65ZM155.522 279.74V293H150.122V279.74H155.522ZM155.852 275.96C155.852 276.32 155.772 276.67 155.612 277.01C155.452 277.33 155.232 277.61 154.952 277.85C154.692 278.09 154.372 278.29 153.992 278.45C153.612 278.59 153.212 278.66 152.792 278.66C152.372 278.66 151.982 278.59 151.622 278.45C151.262 278.29 150.942 278.09 150.662 277.85C150.402 277.61 150.192 277.33 150.032 277.01C149.892 276.67 149.822 276.32 149.822 275.96C149.822 275.58 149.892 275.23 150.032 274.91C150.192 274.57 150.402 274.28 150.662 274.04C150.942 273.78 151.262 273.58 151.622 273.44C151.982 273.3 152.372 273.23 152.792 273.23C153.212 273.23 153.612 273.3 153.992 273.44C154.372 273.58 154.692 273.78 154.952 274.04C155.232 274.28 155.452 274.57 155.612 274.91C155.772 275.23 155.852 275.58 155.852 275.96ZM163.079 293.21C161.619 293.21 160.499 292.83 159.719 292.07C158.939 291.31 158.549 290.28 158.549 288.98V282.83C157.969 282.83 157.519 282.72 157.199 282.5C156.879 282.26 156.719 281.94 156.719 281.54V279.71L158.849 279.29C158.989 278.83 159.119 278.36 159.239 277.88C159.379 277.38 159.499 276.89 159.599 276.41C159.779 275.77 160.299 275.45 161.159 275.45H163.949V279.2H167.099V282.83H163.949V288.71C163.949 288.87 163.959 289.01 163.979 289.13C163.999 289.23 164.019 289.28 164.039 289.28C164.159 289.28 164.269 289.23 164.369 289.13C164.489 289.03 164.709 288.98 165.029 288.98C165.349 288.98 165.589 289.03 165.749 289.13C165.929 289.21 166.079 289.35 166.199 289.55L167.549 291.68C166.229 292.7 164.739 293.21 163.079 293.21ZM186.52 273.89V293H180.7V285.35H174.88V293H169.06V273.89H174.88V281.51H180.7V273.89H186.52ZM202.724 279.2V293H199.544C199.184 293 198.864 292.94 198.584 292.82C198.304 292.7 198.094 292.52 197.954 292.28C197.554 292.56 197.084 292.79 196.544 292.97C196.004 293.13 195.374 293.21 194.654 293.21C193.814 293.21 193.074 293.08 192.434 292.82C191.814 292.54 191.284 292.17 190.844 291.71C190.424 291.23 190.104 290.66 189.884 290C189.664 289.34 189.554 288.62 189.554 287.84V279.2H194.894V287.84C194.894 288.84 195.214 289.34 195.854 289.34C196.314 289.34 196.804 289.14 197.324 288.74V279.2H202.724ZM210.689 288.86C210.909 289.08 211.119 289.23 211.319 289.31C211.519 289.39 211.709 289.43 211.889 289.43C212.389 289.43 212.799 289.18 213.119 288.68C213.459 288.16 213.629 287.25 213.629 285.95C213.629 284.81 213.499 284.01 213.239 283.55C212.999 283.07 212.639 282.83 212.159 282.83C211.879 282.83 211.629 282.89 211.409 283.01C211.189 283.13 210.949 283.34 210.689 283.64V288.86ZM210.689 279.71C211.069 279.49 211.509 279.32 212.009 279.2C212.509 279.08 213.019 279.02 213.539 279.02C214.399 279.02 215.169 279.18 215.849 279.5C216.549 279.82 217.139 280.27 217.619 280.85C218.119 281.43 218.499 282.14 218.759 282.98C219.019 283.82 219.149 284.75 219.149 285.77C219.149 286.89 218.999 287.91 218.699 288.83C218.399 289.73 217.969 290.51 217.409 291.17C216.869 291.81 216.209 292.31 215.429 292.67C214.669 293.03 213.829 293.21 212.909 293.21C212.249 293.21 211.689 293.14 211.229 293C210.769 292.84 210.369 292.64 210.029 292.4C209.889 292.62 209.689 292.78 209.429 292.88C209.189 292.96 208.919 293 208.619 293H205.289V273.53H210.689V279.71Z" fill="#6366F1"/>
<path d="M155.81 179.09L197.725 135.867C200.137 133.378 204.052 133.378 206.468 135.867L215.171 144.843L204.13 156.229C201.565 155.335 198.622 155.935 196.577 158.044C194.522 160.167 193.945 163.227 194.833 165.882L184.192 176.855C181.617 175.941 178.647 176.532 176.591 178.656C173.717 181.619 173.717 186.42 176.591 189.384C179.465 192.349 184.121 192.349 186.997 189.384C189.158 187.153 189.692 183.879 188.598 181.133L198.521 170.899L198.523 197.83C197.803 198.197 197.146 198.681 196.577 199.265C193.703 202.227 193.703 207.028 196.577 209.995C199.451 212.958 204.109 212.958 206.98 209.995C209.853 207.028 209.853 202.227 206.98 199.265C206.291 198.554 205.472 197.992 204.572 197.609V170.428C205.474 170.048 206.293 169.485 206.98 168.772C209.157 166.53 209.68 163.236 208.565 160.479L219.449 149.253L248.189 178.89C250.604 181.382 250.604 185.419 248.189 187.909L206.273 231.133C203.86 233.622 199.946 233.622 197.53 231.133L155.811 188.11C153.396 185.619 153.396 181.579 155.811 179.09" fill="#6366F1"/>
<defs>
<linearGradient id="paint0_linear" x1="0" y1="400" x2="400" y2="0" gradientUnits="userSpaceOnUse">
<stop offset="0.0901017" stop-color="#C7D2FE"/>
<stop offset="0.858017" stop-color="#EEF2FF"/>
</linearGradient>
</defs>
</svg>
