<svg width="400" height="400" viewBox="0 0 400 400" fill="none" xmlns="http://www.w3.org/2000/svg">
<rect width="400" height="400" fill="url(#paint0_linear)"/>
<path d="M208.011 283.74C209.291 281.82 210.591 280.41 211.911 279.51C213.231 278.59 214.571 278.13 215.931 278.13C216.751 278.13 217.501 278.29 218.181 278.61C218.881 278.91 219.471 279.34 219.951 279.9C220.451 280.46 220.841 281.13 221.121 281.91C221.401 282.67 221.541 283.5 221.541 284.4C221.541 284.52 221.541 284.64 221.541 284.76C221.541 284.88 221.531 285 221.511 285.12C221.611 285.16 221.781 285.19 222.021 285.21C222.261 285.21 222.431 285.21 222.531 285.21H223.191C223.311 285.21 223.411 285.24 223.491 285.3C223.571 285.34 223.641 285.45 223.701 285.63C223.761 285.81 223.801 286.09 223.821 286.47C223.841 286.85 223.851 287.37 223.851 288.03C223.851 288.73 223.841 289.28 223.821 289.68C223.801 290.08 223.761 290.38 223.701 290.58C223.641 290.78 223.571 290.9 223.491 290.94C223.411 290.98 223.311 291 223.191 291H222.531C221.951 291 221.341 290.94 220.701 290.82C220.081 290.7 219.461 290.41 218.841 289.95C218.341 290.29 217.771 290.55 217.131 290.73C216.491 290.91 215.761 291 214.941 291H209.151C208.651 291 208.171 290.95 207.711 290.85C207.551 291.81 207.261 292.7 206.841 293.52C206.421 294.34 205.871 295.05 205.191 295.65C204.511 296.25 203.711 296.72 202.791 297.06C201.891 297.42 200.881 297.6 199.761 297.6H198.261C197.021 297.6 195.911 297.41 194.931 297.03C193.971 296.65 193.151 296.1 192.471 295.38C191.791 294.68 191.271 293.82 190.911 292.8C190.551 291.78 190.371 290.63 190.371 289.35V283.08H195.801V289.5C195.801 290.26 196.021 290.84 196.461 291.24C196.901 291.64 197.611 291.84 198.591 291.84H199.581C200.661 291.84 201.431 291.62 201.891 291.18C202.351 290.74 202.581 290.18 202.581 289.5V280.26H208.011V283.74ZM215.271 285.39C215.611 285.39 215.861 285.3 216.021 285.12C216.181 284.92 216.261 284.7 216.261 284.46C216.261 284.24 216.171 284.04 215.991 283.86C215.831 283.66 215.611 283.56 215.331 283.56C215.051 283.56 214.691 283.72 214.251 284.04C213.831 284.36 213.291 284.81 212.631 285.39H215.271ZM224.333 285.21C224.473 285.21 224.593 285.17 224.693 285.09C224.793 284.99 224.843 284.87 224.843 284.73V280.26H230.303V283.74C231.563 281.82 232.853 280.41 234.173 279.51C235.493 278.59 236.843 278.13 238.223 278.13C239.043 278.13 239.793 278.29 240.473 278.61C241.153 278.91 241.743 279.34 242.243 279.9C242.743 280.46 243.123 281.13 243.383 281.91C243.663 282.67 243.803 283.5 243.803 284.4C243.803 284.52 243.803 284.64 243.803 284.76C243.803 284.88 243.793 285 243.773 285.12C243.873 285.16 244.043 285.19 244.283 285.21C244.543 285.21 244.723 285.21 244.823 285.21H245.483C245.603 285.21 245.703 285.24 245.783 285.3C245.863 285.34 245.933 285.45 245.993 285.63C246.053 285.81 246.093 286.09 246.113 286.47C246.133 286.85 246.143 287.37 246.143 288.03C246.143 288.73 246.133 289.28 246.113 289.68C246.093 290.08 246.053 290.38 245.993 290.58C245.933 290.78 245.863 290.9 245.783 290.94C245.703 290.98 245.603 291 245.483 291H244.823C244.243 291 243.633 290.94 242.993 290.82C242.353 290.7 241.723 290.41 241.103 289.95C240.603 290.29 240.033 290.55 239.393 290.73C238.753 290.91 238.033 291 237.233 291H230.633C229.973 291 229.353 290.94 228.773 290.82C228.213 290.7 227.723 290.43 227.303 290.01C226.823 290.43 226.333 290.7 225.833 290.82C225.353 290.94 224.913 291 224.513 291H223.193C223.073 291 222.973 290.98 222.893 290.94C222.793 290.9 222.723 290.79 222.683 290.61C222.623 290.41 222.583 290.12 222.563 289.74C222.543 289.36 222.533 288.84 222.533 288.18C222.533 287.48 222.543 286.93 222.563 286.53C222.583 286.13 222.623 285.84 222.683 285.66C222.723 285.46 222.793 285.34 222.893 285.3C222.973 285.24 223.073 285.21 223.193 285.21H224.333ZM237.563 285.39C237.903 285.39 238.153 285.3 238.313 285.12C238.473 284.92 238.553 284.7 238.553 284.46C238.553 284.24 238.463 284.04 238.283 283.86C238.123 283.66 237.903 283.56 237.623 283.56C237.343 283.56 236.983 283.72 236.543 284.04C236.123 284.36 235.583 284.81 234.923 285.39H237.563ZM247.138 283.26L247.618 277.8H255.058C255.638 277.8 256.188 277.87 256.708 278.01C257.228 278.15 257.718 278.44 258.178 278.88C258.658 279.32 259.108 279.96 259.528 280.8C259.948 281.62 260.358 282.71 260.758 284.07L259.288 285.21H262.468C262.588 285.21 262.688 285.24 262.768 285.3C262.868 285.34 262.938 285.45 262.978 285.63C263.038 285.81 263.078 286.09 263.098 286.47C263.118 286.85 263.128 287.37 263.128 288.03C263.128 288.73 263.118 289.28 263.098 289.68C263.078 290.08 263.038 290.38 262.978 290.58C262.938 290.78 262.868 290.9 262.768 290.94C262.688 290.98 262.588 291 262.468 291H260.008C258.868 291 257.948 290.77 257.248 290.31C256.568 289.85 256.028 289.32 255.628 288.72L255.058 289.02C254.398 289.4 253.788 289.72 253.228 289.98C252.668 290.22 252.098 290.42 251.518 290.58C250.958 290.72 250.358 290.83 249.718 290.91C249.098 290.97 248.398 291 247.618 291H245.488C245.368 291 245.268 290.98 245.188 290.94C245.088 290.9 245.018 290.79 244.978 290.61C244.918 290.41 244.878 290.12 244.858 289.74C244.838 289.36 244.828 288.84 244.828 288.18C244.828 287.48 244.838 286.93 244.858 286.53C244.878 286.13 244.918 285.84 244.978 285.66C245.018 285.46 245.088 285.34 245.188 285.3C245.268 285.24 245.368 285.21 245.488 285.21H247.798C248.298 285.21 248.788 285.21 249.268 285.21C249.768 285.19 250.278 285.14 250.798 285.06C251.338 284.96 251.908 284.83 252.508 284.67C253.128 284.49 253.808 284.23 254.548 283.89C254.468 283.65 254.348 283.49 254.188 283.41C254.028 283.31 253.818 283.26 253.558 283.26H247.138ZM255.898 275.97H250.438V271.86H255.898V275.97ZM263.62 285.21C263.76 285.21 263.88 285.17 263.98 285.09C264.08 284.99 264.13 284.87 264.13 284.73V280.26H269.59V284.73C269.59 285.05 269.75 285.21 270.07 285.21H271.21C271.33 285.21 271.43 285.24 271.51 285.3C271.61 285.34 271.68 285.45 271.72 285.63C271.78 285.81 271.82 286.09 271.84 286.47C271.86 286.85 271.87 287.37 271.87 288.03C271.87 288.73 271.86 289.28 271.84 289.68C271.82 290.08 271.78 290.38 271.72 290.58C271.68 290.78 271.61 290.9 271.51 290.94C271.43 290.98 271.33 291 271.21 291H270.28C269.6 291 268.97 290.94 268.39 290.82C267.83 290.7 267.34 290.43 266.92 290.01C266.44 290.43 265.95 290.7 265.45 290.82C264.97 290.94 264.53 291 264.13 291H262.48C262.36 291 262.26 290.98 262.18 290.94C262.08 290.9 262.01 290.79 261.97 290.61C261.91 290.41 261.87 290.12 261.85 289.74C261.83 289.36 261.82 288.84 261.82 288.18C261.82 287.48 261.83 286.93 261.85 286.53C261.87 286.13 261.91 285.84 261.97 285.66C262.01 285.46 262.08 285.34 262.18 285.3C262.26 285.24 262.36 285.21 262.48 285.21H263.62ZM271.06 278.61H262.48V274.5H271.06V278.61ZM272.351 285.21C272.491 285.21 272.611 285.17 272.711 285.09C272.811 284.99 272.861 284.87 272.861 284.73C272.861 282.73 273.391 281.16 274.451 280.02C275.531 278.86 277.001 278.28 278.861 278.28C280.821 278.28 282.291 278.85 283.271 279.99C284.251 281.13 284.741 282.65 284.741 284.55C284.741 286.55 284.201 288.13 283.121 289.29C282.041 290.43 280.551 291 278.651 291C278.071 291 277.501 290.92 276.941 290.76C276.381 290.6 275.901 290.35 275.501 290.01C275.261 290.23 275.001 290.4 274.721 290.52C274.461 290.64 274.161 290.74 273.821 290.82C273.501 290.9 273.131 290.95 272.711 290.97C272.291 290.99 271.791 291 271.211 291C271.091 291 270.991 290.98 270.911 290.94C270.811 290.9 270.741 290.79 270.701 290.61C270.641 290.41 270.601 290.12 270.581 289.74C270.561 289.36 270.551 288.84 270.551 288.18C270.551 287.48 270.561 286.93 270.581 286.53C270.601 286.13 270.641 285.84 270.701 285.66C270.741 285.46 270.811 285.34 270.911 285.3C270.991 285.24 271.091 285.21 271.211 285.21H272.351ZM277.811 284.55C277.811 284.97 277.901 285.24 278.081 285.36C278.261 285.48 278.481 285.54 278.741 285.54C278.961 285.54 279.161 285.48 279.341 285.36C279.521 285.24 279.611 284.97 279.611 284.55C279.611 283.89 279.321 283.56 278.741 283.56C278.121 283.56 277.811 283.89 277.811 284.55ZM289.717 285.21C289.717 284.23 289.917 283.31 290.317 282.45C290.717 281.57 291.337 280.62 292.177 279.6L290.917 278.28L294.757 274.5C296.297 275.9 297.537 277.12 298.477 278.16C299.417 279.18 300.137 280.1 300.637 280.92C301.157 281.72 301.497 282.46 301.657 283.14C301.837 283.82 301.927 284.51 301.927 285.21C301.927 286.05 301.767 286.82 301.447 287.52C301.127 288.22 300.687 288.83 300.127 289.35C299.587 289.87 298.927 290.28 298.147 290.58C297.387 290.86 296.557 291 295.657 291C294.757 291 293.937 290.86 293.197 290.58C292.457 290.3 291.827 289.91 291.307 289.41C290.807 288.91 290.417 288.31 290.137 287.61C289.857 286.89 289.717 286.09 289.717 285.21ZM296.797 284.67C296.797 284.11 296.467 283.53 295.807 282.93C295.147 283.57 294.817 284.15 294.817 284.67C294.817 285.25 295.147 285.54 295.807 285.54C296.467 285.54 296.797 285.25 296.797 284.67ZM309.514 289.68C309.514 290.8 309.324 291.86 308.944 292.86C308.564 293.86 308.034 294.73 307.354 295.47C306.674 296.23 305.854 296.83 304.894 297.27C303.954 297.71 302.904 297.93 301.744 297.93H298.444L297.934 292.17H301.084C302.164 292.17 302.924 291.95 303.364 291.51C303.824 291.07 304.054 290.52 304.054 289.86V280.26H309.514V289.68ZM323.702 290.34C323.702 291.66 323.512 292.82 323.132 293.82C322.772 294.84 322.252 295.69 321.572 296.37C320.892 297.05 320.082 297.56 319.142 297.9C318.222 298.26 317.212 298.44 316.112 298.44H311.642L311.312 292.65H316.442C317.102 292.65 317.562 292.52 317.822 292.26C318.102 292 318.242 291.58 318.242 291H317.762C316.522 291 315.502 290.86 314.702 290.58C313.902 290.3 313.272 289.91 312.812 289.41C312.372 288.89 312.062 288.26 311.882 287.52C311.722 286.78 311.642 285.96 311.642 285.06C311.642 284.2 311.772 283.38 312.032 282.6C312.292 281.82 312.672 281.14 313.172 280.56C313.692 279.96 314.322 279.49 315.062 279.15C315.802 278.79 316.642 278.61 317.582 278.61C318.402 278.61 319.182 278.73 319.922 278.97C320.662 279.21 321.312 279.6 321.872 280.14C322.432 280.66 322.872 281.34 323.192 282.18C323.532 283 323.702 284.01 323.702 285.21V290.34ZM316.772 284.7C316.772 285.02 316.832 285.27 316.952 285.45C317.072 285.63 317.342 285.72 317.762 285.72H318.572V284.88C318.572 284.12 318.262 283.74 317.642 283.74C317.062 283.74 316.772 284.06 316.772 284.7ZM327.982 279.12L332.092 275.16L337.372 281.61C338.132 282.51 338.622 283.32 338.842 284.04C339.082 284.76 339.202 285.43 339.202 286.05C339.202 286.73 339.082 287.37 338.842 287.97C338.622 288.57 338.282 289.1 337.822 289.56C337.362 290 336.772 290.35 336.052 290.61C335.352 290.87 334.522 291 333.562 291H325.642L325.162 285.21H332.092C332.412 285.21 332.572 285.08 332.572 284.82C332.572 284.64 332.462 284.41 332.242 284.13L327.982 279.12Z" fill="#D97706"/>
<path fill-rule="evenodd" clip-rule="evenodd" d="M197.882 91.1603C216.69 92.7053 228.013 110.414 242.08 123.004C257.62 136.911 281.242 146.442 282.893 167.24C284.582 188.517 266.014 205.356 249.709 219.112C235.007 231.517 217.107 238.534 197.882 238.966C178.152 239.409 157.447 235.64 143.673 221.495C130.028 207.482 127.651 186.803 128.038 167.24C128.416 148.156 132.878 129.152 145.782 115.096C159.222 100.456 178.083 89.5353 197.882 91.1603Z" fill="#FDE68A"/>
<path d="M63.5066 288.98C63.5066 290.06 63.3566 291.04 63.0566 291.92C62.7766 292.8 62.3466 293.56 61.7666 294.2C61.2066 294.84 60.4866 295.34 59.6066 295.7C58.7266 296.04 57.7066 296.21 56.5466 296.21C56.0066 296.21 55.4466 296.17 54.8666 296.09C54.2866 296.03 53.6266 295.9 52.8866 295.7L53.0966 292.94C53.1566 292.56 53.3166 292.27 53.5766 292.07C53.8566 291.85 54.2666 291.74 54.8066 291.74C55.0266 291.74 55.2466 291.76 55.4666 291.8C55.6866 291.84 55.8966 291.86 56.0966 291.86C56.6566 291.86 57.0666 291.66 57.3266 291.26C57.6066 290.86 57.7466 290.12 57.7466 289.04V276.89H63.5066V288.98ZM72.7262 290.81C71.7862 290.91 71.1762 291.07 70.8962 291.29C70.6362 291.49 70.5062 291.72 70.5062 291.98C70.5062 292.5 70.7062 292.76 71.1062 292.76C71.4262 292.76 71.6962 292.7 71.9162 292.58C72.1562 292.46 72.4262 292.25 72.7262 291.95V290.81ZM65.7662 284.39C66.6862 283.55 67.6862 282.94 68.7662 282.56C69.8662 282.16 71.0162 281.96 72.2162 281.96C73.1162 281.96 73.9262 282.1 74.6462 282.38C75.3862 282.64 76.0062 283.02 76.5062 283.52C77.0262 284 77.4162 284.59 77.6762 285.29C77.9562 285.97 78.0962 286.72 78.0962 287.54V296H75.5162C74.9962 296 74.5862 295.95 74.2862 295.85C74.0062 295.73 73.7862 295.49 73.6262 295.13C73.1062 295.47 72.5562 295.74 71.9762 295.94C71.4162 296.12 70.7262 296.21 69.9062 296.21C68.4662 296.21 67.3262 295.87 66.4862 295.19C65.6462 294.51 65.2262 293.51 65.2262 292.19C65.2262 291.71 65.3462 291.22 65.5862 290.72C65.8262 290.2 66.2262 289.73 66.7862 289.31C67.3662 288.87 68.1362 288.5 69.0962 288.2C70.0762 287.88 71.2862 287.68 72.7262 287.6V287.54C72.7262 286.94 72.6462 286.51 72.4862 286.25C72.3262 285.97 72.0762 285.83 71.7362 285.83C71.3562 285.83 71.0362 285.88 70.7762 285.98C70.5362 286.08 70.2862 286.2 70.0262 286.34C69.8062 286.44 69.5862 286.54 69.3662 286.64C69.1462 286.72 68.8262 286.76 68.4062 286.76C67.9462 286.76 67.5662 286.68 67.2662 286.52C66.9662 286.36 66.7562 286.15 66.6362 285.89L65.7662 284.39ZM94.2545 282.2L88.8845 296H84.2045L78.8345 282.2H83.0045C83.4445 282.2 83.8245 282.29 84.1445 282.47C84.4645 282.63 84.6845 282.87 84.8045 283.19L86.6045 288.95L88.4345 283.19C88.5545 282.87 88.7745 282.63 89.0945 282.47C89.4145 282.29 89.7745 282.2 90.1745 282.2H94.2545ZM101.818 290.81C100.878 290.91 100.268 291.07 99.988 291.29C99.728 291.49 99.598 291.72 99.598 291.98C99.598 292.5 99.798 292.76 100.198 292.76C100.518 292.76 100.788 292.7 101.008 292.58C101.248 292.46 101.518 292.25 101.818 291.95V290.81ZM94.858 284.39C95.778 283.55 96.778 282.94 97.858 282.56C98.958 282.16 100.108 281.96 101.308 281.96C102.208 281.96 103.018 282.1 103.738 282.38C104.478 282.64 105.098 283.02 105.598 283.52C106.118 284 106.508 284.59 106.768 285.29C107.048 285.97 107.188 286.72 107.188 287.54V296H104.608C104.088 296 103.678 295.95 103.378 295.85C103.098 295.73 102.878 295.49 102.718 295.13C102.198 295.47 101.648 295.74 101.068 295.94C100.508 296.12 99.818 296.21 98.998 296.21C97.558 296.21 96.418 295.87 95.578 295.19C94.738 294.51 94.318 293.51 94.318 292.19C94.318 291.71 94.438 291.22 94.678 290.72C94.918 290.2 95.318 289.73 95.878 289.31C96.458 288.87 97.228 288.5 98.188 288.2C99.168 287.88 100.378 287.68 101.818 287.6V287.54C101.818 286.94 101.738 286.51 101.578 286.25C101.418 285.97 101.168 285.83 100.828 285.83C100.448 285.83 100.128 285.88 99.868 285.98C99.628 286.08 99.378 286.2 99.118 286.34C98.898 286.44 98.678 286.54 98.458 286.64C98.238 286.72 97.918 286.76 97.498 286.76C97.038 286.76 96.658 286.68 96.358 286.52C96.058 286.36 95.848 286.15 95.728 285.89L94.858 284.39ZM121.366 281.27C121.066 281.83 120.556 282.11 119.836 282.11C119.516 282.11 119.226 282.05 118.966 281.93C118.706 281.81 118.436 281.68 118.156 281.54C117.896 281.4 117.616 281.27 117.316 281.15C117.016 281.03 116.656 280.97 116.236 280.97C115.196 280.97 114.676 281.43 114.676 282.35C114.676 282.73 114.876 283.04 115.276 283.28C115.676 283.52 116.176 283.75 116.776 283.97C117.396 284.19 118.056 284.43 118.756 284.69C119.456 284.93 120.106 285.26 120.706 285.68C121.326 286.1 121.836 286.64 122.236 287.3C122.636 287.94 122.836 288.75 122.836 289.73C122.836 290.63 122.666 291.47 122.326 292.25C122.006 293.03 121.536 293.72 120.916 294.32C120.296 294.9 119.526 295.36 118.606 295.7C117.706 296.04 116.676 296.21 115.516 296.21C114.876 296.21 114.226 296.14 113.566 296C112.906 295.86 112.266 295.66 111.646 295.4C111.026 295.14 110.436 294.84 109.876 294.5C109.316 294.16 108.826 293.78 108.406 293.36L109.816 291.11C109.956 290.93 110.166 290.77 110.446 290.63C110.746 290.47 111.076 290.39 111.436 290.39C111.816 290.39 112.156 290.47 112.456 290.63C112.756 290.79 113.056 290.97 113.356 291.17C113.676 291.35 114.006 291.52 114.346 291.68C114.706 291.84 115.126 291.92 115.606 291.92C116.126 291.92 116.536 291.79 116.836 291.53C117.136 291.27 117.286 290.85 117.286 290.27C117.286 289.81 117.086 289.45 116.686 289.19C116.286 288.93 115.786 288.7 115.186 288.5C114.586 288.28 113.936 288.06 113.236 287.84C112.536 287.6 111.886 287.27 111.286 286.85C110.686 286.43 110.186 285.88 109.786 285.2C109.386 284.52 109.186 283.63 109.186 282.53C109.186 281.79 109.336 281.07 109.636 280.37C109.956 279.65 110.416 279.02 111.016 278.48C111.616 277.92 112.346 277.48 113.206 277.16C114.086 276.82 115.086 276.65 116.206 276.65C117.446 276.65 118.626 276.86 119.746 277.28C120.886 277.7 121.846 278.28 122.626 279.02L121.366 281.27ZM135.491 285.98C135.331 286.2 135.161 286.36 134.981 286.46C134.801 286.56 134.511 286.61 134.111 286.61C133.531 286.61 133.111 286.49 132.851 286.25L132.881 286.28C132.681 286.14 132.461 286.03 132.221 285.95C131.981 285.85 131.711 285.8 131.411 285.8C130.731 285.8 130.231 286.09 129.911 286.67C129.611 287.23 129.461 288.04 129.461 289.1C129.461 290.16 129.631 290.98 129.971 291.56C130.311 292.14 130.771 292.43 131.351 292.43C131.691 292.43 131.961 292.38 132.161 292.28C132.361 292.16 132.541 292.03 132.701 291.89C132.881 291.75 133.071 291.63 133.271 291.53C133.491 291.41 133.791 291.35 134.171 291.35C134.511 291.35 134.791 291.41 135.011 291.53C135.251 291.63 135.441 291.76 135.581 291.92L136.871 293.54C136.391 294.08 135.891 294.53 135.371 294.89C134.851 295.23 134.321 295.5 133.781 295.7C133.261 295.9 132.731 296.03 132.191 296.09C131.651 296.17 131.131 296.21 130.631 296.21C129.751 296.21 128.911 296.05 128.111 295.73C127.311 295.41 126.601 294.95 125.981 294.35C125.361 293.73 124.871 292.98 124.511 292.1C124.151 291.22 123.971 290.22 123.971 289.1C123.971 288.12 124.121 287.2 124.421 286.34C124.741 285.46 125.201 284.71 125.801 284.09C126.421 283.45 127.181 282.95 128.081 282.59C128.981 282.21 130.021 282.02 131.201 282.02C132.381 282.02 133.411 282.21 134.291 282.59C135.171 282.97 135.991 283.54 136.751 284.3L135.491 285.98ZM141.079 282.2C141.619 282.2 142.019 282.27 142.279 282.41C142.539 282.55 142.719 282.74 142.819 282.98C143.199 282.66 143.609 282.41 144.049 282.23C144.489 282.05 144.999 281.96 145.579 281.96C146.379 281.96 147.109 282.19 147.769 282.65L147.529 285.68C147.489 286.06 147.349 286.31 147.109 286.43C146.889 286.53 146.559 286.58 146.119 286.58C145.839 286.58 145.609 286.57 145.429 286.55C145.249 286.51 145.059 286.49 144.859 286.49C144.539 286.49 144.269 286.6 144.049 286.82C143.849 287.04 143.649 287.35 143.449 287.75V296H138.049V282.2H141.079ZM154.202 282.74V296H148.802V282.74H154.202ZM154.532 278.96C154.532 279.32 154.452 279.67 154.292 280.01C154.132 280.33 153.912 280.61 153.632 280.85C153.372 281.09 153.052 281.29 152.672 281.45C152.292 281.59 151.892 281.66 151.472 281.66C151.052 281.66 150.662 281.59 150.302 281.45C149.942 281.29 149.622 281.09 149.342 280.85C149.082 280.61 148.872 280.33 148.712 280.01C148.572 279.67 148.502 279.32 148.502 278.96C148.502 278.58 148.572 278.23 148.712 277.91C148.872 277.57 149.082 277.28 149.342 277.04C149.622 276.78 149.942 276.58 150.302 276.44C150.662 276.3 151.052 276.23 151.472 276.23C151.892 276.23 152.292 276.3 152.672 276.44C153.052 276.58 153.372 276.78 153.632 277.04C153.912 277.28 154.132 277.57 154.292 277.91C154.452 278.23 154.532 278.58 154.532 278.96ZM161.878 291.86C162.098 292.08 162.308 292.23 162.508 292.31C162.708 292.39 162.898 292.43 163.078 292.43C163.598 292.43 164.018 292.18 164.338 291.68C164.658 291.16 164.818 290.28 164.818 289.04C164.818 287.82 164.698 286.98 164.458 286.52C164.218 286.06 163.908 285.83 163.528 285.83C163.228 285.83 162.928 285.91 162.628 286.07C162.348 286.23 162.098 286.42 161.878 286.64V291.86ZM159.628 282.2C160.468 282.2 161.008 282.51 161.248 283.13C161.728 282.77 162.258 282.49 162.838 282.29C163.438 282.07 164.118 281.96 164.878 281.96C165.658 281.96 166.378 282.12 167.038 282.44C167.718 282.76 168.298 283.22 168.778 283.82C169.258 284.42 169.638 285.16 169.918 286.04C170.198 286.92 170.338 287.92 170.338 289.04C170.338 290.06 170.188 291.01 169.888 291.89C169.588 292.75 169.158 293.51 168.598 294.17C168.038 294.81 167.368 295.31 166.588 295.67C165.828 296.03 164.978 296.21 164.038 296.21C163.618 296.21 163.218 296.17 162.838 296.09C162.478 296.01 162.158 295.91 161.878 295.79V300.14H156.478V282.2H159.628ZM177.579 296.21C176.119 296.21 174.999 295.83 174.219 295.07C173.439 294.31 173.049 293.28 173.049 291.98V285.83C172.469 285.83 172.019 285.72 171.699 285.5C171.379 285.26 171.219 284.94 171.219 284.54V282.71L173.349 282.29C173.489 281.83 173.619 281.36 173.739 280.88C173.879 280.38 173.999 279.89 174.099 279.41C174.279 278.77 174.799 278.45 175.659 278.45H178.449V282.2H181.599V285.83H178.449V291.71C178.449 291.87 178.459 292.01 178.479 292.13C178.499 292.23 178.519 292.28 178.539 292.28C178.659 292.28 178.769 292.23 178.869 292.13C178.989 292.03 179.209 291.98 179.529 291.98C179.849 291.98 180.089 292.03 180.249 292.13C180.429 292.21 180.579 292.35 180.699 292.55L182.049 294.68C180.729 295.7 179.239 296.21 177.579 296.21Z" fill="#D97706"/>
<path d="M148.919 198.803L158.791 192.828C160.696 196.205 162.428 199.062 166.584 199.062C170.567 199.062 173.079 197.504 173.079 191.443V150.225H185.202V191.614C185.202 204.17 177.842 209.886 167.103 209.886C157.406 209.886 151.777 204.863 148.919 198.802" fill="#D97706"/>
<path d="M191.787 197.504L201.657 191.789C204.256 196.032 207.633 199.149 213.607 199.149C218.631 199.149 221.834 196.638 221.834 193.174C221.834 189.018 218.543 187.545 213.001 185.122L209.971 183.822C201.225 180.099 195.423 175.423 195.423 165.551C195.423 156.459 202.351 149.531 213.175 149.531C220.882 149.531 226.424 152.216 230.407 159.23L220.967 165.292C218.889 161.569 216.638 160.097 213.174 160.097C209.624 160.097 207.372 162.348 207.372 165.292C207.372 168.929 209.624 170.402 214.819 172.653L217.85 173.952C228.155 178.368 233.956 182.871 233.956 193.001C233.956 203.913 225.384 209.887 213.867 209.887C202.61 209.887 195.336 204.518 191.786 197.504" fill="#D97706"/>
<defs>
<linearGradient id="paint0_linear" x1="0" y1="400" x2="400" y2="0" gradientUnits="userSpaceOnUse">
<stop offset="0.0901017" stop-color="#FDE68A"/>
<stop offset="0.858017" stop-color="#FFFBEB"/>
</linearGradient>
</defs>
</svg>
