<svg width="400" height="400" fill="none" xmlns="http://www.w3.org/2000/svg"><path fill="url(#a)" d="M0 0h400v400H0z"/><path d="M200.641 284.288c1.536-2.304 3.096-3.996 4.68-5.076 1.584-1.104 3.192-1.656 4.824-1.656.984 0 1.884.192 2.7.576.84.36 1.548.876 2.124 1.548.6.672 1.068 1.476 1.404 2.412.336.912.504 1.908.504 2.988v.432c0 .144-.012.288-.036.432.12.048.324.084.612.108h1.404c.144 0 .264.036.36.108.096.048.18.18.252.396.072.216.12.552.144 1.008.024.456.036 1.08.036 1.872 0 .84-.012 1.5-.036 1.98-.024.48-.072.84-.144 1.08-.072.24-.156.384-.252.432a.801.801 0 0 1-.36.072h-.792c-.696 0-1.428-.072-2.196-.216-.744-.144-1.488-.492-2.232-1.044a6.98 6.98 0 0 1-2.052.936c-.768.216-1.644.324-2.628.324h-6.948c-.6 0-1.176-.06-1.728-.18a10.918 10.918 0 0 1-1.044 3.204 8.61 8.61 0 0 1-1.98 2.556c-.816.72-1.776 1.284-2.88 1.692-1.08.432-2.292.648-3.636.648h-1.8c-1.488 0-2.82-.228-3.996-.684a8.104 8.104 0 0 1-2.952-1.98c-.816-.84-1.44-1.872-1.872-3.096-.432-1.224-.648-2.604-.648-4.14v-7.524h6.516v7.704c0 .912.264 1.608.792 2.088s1.38.72 2.556.72h1.188c1.296 0 2.22-.264 2.772-.792.552-.528.828-1.2.828-2.016v-11.088h6.516v4.176Zm8.712 1.98c.408 0 .708-.108.9-.324a1.24 1.24 0 0 0 .288-.792c0-.264-.108-.504-.324-.72-.192-.24-.456-.36-.792-.36s-.768.192-1.296.576a38 38 0 0 0-1.944 1.62h3.168Zm10.874-.216a.67.67 0 0 0 .432-.144.59.59 0 0 0 .18-.432v-5.364h6.552v4.176c1.512-2.304 3.06-3.996 4.644-5.076 1.584-1.104 3.204-1.656 4.86-1.656.984 0 1.884.192 2.7.576a6.14 6.14 0 0 1 2.124 1.548c.6.672 1.056 1.476 1.368 2.412.336.912.504 1.908.504 2.988v.432c0 .144-.012.288-.036.432.12.048.324.084.612.108h1.44c.144 0 .264.036.36.108.096.048.18.18.252.396.072.216.12.552.144 1.008.024.456.036 1.08.036 1.872 0 .84-.012 1.5-.036 1.98-.024.48-.072.84-.144 1.08-.072.24-.156.384-.252.432a.801.801 0 0 1-.36.072h-.792c-.696 0-1.428-.072-2.196-.216-.768-.144-1.524-.492-2.268-1.044a6.98 6.98 0 0 1-2.052.936c-.768.216-1.632.324-2.592.324h-7.92c-.792 0-1.536-.072-2.232-.216a3.485 3.485 0 0 1-1.764-.972c-.576.504-1.164.828-1.764.972a6.573 6.573 0 0 1-1.584.216h-1.584a.801.801 0 0 1-.36-.072c-.12-.048-.204-.18-.252-.396-.072-.24-.12-.588-.144-1.044a37.682 37.682 0 0 1-.036-1.872c0-.84.012-1.5.036-1.98.024-.48.072-.828.144-1.044.048-.24.132-.384.252-.432a.583.583 0 0 1 .36-.108h1.368Zm15.876.216c.408 0 .708-.108.9-.324a1.24 1.24 0 0 0 .288-.792c0-.264-.108-.504-.324-.72-.192-.24-.456-.36-.792-.36s-.768.192-1.296.576a38 38 0 0 0-1.944 1.62h3.168Zm11.49-2.556.576-6.552h8.928c.696 0 1.356.084 1.98.252.624.168 1.212.516 1.764 1.044.576.528 1.116 1.296 1.62 2.304.504.984.996 2.292 1.476 3.924l-1.764 1.368h3.816c.144 0 .264.036.36.108.12.048.204.18.252.396.072.216.12.552.144 1.008.024.456.036 1.08.036 1.872 0 .84-.012 1.5-.036 1.98-.024.48-.072.84-.144 1.08-.048.24-.132.384-.252.432a.801.801 0 0 1-.36.072h-2.952c-1.368 0-2.472-.276-3.312-.828-.816-.552-1.464-1.188-1.944-1.908l-.684.36c-.792.456-1.524.84-2.196 1.152-.672.288-1.356.528-2.052.72-.672.168-1.392.3-2.16.396a26.39 26.39 0 0 1-2.52.108h-2.556a.801.801 0 0 1-.36-.072c-.12-.048-.204-.18-.252-.396-.072-.24-.12-.588-.144-1.044a37.682 37.682 0 0 1-.036-1.872c0-.84.012-1.5.036-1.98.024-.48.072-.828.144-1.044.048-.24.132-.384.252-.432a.583.583 0 0 1 .36-.108h4.536c.6-.024 1.212-.084 1.836-.18.648-.12 1.332-.276 2.052-.468.744-.216 1.56-.528 2.448-.936-.096-.288-.24-.48-.432-.576-.192-.12-.444-.18-.756-.18h-7.704Zm10.512-8.748h-6.552v-4.932h6.552v4.932Zm9.267 11.088a.67.67 0 0 0 .432-.144.59.59 0 0 0 .18-.432v-5.364h6.552v5.364c0 .384.192.576.576.576h1.368c.144 0 .264.036.36.108.12.048.204.18.252.396.072.216.12.552.144 1.008.024.456.036 1.08.036 1.872 0 .84-.012 1.5-.036 1.98-.024.48-.072.84-.144 1.08-.048.24-.132.384-.252.432a.801.801 0 0 1-.36.072h-1.116c-.816 0-1.572-.072-2.268-.216a3.485 3.485 0 0 1-1.764-.972c-.576.504-1.164.828-1.764.972a6.573 6.573 0 0 1-1.584.216h-1.98a.801.801 0 0 1-.36-.072c-.12-.048-.204-.18-.252-.396-.072-.24-.12-.588-.144-1.044a37.682 37.682 0 0 1-.036-1.872c0-.84.012-1.5.036-1.98.024-.48.072-.828.144-1.044.048-.24.132-.384.252-.432a.583.583 0 0 1 .36-.108h1.368Zm8.928-7.92h-10.296V273.2H276.3v4.932Zm1.548 7.92a.67.67 0 0 0 .432-.144.59.59 0 0 0 .18-.432c0-2.4.636-4.284 1.908-5.652 1.296-1.392 3.06-2.088 5.292-2.088 2.352 0 4.116.684 5.292 2.052 1.176 1.368 1.764 3.192 1.764 5.472 0 2.4-.648 4.296-1.944 5.688-1.296 1.368-3.084 2.052-5.364 2.052-.696 0-1.38-.096-2.052-.288a4.564 4.564 0 0 1-1.728-.9c-.288.264-.6.468-.936.612a5.692 5.692 0 0 1-1.08.36 6.88 6.88 0 0 1-1.332.18c-.504.024-1.104.036-1.8.036a.801.801 0 0 1-.36-.072c-.12-.048-.204-.18-.252-.396-.072-.24-.12-.588-.144-1.044a37.682 37.682 0 0 1-.036-1.872c0-.84.012-1.5.036-1.98.024-.48.072-.828.144-1.044.048-.24.132-.384.252-.432a.583.583 0 0 1 .36-.108h1.368Zm6.552-.792c0 .504.108.828.324.972.216.144.48.216.792.216.264 0 .504-.072.72-.216.216-.144.324-.468.324-.972 0-.792-.348-1.188-1.044-1.188-.744 0-1.116.396-1.116 1.188Zm18.26.792c0-1.176.24-2.28.72-3.312.48-1.056 1.224-2.196 2.232-3.42l-1.512-1.584 4.608-4.536c1.848 1.68 3.336 3.144 4.464 4.392 1.128 1.224 1.992 2.328 2.592 3.312.624.96 1.032 1.848 1.224 2.664.216.816.324 1.644.324 2.484 0 1.008-.192 1.932-.576 2.772a6.857 6.857 0 0 1-1.584 2.196c-.648.624-1.44 1.116-2.376 1.476-.912.336-1.908.504-2.988.504s-2.064-.168-2.952-.504c-.888-.336-1.644-.804-2.268-1.404-.6-.6-1.068-1.32-1.404-2.16-.336-.864-.504-1.824-.504-2.88Zm8.496-.648c0-.672-.396-1.368-1.188-2.088-.792.768-1.188 1.464-1.188 2.088 0 .696.396 1.044 1.188 1.044.792 0 1.188-.348 1.188-1.044Zm15.261 6.012c0 1.344-.228 2.616-.684 3.816a9.63 9.63 0 0 1-1.908 3.132 8.869 8.869 0 0 1-2.952 2.16c-1.128.528-2.388.792-3.78.792h-3.96l-.612-6.912h3.78c1.296 0 2.208-.264 2.736-.792.552-.528.828-1.188.828-1.98v-11.52h6.552v11.304Zm17.026.792c0 1.584-.228 2.976-.684 4.176-.432 1.224-1.056 2.244-1.872 3.06a7.833 7.833 0 0 1-2.916 1.836c-1.104.432-2.316.648-3.636.648h-5.364l-.396-6.948h6.156c.792 0 1.344-.156 1.656-.468.336-.312.504-.816.504-1.512h-.576c-1.488 0-2.712-.168-3.672-.504-.96-.336-1.716-.804-2.268-1.404-.528-.624-.9-1.38-1.116-2.268-.192-.888-.288-1.872-.288-2.952 0-1.032.156-2.016.468-2.952a7.18 7.18 0 0 1 1.368-2.448 6.619 6.619 0 0 1 2.268-1.692c.888-.432 1.896-.648 3.024-.648.984 0 1.92.144 2.808.432a5.991 5.991 0 0 1 2.34 1.404c.672.624 1.2 1.44 1.584 2.448.408.984.612 2.196.612 3.636v6.156Zm-8.316-6.768c0 .384.072.684.216.9.144.216.468.324.972.324h.972v-1.008c0-.912-.372-1.368-1.116-1.368-.696 0-1.044.384-1.044 1.152Zm13.451-6.696 4.932-4.752 6.336 7.74c.912 1.08 1.5 2.052 1.764 2.916.288.864.432 1.668.432 2.412 0 .816-.144 1.584-.432 2.304a5.204 5.204 0 0 1-1.224 1.908c-.552.528-1.26.948-2.124 1.26-.84.312-1.836.468-2.988.468h-9.504l-.576-6.948h8.316c.384 0 .576-.156.576-.468 0-.216-.132-.492-.396-.828l-5.112-6.012ZM73.297 271.52V297h-4c-.613 0-1.146-.107-1.6-.32-.426-.213-.893-.587-1.4-1.12l-9.2-11.72V297h-7.08v-25.48h3.96c.747 0 1.294.067 1.64.2.347.133.707.427 1.08.88l9.56 12v-13.08h7.04Zm14.766 13.6c-.053-.533-.226-.987-.52-1.36-.266-.4-.733-.6-1.4-.6-1.066 0-1.8.653-2.2 1.96h4.12Zm-4.28 4.2c.214 1.067.56 1.813 1.04 2.24.507.427 1.147.64 1.92.64.507 0 .947-.067 1.32-.2.374-.16.72-.32 1.04-.48.32-.187.64-.347.96-.48.347-.16.734-.24 1.16-.24.427 0 .774.053 1.04.16.267.107.507.267.72.48l1.84 2.28a10.08 10.08 0 0 1-2.08 1.8c-.72.453-1.453.813-2.2 1.08a9.708 9.708 0 0 1-2.24.52c-.72.107-1.413.16-2.08.16a10.91 10.91 0 0 1-3.76-.64 8.874 8.874 0 0 1-3.08-1.88c-.88-.827-1.586-1.853-2.12-3.08-.506-1.227-.76-2.64-.76-4.24 0-1.227.214-2.387.64-3.48a8.804 8.804 0 0 1 1.92-2.88c.827-.827 1.827-1.48 3-1.96 1.174-.507 2.507-.76 4-.76 1.28 0 2.454.2 3.52.6a7.748 7.748 0 0 1 2.76 1.64c.774.72 1.374 1.613 1.8 2.68.427 1.04.64 2.227.64 3.56 0 .987-.133 1.653-.4 2-.266.32-.866.48-1.8.48h-8.8Zm32.325 7.68h-6.36c-.64 0-1.147-.12-1.52-.36a2.512 2.512 0 0 1-.8-.88l-2.12-3.56-2.08 3.6a2.92 2.92 0 0 1-.84.88c-.347.213-.84.32-1.48.32h-6.04l6.16-9.4a258.208 258.208 0 0 1-3-4.48 204.867 204.867 0 0 0-2.92-4.52h6.44c.587 0 1.027.08 1.32.24.32.16.573.373.76.64l2.16 3.48 1.92-3.36c.24-.373.507-.627.8-.76.293-.16.707-.24 1.24-.24h6.28l-6 8.64 6.08 9.76Zm8.161.28c-1.947 0-3.44-.507-4.48-1.52-1.04-1.013-1.56-2.387-1.56-4.12v-8.2c-.773 0-1.373-.147-1.8-.44a1.52 1.52 0 0 1-.64-1.28v-2.44l2.84-.56c.187-.613.36-1.24.52-1.88.187-.667.347-1.32.48-1.96.24-.853.933-1.28 2.08-1.28h3.72v5h4.2v4.84h-4.2v7.84c0 .213.013.4.04.56.027.133.053.2.08.2.16 0 .307-.067.44-.2.16-.133.453-.2.88-.2s.747.067.96.2c.24.107.44.293.6.56l1.8 2.84c-1.76 1.36-3.747 2.04-5.96 2.04Zm14.935-4.24c0 1.44-.36 2.467-1.08 3.08-.72.587-1.68.88-2.88.88-1.227 0-2.2-.293-2.92-.88-.693-.613-1.04-1.64-1.04-3.08 0-1.413.347-2.387 1.04-2.92.72-.56 1.693-.84 2.92-.84 1.2 0 2.16.28 2.88.84.72.533 1.08 1.507 1.08 2.92Zm9.637-13.72v17.12a8.46 8.46 0 0 1-.36 2.52c-.24.8-.64 1.493-1.2 2.08-.533.587-1.253 1.04-2.16 1.36-.906.347-2.026.52-3.36.52-.48 0-.973-.053-1.48-.16-.533-.08-1.146-.2-1.84-.36l.16-3.16c.027-.453.2-.773.52-.96.294-.187.814-.28 1.56-.28.374 0 .627-.107.76-.32.134-.213.2-.627.2-1.24v-17.12h7.2Zm.4-5.04c0 .48-.106.947-.32 1.4-.213.427-.506.8-.88 1.12-.373.32-.8.587-1.28.8-.48.187-1 .28-1.56.28a4.26 4.26 0 0 1-1.56-.28 5.196 5.196 0 0 1-1.28-.8 3.88 3.88 0 0 1-.84-1.12 3.655 3.655 0 0 1-.28-1.4c0-.507.094-.973.28-1.4.214-.453.494-.84.84-1.16.374-.347.8-.613 1.28-.8.48-.187 1-.28 1.56-.28s1.08.093 1.56.28c.48.187.907.453 1.28.8.374.32.667.707.88 1.16.214.427.32.893.32 1.4Zm15.396 9.12c-.214.267-.44.467-.68.6-.24.133-.614.2-1.12.2-.4 0-.76-.053-1.08-.16l-.88-.32a8.16 8.16 0 0 0-.84-.36 2.46 2.46 0 0 0-.92-.16c-.667 0-1 .267-1 .8 0 .293.186.547.56.76.4.187.893.387 1.48.6a41.1 41.1 0 0 1 1.92.64c.693.24 1.333.573 1.92 1a4.75 4.75 0 0 1 1.48 1.52c.4.613.6 1.387.6 2.32 0 1.893-.707 3.44-2.12 4.64-1.387 1.2-3.414 1.8-6.08 1.8a9.05 9.05 0 0 1-2.04-.24c-.694-.133-1.36-.32-2-.56-.64-.24-1.254-.52-1.84-.84a7.71 7.71 0 0 1-1.44-1.04l1.44-2.32-.04.04c.186-.32.44-.56.76-.72.346-.187.826-.28 1.44-.28.426 0 .786.067 1.08.2.293.133.573.28.84.44l.88.4c.293.133.653.2 1.08.2.426 0 .72-.093.88-.28.186-.187.28-.387.28-.6 0-.32-.2-.587-.6-.8a9.011 9.011 0 0 0-1.48-.6c-.587-.213-1.24-.44-1.96-.68a8.308 8.308 0 0 1-1.92-1.04 5.484 5.484 0 0 1-1.48-1.64c-.4-.667-.6-1.52-.6-2.56 0-.8.16-1.56.48-2.28.32-.72.8-1.36 1.44-1.92.666-.56 1.48-1 2.44-1.32.986-.32 2.133-.48 3.44-.48 1.466 0 2.813.267 4.04.8 1.226.507 2.253 1.173 3.08 2l-1.44 2.24Z" fill="#fff"/><path fill-rule="evenodd" clip-rule="evenodd" d="M194.882 104.16c18.808 1.545 30.131 19.254 44.198 31.844 15.54 13.907 39.162 23.438 40.813 44.236 1.689 21.277-16.879 38.116-33.184 51.872-14.702 12.405-32.602 19.422-51.827 19.854-19.73.443-40.435-3.326-54.209-17.471-13.645-14.013-16.022-34.692-15.635-54.255.378-19.084 4.84-38.088 17.744-52.144 13.44-14.64 32.301-25.561 52.1-23.936Z" fill="#F4F4F5"/><g clip-path="url(#b)"><path d="M191.651 138.023c-.187.017-.782.077-1.318.119-12.357 1.114-23.932 7.781-31.262 18.027-4.083 5.697-6.693 12.16-7.68 19.005-.349 2.389-.391 3.095-.391 6.334 0 3.24.042 3.946.391 6.335 2.364 16.335 13.99 30.059 29.757 35.144 2.824.91 5.8 1.53 9.185 1.905 1.318.144 7.016.144 8.334 0 5.843-.647 10.792-2.092 15.674-4.584.748-.382.893-.484.791-.57-.068-.05-3.257-4.327-7.084-9.497l-6.957-9.396-8.717-12.9c-4.797-7.091-8.743-12.891-8.777-12.891-.034-.008-.067 5.723-.084 12.721-.026 12.253-.034 12.746-.188 13.036-.221.416-.391.586-.748.773-.272.136-.511.162-1.794.162h-1.472l-.391-.247a1.597 1.597 0 0 1-.57-.62l-.178-.383.017-17.049.025-17.057.264-.332a2.33 2.33 0 0 1 .629-.518c.349-.17.485-.187 1.956-.187 1.735 0 2.024.068 2.475.561.127.136 4.847 7.244 10.494 15.807a36707.74 36707.74 0 0 0 17.162 25.994l6.889 10.433.348-.229c3.088-2.007 6.353-4.864 8.938-7.84 5.503-6.318 9.049-14.022 10.24-22.236.349-2.389.391-3.095.391-6.334 0-3.24-.042-3.946-.391-6.335-2.364-16.335-13.99-30.059-29.757-35.144-2.781-.901-5.741-1.522-9.057-1.896-.817-.085-6.438-.179-7.144-.111Zm17.808 26.309c.408.204.74.595.859 1.004.068.221.085 4.948.068 15.603l-.025 15.288-2.696-4.132-2.705-4.133v-11.113c0-7.185.034-11.225.085-11.42.136-.476.434-.85.842-1.071.349-.179.477-.196 1.812-.196 1.259 0 1.48.017 1.76.17Z" fill="#000"/></g><defs><linearGradient id="a" x1="0" y1="400" x2="400" y2="0" gradientUnits="userSpaceOnUse"><stop offset=".13" stop-color="#27272A"/><stop offset=".995" stop-color="#D2D2D6"/></linearGradient><clipPath id="b"><path fill="#fff" transform="translate(151 138)" d="M0 0h87v87H0z"/></clipPath></defs></svg>