<svg xmlns="http://www.w3.org/2000/svg" width="400" height="400" fill="none" xmlns:v="https://vecta.io/nano"><path fill="url(#A)" d="M0 0h400v400H0z"/><path d="M88.007 285.21c.12 0 .22.03.3.09.08.04.14.15.18.33.06.18.1.46.12.84l.03 1.56-.03 1.65c-.02.4-.06.7-.12.9-.04.2-.1.32-.18.36s-.18.06-.3.06h-1.71c-.06 1.22-.29 2.29-.69 3.21-.38.92-.9 1.69-1.56 2.31a6.39 6.39 0 0 1-2.34 1.44c-.9.32-1.88.48-2.94.48h-4.47l-.33-5.79h5.13c.66 0 1.12-.13 1.38-.39.28-.26.42-.68.42-1.26h-.48c-1.24 0-2.26-.14-3.06-.42s-1.43-.67-1.89-1.17c-.44-.52-.75-1.15-.93-1.89-.16-.74-.24-1.56-.24-2.46 0-.86.13-1.68.39-2.46s.64-1.46 1.14-2.04c.52-.6 1.15-1.07 1.89-1.41.74-.36 1.58-.54 2.52-.54.82 0 1.6.12 2.34.36a4.99 4.99 0 0 1 1.95 1.17c.56.52 1 1.2 1.32 2.04.34.82.51 1.83.51 3.03h1.65zm-8.58-.51c0 .32.06.57.18.75s.39.27.81.27h.81v-.84c0-.76-.31-1.14-.93-1.14-.58 0-.87.32-.87.96zm9.719.51a.56.56 0 0 0 .36-.12.49.49 0 0 0 .15-.36v-4.47h5.46v4.47c0 .32.16.48.48.48h1.14c.12 0 .22.03.3.09.1.04.17.15.21.33.06.18.1.46.12.84l.03 1.56-.03 1.65c-.02.4-.06.7-.12.9-.04.2-.11.32-.21.36-.08.04-.18.06-.3.06h-.93a9.33 9.33 0 0 1-1.89-.18c-.56-.12-1.05-.39-1.47-.81-.48.42-.97.69-1.47.81-.48.12-.92.18-1.32.18h-1.65c-.12 0-.22-.02-.3-.06-.1-.04-.17-.15-.21-.33-.06-.2-.1-.49-.12-.87l-.03-1.56.03-1.65c.02-.4.06-.69.12-.87.04-.2.11-.32.21-.36.08-.06.18-.09.3-.09h1.14zm7.44 11.55h-8.58v-4.14h8.58v4.14zm1.29-11.55a.56.56 0 0 0 .36-.12.49.49 0 0 0 .15-.36v-4.47h5.28v4.47a.49.49 0 0 0 .15.36.56.56 0 0 0 .36.12c.12 0 .23-.04.33-.12a.49.49 0 0 0 .15-.36v-4.47h5.28v4.47a.49.49 0 0 0 .15.36.56.56 0 0 0 .36.12c.12 0 .23-.04.33-.12a.49.49 0 0 0 .15-.36v-4.47h5.28v4.47a.49.49 0 0 0 .15.36c.1.08.21.12.33.12h1.17c.12 0 .22.03.3.09.1.04.17.15.21.33.06.18.1.46.12.84l.03 1.56-.03 1.65c-.02.4-.06.7-.12.9-.04.2-.11.32-.21.36-.08.04-.18.06-.3.06h-.96c-.68 0-1.28-.06-1.8-.18-.5-.12-.96-.39-1.38-.81-.5.42-1.03.69-1.59.81-.54.12-1.1.18-1.68.18-.42 0-.92-.06-1.5-.18a2.75 2.75 0 0 1-1.47-.81c-.52.42-1.01.69-1.47.81-.44.12-.78.18-1.02.18h-.81c-.42 0-.92-.06-1.5-.18a2.91 2.91 0 0 1-1.5-.81c-.48.42-.95.69-1.41.81s-.81.18-1.05.18h-1.98c-.12 0-.22-.02-.3-.06-.1-.04-.17-.15-.21-.33-.06-.2-.1-.49-.12-.87l-.03-1.56.03-1.65c.02-.4.06-.69.12-.87.04-.2.11-.32.21-.36.08-.06.18-.09.3-.09h1.14zm21.813 0c.12 0 .23-.04.33-.12a.49.49 0 0 0 .15-.36v-4.47h5.43v4.95c0 .96-.14 1.8-.42 2.52-.26.72-.63 1.32-1.11 1.8s-1.06.85-1.74 1.11c-.66.24-1.38.36-2.16.36h-2.31c-.12 0-.22-.02-.3-.06-.1-.04-.17-.15-.21-.33-.06-.2-.1-.49-.12-.87l-.03-1.56.03-1.65c.02-.4.06-.69.12-.87.04-.2.11-.32.21-.36.08-.06.18-.09.3-.09h1.83zm5.94-6.6h-5.46v-4.11h5.46v4.11zm8.884 6.6c.12 0 .22.03.3.09.1.04.17.15.21.33.06.18.1.46.12.84l.03 1.56-.03 1.65c-.02.4-.06.7-.12.9-.04.2-.11.32-.21.36-.08.04-.18.06-.3.06h-1.47c-1.04 0-1.92-.15-2.64-.45-.7-.32-1.27-.74-1.71-1.26a4.86 4.86 0 0 1-.96-1.83c-.2-.72-.3-1.47-.3-2.25V272.7h5.46v12.03c0 .32.16.48.48.48h1.14zm1.42 0a.56.56 0 0 0 .36-.12.49.49 0 0 0 .15-.36v-4.47h5.46v4.47c0 .32.16.48.48.48h1.14c.12 0 .22.03.3.09.1.04.17.15.21.33.06.18.1.46.12.84l.03 1.56-.03 1.65c-.02.4-.06.7-.12.9-.04.2-.11.32-.21.36-.08.04-.18.06-.3.06h-.93a9.33 9.33 0 0 1-1.89-.18c-.56-.12-1.05-.39-1.47-.81-.48.42-.97.69-1.47.81-.48.12-.92.18-1.32.18h-1.65c-.12 0-.22-.02-.3-.06-.1-.04-.17-.15-.21-.33-.06-.2-.1-.49-.12-.87l-.03-1.56.03-1.65c.02-.4.06-.69.12-.87.04-.2.11-.32.21-.36.08-.06.18-.09.3-.09h1.14zm5.28 16.5h-4.29v-4.14h4.29v4.14zm2.16-4.95h-8.58v-4.14h8.58v4.14zm1.29-11.55a.56.56 0 0 0 .36-.12.49.49 0 0 0 .15-.36v-4.47h5.28v4.47a.49.49 0 0 0 .15.36.56.56 0 0 0 .36.12c.12 0 .23-.04.33-.12a.49.49 0 0 0 .15-.36v-4.47h5.28v4.47a.49.49 0 0 0 .15.36.56.56 0 0 0 .36.12c.12 0 .23-.04.33-.12a.49.49 0 0 0 .15-.36v-4.47h5.28v4.95c0 1-.16 1.86-.48 2.58s-.75 1.32-1.29 1.8a5.41 5.41 0 0 1-1.86 1.08c-.68.22-1.39.33-2.13.33-.42 0-.92-.06-1.5-.18a2.75 2.75 0 0 1-1.47-.81c-.52.42-1.01.69-1.47.81-.44.12-.78.18-1.02.18h-.81c-.42 0-.92-.06-1.5-.18a2.91 2.91 0 0 1-1.5-.81c-.48.42-.95.69-1.41.81s-.81.18-1.05.18h-1.98c-.12 0-.22-.02-.3-.06-.1-.04-.17-.15-.21-.33-.06-.2-.1-.49-.12-.87l-.03-1.56.03-1.65c.02-.4.06-.69.12-.87.04-.2.11-.32.21-.36.08-.06.18-.09.3-.09h1.14zm25.914 4.47c0 1.12-.19 2.18-.57 3.18s-.91 1.87-1.59 2.61a7.39 7.39 0 0 1-2.46 1.8c-.94.44-1.99.66-3.15.66h-3.3l-.51-5.76h3.15c1.08 0 1.84-.22 2.28-.66.46-.44.69-.99.69-1.65v-9.6h5.46v9.42zm10.568 1.32c-1.04 0-1.92-.15-2.64-.45-.7-.32-1.27-.74-1.71-1.26a4.86 4.86 0 0 1-.96-1.83c-.2-.72-.3-1.47-.3-2.25v-4.95h5.43v4.47a.49.49 0 0 0 .15.36.56.56 0 0 0 .36.12h7.59c.12 0 .23-.04.33-.12a.49.49 0 0 0 .15-.36v-4.47h5.43v4.95c0 .96-.14 1.8-.42 2.52-.26.72-.64 1.32-1.14 1.8-.48.48-1.05.85-1.71 1.11-.66.24-1.38.36-2.16.36h-8.4zm6.75 5.76h-5.46v-4.14h5.46v4.14zm21.303-6.42c0 1.32-.19 2.48-.57 3.48-.36 1.02-.88 1.87-1.56 2.55s-1.49 1.19-2.43 1.53c-.92.36-1.93.54-3.03.54h-4.47l-.33-5.79h5.13c.66 0 1.12-.13 1.38-.39.28-.26.42-.68.42-1.26h-.48c-1.24 0-2.26-.14-3.06-.42s-1.43-.67-1.89-1.17c-.44-.52-.75-1.15-.93-1.89-.16-.74-.24-1.56-.24-2.46 0-.86.13-1.68.39-2.46s.64-1.46 1.14-2.04c.52-.6 1.15-1.07 1.89-1.41.74-.36 1.58-.54 2.52-.54.82 0 1.6.12 2.34.36a4.99 4.99 0 0 1 1.95 1.17c.56.52 1 1.2 1.32 2.04.34.82.51 1.83.51 3.03v5.13zm-6.93-5.64c0 .32.06.57.18.75s.39.27.81.27h.81v-.84c0-.76-.31-1.14-.93-1.14-.58 0-.87.32-.87.96zm19.441 5.82l.51-5.31h11.55c.12 0 .22.03.3.09.08.04.15.15.21.33s.1.46.12.84l.03 1.56-.03 1.65c-.02.4-.06.7-.12.9s-.13.32-.21.36-.18.06-.3.06h-1.35c-.08.98-.33 1.87-.75 2.67a6.26 6.26 0 0 1-1.65 2.1c-.7.58-1.54 1.03-2.52 1.35s-2.08.48-3.3.48h-2.16c-1.24 0-2.35-.19-3.33-.57-.96-.38-1.78-.93-2.46-1.65-.68-.7-1.2-1.56-1.56-2.58s-.54-2.17-.54-3.45v-6.27h5.43v6.42c0 .76.22 1.34.66 1.74s1.15.6 2.13.6h2.67c.58 0 1.08-.06 1.5-.18.42-.1.63-.32.63-.66 0-.32-.16-.48-.48-.48h-4.98zm14.359-5.31h1.47c.5-.02 1.01-.07 1.53-.15l1.71-.39c.62-.18 1.3-.44 2.04-.78-.08-.24-.2-.4-.36-.48-.16-.1-.37-.15-.63-.15h-6.42l.48-5.46h7.44c.58 0 1.14.08 1.68.24.56.16 1.1.51 1.62 1.05.52.52 1.01 1.29 1.47 2.31.48 1.02.92 2.4 1.32 4.14l-6.09 3.48-1.83.96c-.56.24-1.13.44-1.71.6a15.2 15.2 0 0 1-1.8.33 21.99 21.99 0 0 1-2.1.09h-2.13c-.12 0-.22-.02-.3-.06-.1-.04-.17-.15-.21-.33-.06-.2-.1-.49-.12-.87l-.03-1.56.03-1.65c.02-.4.06-.69.12-.87.04-.2.11-.32.21-.36.08-.06.18-.09.3-.09h2.31zm14.998-12.51h5.46V291h-5.46v-18.3zm13.232 12.09c0 .28.16.42.48.42h1.14c.12 0 .22.03.3.09.1.04.17.15.21.33.06.18.1.46.12.84l.03 1.56-.03 1.65c-.02.4-.06.7-.12.9-.04.2-.11.32-.21.36-.08.04-.18.06-.3.06h-.48c-.48 0-.9-.03-1.26-.09-.12.98-.39 1.89-.81 2.73-.42.86-.96 1.6-1.62 2.22-.66.64-1.44 1.14-2.34 1.5-.88.38-1.84.57-2.88.57h-3.3l-.51-5.76h3.15c1.08 0 1.84-.22 2.28-.66.46-.44.69-.99.69-1.65v-9.6h5.46v4.53zm3.278.42V272.7h5.46v6.54c.88-.74 1.92-1.11 3.12-1.11.82 0 1.57.16 2.25.48a4.77 4.77 0 0 1 1.77 1.29c.5.56.89 1.23 1.17 2.01.28.76.42 1.59.42 2.49 0 .82-.13 1.63-.39 2.43a5.73 5.73 0 0 1-1.17 2.1c-.54.62-1.23 1.12-2.07 1.5-.82.38-1.81.57-2.97.57h-9.24c-.12 0-.22-.02-.3-.06-.1-.04-.17-.15-.21-.33-.06-.2-.1-.49-.12-.87l-.03-1.56.03-1.65c.02-.4.06-.69.12-.87.04-.2.11-.32.21-.36.08-.06.18-.09.3-.09h1.65zm7.92.18c.34 0 .59-.09.75-.27.16-.2.24-.42.24-.66 0-.22-.09-.42-.27-.6-.16-.2-.38-.3-.66-.3s-.64.16-1.08.48l-1.62 1.35h2.64zm11.221-.18c0-.98.2-1.9.6-2.76.4-.88 1.02-1.83 1.86-2.85l-1.26-1.32 3.84-3.78 3.72 3.66c.94 1.02 1.66 1.94 2.16 2.76.52.8.86 1.54 1.02 2.22.18.68.27 1.37.27 2.07a5.49 5.49 0 0 1-.48 2.31c-.32.7-.76 1.31-1.32 1.83-.54.52-1.2.93-1.98 1.23-.76.28-1.59.42-2.49.42s-1.72-.14-2.46-.42-1.37-.67-1.89-1.17c-.5-.5-.89-1.1-1.17-1.8-.28-.72-.42-1.52-.42-2.4zm7.08-.54c0-.56-.33-1.14-.99-1.74-.66.64-.99 1.22-.99 1.74 0 .58.33.87.99.87s.99-.29.99-.87zm12.717 5.01c0 1.12-.19 2.18-.57 3.18s-.91 1.87-1.59 2.61a7.39 7.39 0 0 1-2.46 1.8c-.94.44-1.99.66-3.15.66h-3.3l-.51-5.76h3.15c1.08 0 1.84-.22 2.28-.66.46-.44.69-.99.69-1.65v-9.6h5.46v9.42zm14.188.66c0 1.32-.19 2.48-.57 3.48-.36 1.02-.88 1.87-1.56 2.55s-1.49 1.19-2.43 1.53c-.92.36-1.93.54-3.03.54h-4.47l-.33-5.79h5.13c.66 0 1.12-.13 1.38-.39.28-.26.42-.68.42-1.26h-.48c-1.24 0-2.26-.14-3.06-.42s-1.43-.67-1.89-1.17c-.44-.52-.75-1.15-.93-1.89-.16-.74-.24-1.56-.24-2.46 0-.86.13-1.68.39-2.46s.64-1.46 1.14-2.04c.52-.6 1.15-1.07 1.89-1.41.74-.36 1.58-.54 2.52-.54.82 0 1.6.12 2.34.36a4.99 4.99 0 0 1 1.95 1.17c.56.52 1 1.2 1.32 2.04.34.82.51 1.83.51 3.03v5.13zm-6.93-5.64c0 .32.06.57.18.75s.39.27.81.27h.81v-.84c0-.76-.31-1.14-.93-1.14-.58 0-.87.32-.87.96zm11.21-5.58l4.11-3.96 5.28 6.45c.76.9 1.25 1.71 1.47 2.43.24.72.36 1.39.36 2.01a5.12 5.12 0 0 1-.36 1.92c-.22.6-.56 1.13-1.02 1.59-.46.44-1.05.79-1.77 1.05-.7.26-1.53.39-2.49.39h-7.92l-.48-5.79h6.93c.32 0 .48-.13.48-.39 0-.18-.11-.41-.33-.69l-4.26-5.01zM170.51 254.445V264h-2.91v-3.825h-2.91V264h-2.91v-9.555h2.91v3.81h2.91v-3.81h2.91zm9.107 2.13h-2.58V264h-2.895v-7.425h-2.55v-2.13h8.025v2.13zm12.026-2.13V264h-2.625v-4.665l-.825 1.59-.81 1.575c-.11.17-.255.31-.435.42-.18.1-.4.15-.66.15h-.27c-.53 0-.895-.19-1.095-.57l-1.635-3.21V264h-2.625v-9.555h1.98c.27 0 .485.025.645.075.17.04.3.16.39.36l2.46 4.845 2.475-4.845c.12-.22.25-.345.39-.375.15-.04.37-.06.66-.06h1.98zm8.164 7.41V264h-6.285v-9.555h2.91v7.41h3.375zm5.972.165h-2.025v-2.715h2.025v-1.995h2.625v1.995h2.025v2.715h-2.025V264h-2.625v-1.98zm16.375-5.19a1.29 1.29 0 0 1-.33.33.69.69 0 0 1-.435.105c-.21 0-.415-.065-.615-.195l-.735-.39c-.19-.09-.425-.135-.705-.135-.63 0-1.105.25-1.425.75-.32.49-.48 1.14-.48 1.95 0 .84.185 1.49.555 1.95s.84.69 1.41.69c.29 0 .53-.03.72-.09s.41-.175.66-.345c.09-.06.19-.115.3-.165a.77.77 0 0 1 .375-.09.76.76 0 0 1 .21.03c.08.02.175.075.285.165.11.08.25.2.42.36l.66.66c-.89 1.13-2.15 1.695-3.78 1.695-.75 0-1.42-.12-2.01-.36-.59-.25-1.09-.59-1.5-1.02-.4-.44-.705-.955-.915-1.545-.21-.6-.315-1.245-.315-1.935 0-.71.11-1.365.33-1.965.23-.6.555-1.12.975-1.56a4.31 4.31 0 0 1 1.515-1.02c.6-.25 1.27-.375 2.01-.375.76 0 1.435.14 2.025.42.59.27 1.095.615 1.515 1.035l-.72 1.05zm7.45-.195c-.15.28-.405.42-.765.42-.16 0-.305-.03-.435-.09l-.405-.195c-.13-.07-.27-.135-.42-.195s-.33-.09-.54-.09c-.52 0-.78.23-.78.69 0 .19.1.345.3.465s.45.235.75.345l.99.36c.35.12.675.285.975.495a2.58 2.58 0 0 1 .765.81c.2.32.3.725.3 1.215a3.12 3.12 0 0 1-.255 1.26c-.16.39-.395.735-.705 1.035-.31.29-.695.52-1.155.69-.45.17-.965.255-1.545.255a4.69 4.69 0 0 1-.975-.105c-.33-.07-.65-.17-.96-.3a6.68 6.68 0 0 1-.885-.45c-.28-.17-.525-.36-.735-.57l.705-1.125a.9.9 0 0 1 .315-.24c.15-.08.315-.12.495-.12.19 0 .36.04.51.12s.3.17.45.27l.495.255a1.54 1.54 0 0 0 .63.12c.26 0 .465-.065.615-.195s.225-.34.225-.63a.61.61 0 0 0-.3-.54c-.2-.13-.45-.245-.75-.345l-.975-.33c-.35-.12-.675-.285-.975-.495s-.55-.485-.75-.825-.3-.785-.3-1.335c0-.37.075-.73.225-1.08a2.78 2.78 0 0 1 .69-.945c.3-.28.665-.5 1.095-.66.44-.17.94-.255 1.5-.255a5 5 0 0 1 1.77.315c.57.21 1.05.5 1.44.87l-.63 1.125zm7.603 0c-.15.28-.405.42-.765.42-.16 0-.305-.03-.435-.09l-.405-.195c-.13-.07-.27-.135-.42-.195s-.33-.09-.54-.09c-.52 0-.78.23-.78.69 0 .19.1.345.3.465s.45.235.75.345l.99.36c.35.12.675.285.975.495a2.58 2.58 0 0 1 .765.81c.2.32.3.725.3 1.215a3.12 3.12 0 0 1-.255 1.26c-.16.39-.395.735-.705 1.035-.31.29-.695.52-1.155.69-.45.17-.965.255-1.545.255a4.69 4.69 0 0 1-.975-.105c-.33-.07-.65-.17-.96-.3a6.68 6.68 0 0 1-.885-.45c-.28-.17-.525-.36-.735-.57l.705-1.125a.9.9 0 0 1 .315-.24c.15-.08.315-.12.495-.12.19 0 .36.04.51.12s.3.17.45.27l.495.255a1.54 1.54 0 0 0 .63.12c.26 0 .465-.065.615-.195s.225-.34.225-.63a.61.61 0 0 0-.3-.54c-.2-.13-.45-.245-.75-.345l-.975-.33c-.35-.12-.675-.285-.975-.495s-.55-.485-.75-.825-.3-.785-.3-1.335c0-.37.075-.73.225-1.08a2.78 2.78 0 0 1 .69-.945c.3-.28.665-.5 1.095-.66.44-.17.94-.255 1.5-.255a5 5 0 0 1 1.77.315c.57.21 1.05.5 1.44.87l-.63 1.125z" fill="#ef4444"/><path fill-rule="evenodd" d="M204.882 102.16c18.808 1.545 30.131 19.254 44.198 31.844 15.54 13.907 39.162 23.438 40.813 44.236 1.689 21.277-16.879 38.116-33.184 51.872-14.702 12.405-32.602 19.422-51.827 19.854-19.73.443-40.435-3.326-54.209-17.471-13.645-14.013-16.022-34.692-15.635-54.255.378-19.084 4.84-38.088 17.744-52.144 13.44-14.64 32.301-25.561 52.1-23.936z" fill="#fecaca"/><path d="M233.667 147.334h-65.333c-4.492 0-8.126 3.675-8.126 8.167l-.041 49c0 4.491 3.675 8.166 8.167 8.166h65.333c4.492 0 8.167-3.675 8.167-8.166v-49c0-4.492-3.675-8.167-8.167-8.167zm-65.333 20.417h42.875v14.291h-42.875v-14.291zm0 22.458h42.875v14.292h-42.875v-14.292zm65.333 14.292h-14.292v-36.75h14.292v36.75z" fill="#ef4444"/><defs><linearGradient id="A" x1="0" y1="400" x2="400" y2="0" gradientUnits="userSpaceOnUse"><stop offset=".09" stop-color="#fecaca"/><stop offset=".858" stop-color="#fef2f2"/></linearGradient></defs></svg>