<svg xmlns="http://www.w3.org/2000/svg" width="400" height="400" fill="none" xmlns:v="https://vecta.io/nano"><path fill="url(#A)" d="M0 0h400v400H0z"/><path d="M224.758 290.67a.49.49 0 0 0-.15-.36c-.1-.1-.21-.15-.33-.15h-5.79v-6.09c0-.9.14-1.72.42-2.46.28-.76.67-1.41 1.17-1.95.52-.54 1.15-.96 1.89-1.26s1.56-.45 2.46-.45h4.77l.33 5.61h-5.1a.49.49 0 0 0-.36.15.56.56 0 0 0-.12.36v.48h.99c.98 0 1.8.13 2.46.39.68.26 1.22.62 1.62 1.08.42.44.72.98.9 1.62.18.62.27 1.3.27 2.04a7.55 7.55 0 0 1-.63 3.06c-.4.96-.97 1.8-1.71 2.52s-1.63 1.29-2.67 1.71c-1.02.42-2.15.63-3.39.63h-2.16c-1.24 0-2.35-.19-3.33-.57-.96-.38-1.78-.93-2.46-1.65-.68-.7-1.2-1.56-1.56-2.58s-.54-2.17-.54-3.45v-6.27h5.43v6.42c0 .76.22 1.34.66 1.74s1.15.6 2.13.6h2.16c1 0 1.69-.11 2.07-.33s.57-.5.57-.84zm7.257-17.97h5.46V291h-5.46v-18.3zm22.632 12.03a.49.49 0 0 0 .15.36.56.56 0 0 0 .36.12h1.14c.12 0 .22.03.3.09.1.04.17.15.21.33.06.18.1.46.12.84l.03 1.56-.03 1.65c-.02.4-.06.7-.12.9-.04.2-.11.32-.21.36-.08.04-.18.06-.3.06h-1.32a5.54 5.54 0 0 1-2.13-.42c-.66-.3-1.16-.87-1.5-1.71-.5.4-1.02.67-1.56.81-.52.12-1.15.18-1.89.18-.78 0-1.5-.11-2.16-.33-.64-.24-1.2-.6-1.68-1.08-.46-.5-.82-1.12-1.08-1.86-.24-.76-.36-1.66-.36-2.7 0-.78.13-1.55.39-2.31a7.15 7.15 0 0 1 1.14-2.07 6.12 6.12 0 0 1 1.8-1.47c.72-.38 1.53-.57 2.43-.57h.84v-1.83h5.43v9.09zm-6.93-.99c0 .34.07.56.21.66.16.1.37.15.63.15.34 0 .58-.07.72-.21.16-.16.24-.36.24-.6v-.99h-.81c-.66 0-.99.33-.99.99zm10.572 1.47c-.12-.34-.21-.67-.27-.99-.04-.32-.06-.64-.06-.96 0-.66.12-1.33.36-2.01.26-.7.64-1.32 1.14-1.86.5-.56 1.13-1.02 1.89-1.38.78-.36 1.68-.54 2.7-.54.86 0 1.66.12 2.4.36a4.66 4.66 0 0 1 1.89 1.14c.52.52.93 1.2 1.23 2.04s.45 1.86.45 3.06v1.14c0 .84-.14 1.61-.42 2.31-.26.7-.67 1.31-1.23 1.83s-1.27.93-2.13 1.23c-.84.28-1.84.42-3 .42h-6.93c-.12 0-.22-.02-.3-.06-.1-.04-.17-.15-.21-.33-.06-.2-.1-.49-.12-.87l-.03-1.56.03-1.65c.02-.4.06-.69.12-.87.04-.2.11-.32.21-.36.08-.06.18-.09.3-.09h1.98zm6.42.18c.1-.16.15-.36.15-.6l.03-.72c0-.34-.07-.64-.21-.9-.12-.28-.38-.42-.78-.42-.24 0-.44.08-.6.24-.14.14-.21.33-.21.57s.08.52.24.84c.18.32.64.65 1.38.99zm2.01-9.57h-5.46v-4.11h5.46v4.11zm10.901 8.97c0 .28.16.42.48.42h1.14c.12 0 .22.03.3.09.1.04.17.15.21.33.06.18.1.46.12.84l.03 1.56-.03 1.65c-.02.4-.06.7-.12.9-.04.2-.11.32-.21.36-.08.04-.18.06-.3.06h-.48c-.48 0-.9-.03-1.26-.09-.12.98-.39 1.89-.81 2.73-.42.86-.96 1.6-1.62 2.22-.66.64-1.44 1.14-2.34 1.5-.88.38-1.84.57-2.88.57h-3.3l-.51-5.76h3.15c1.08 0 1.84-.22 2.28-.66.46-.44.69-.99.69-1.65v-9.6h5.46v4.53zm3.938.42h1.47c.5-.02 1.01-.07 1.53-.15l1.71-.39c.62-.18 1.3-.44 2.04-.78-.08-.24-.2-.4-.36-.48-.16-.1-.37-.15-.63-.15h-6.42l.48-5.46h7.44c.58 0 1.14.08 1.68.24.56.16 1.1.51 1.62 1.05.52.52 1.01 1.29 1.47 2.31.48 1.02.92 2.4 1.32 4.14l-6.09 3.48-1.83.96c-.56.24-1.13.44-1.71.6a15.2 15.2 0 0 1-1.8.33 21.99 21.99 0 0 1-2.1.09h-2.13c-.12 0-.22-.02-.3-.06-.1-.04-.17-.15-.21-.33-.06-.2-.1-.49-.12-.87l-.03-1.56.03-1.65c.02-.4.06-.69.12-.87.04-.2.11-.32.21-.36.08-.06.18-.09.3-.09h2.31zm18.159 0c0-.98.2-1.9.6-2.76.4-.88 1.02-1.83 1.86-2.85l-1.26-1.32 3.84-3.78 3.72 3.66c.94 1.02 1.66 1.94 2.16 2.76.52.8.86 1.54 1.02 2.22.18.68.27 1.37.27 2.07a5.49 5.49 0 0 1-.48 2.31c-.32.7-.76 1.31-1.32 1.83-.54.52-1.2.93-1.98 1.23-.76.28-1.59.42-2.49.42s-1.72-.14-2.46-.42-1.37-.67-1.89-1.17c-.5-.5-.89-1.1-1.17-1.8-.28-.72-.42-1.52-.42-2.4zm7.08-.54c0-.56-.33-1.14-.99-1.74-.66.64-.99 1.22-.99 1.74 0 .58.33.87.99.87s.99-.29.99-.87zm12.717 5.01c0 1.12-.19 2.18-.57 3.18s-.91 1.87-1.59 2.61a7.39 7.39 0 0 1-2.46 1.8c-.94.44-1.99.66-3.15.66h-3.3l-.51-5.76h3.15c1.08 0 1.84-.22 2.28-.66.46-.44.69-.99.69-1.65v-9.6h5.46v9.42zm14.188.66c0 1.32-.19 2.48-.57 3.48-.36 1.02-.88 1.87-1.56 2.55s-1.49 1.19-2.43 1.53c-.92.36-1.93.54-3.03.54h-4.47l-.33-5.79h5.13c.66 0 1.12-.13 1.38-.39.28-.26.42-.68.42-1.26h-.48c-1.24 0-2.26-.14-3.06-.42s-1.43-.67-1.89-1.17c-.44-.52-.75-1.15-.93-1.89-.16-.74-.24-1.56-.24-2.46 0-.86.13-1.68.39-2.46s.64-1.46 1.14-2.04c.52-.6 1.15-1.07 1.89-1.41.74-.36 1.58-.54 2.52-.54.82 0 1.6.12 2.34.36a4.99 4.99 0 0 1 1.95 1.17c.56.52 1 1.2 1.32 2.04.34.82.51 1.83.51 3.03v5.13zm-6.93-5.64c0 .32.06.57.18.75s.39.27.81.27h.81v-.84c0-.76-.31-1.14-.93-1.14-.58 0-.87.32-.87.96zm11.21-5.58l4.11-3.96 5.28 6.45c.76.9 1.25 1.71 1.47 2.43.24.72.36 1.39.36 2.01a5.12 5.12 0 0 1-.36 1.92c-.22.6-.56 1.13-1.02 1.59-.46.44-1.05.79-1.77 1.05-.7.26-1.53.39-2.49.39h-7.92l-.48-5.79h6.93c.32 0 .48-.13.48-.39 0-.18-.11-.41-.33-.69l-4.26-5.01z" fill="#64748b"/><path fill-rule="evenodd" d="M204.882 102.16c18.808 1.545 30.131 19.254 44.198 31.844 15.54 13.907 39.162 23.438 40.813 44.236 1.689 21.277-16.879 38.116-33.184 51.872-14.702 12.405-32.602 19.422-51.827 19.854-19.73.443-40.435-3.326-54.209-17.471-13.645-14.013-16.022-34.692-15.635-54.255.378-19.084 4.84-38.088 17.744-52.144 13.44-14.64 32.301-25.561 52.1-23.936z" fill="#e2e8f0"/><path d="M63.574 279.15h-5.16V294h-5.79v-14.85h-5.1v-4.26h16.05v4.26zm8.091 9.66c-.94.1-1.55.26-1.83.48-.26.2-.39.43-.39.69 0 .52.2.78.6.78.32 0 .59-.06.81-.18.24-.12.51-.33.81-.63v-1.14zm-6.96-6.42c.92-.84 1.92-1.45 3-1.83 1.1-.4 2.25-.6 3.45-.6.9 0 1.71.14 2.43.42.74.26 1.36.64 1.86 1.14a4.5 4.5 0 0 1 1.17 1.77c.28.68.42 1.43.42 2.25V294h-2.58c-.52 0-.93-.05-1.23-.15-.28-.12-.5-.36-.66-.72a7.43 7.43 0 0 1-1.65.81c-.56.18-1.25.27-2.07.27-1.44 0-2.58-.34-3.42-1.02s-1.26-1.68-1.26-3c0-.48.12-.97.36-1.47.24-.52.64-.99 1.2-1.41.58-.44 1.35-.81 2.31-1.11.98-.32 2.19-.52 3.63-.6v-.06c0-.6-.08-1.03-.24-1.29-.16-.28-.41-.42-.75-.42-.38 0-.7.05-.96.15-.24.1-.49.22-.75.36l-.66.3c-.22.08-.54.12-.96.12-.46 0-.84-.08-1.14-.24s-.51-.37-.63-.63l-.87-1.5zm19.998-1.65V294h-5.4v-13.26h5.4zm.33-3.78a2.44 2.44 0 0 1-.24 1.05c-.16.32-.38.6-.66.84a3.27 3.27 0 0 1-.96.6c-.38.14-.78.21-1.2.21a3.2 3.2 0 0 1-1.17-.21c-.36-.16-.68-.36-.96-.6-.26-.24-.47-.52-.63-.84-.14-.34-.21-.69-.21-1.05a2.59 2.59 0 0 1 .21-1.05 2.78 2.78 0 0 1 .63-.87 2.99 2.99 0 0 1 .96-.6 3.2 3.2 0 0 1 1.17-.21c.42 0 .82.07 1.2.21s.7.34.96.6c.28.24.5.53.66.87.16.32.24.67.24 1.05zm7.197-2.43V294h-5.34v-19.47h5.34zm22.923 5.64l-4.35 13.83h-3.75c-.34 0-.64-.07-.9-.21-.24-.16-.41-.42-.51-.78l-1.53-5.31-1.53 5.28c-.22.68-.77 1.02-1.65 1.02h-3.601l-4.26-13.83h4.02c.42 0 .8.09 1.14.27.36.18.58.44.66.78l1.201 5.28 1.47-5.31c.06-.32.25-.57.569-.75.341-.18.741-.27 1.201-.27h1.71c.46 0 .85.1 1.17.3.34.18.54.42.6.72l1.41 5.28 1.29-5.22c.08-.34.28-.6.6-.78.34-.2.74-.3 1.2-.3h3.84zm6.846.57V294h-5.4v-13.26h5.4zm.33-3.78a2.44 2.44 0 0 1-.24 1.05c-.16.32-.38.6-.66.84a3.27 3.27 0 0 1-.96.6c-.38.14-.78.21-1.2.21a3.2 3.2 0 0 1-1.17-.21c-.36-.16-.68-.36-.96-.6-.26-.24-.47-.52-.63-.84-.14-.34-.21-.69-.21-1.05a2.59 2.59 0 0 1 .21-1.05 2.78 2.78 0 0 1 .63-.87 2.99 2.99 0 0 1 .96-.6 3.2 3.2 0 0 1 1.17-.21c.42 0 .82.07 1.2.21s.7.34.96.6c.28.24.5.53.66.87.16.32.24.67.24 1.05zm5.096 3.24c.36 0 .68.07.96.21.28.12.49.3.63.54a5.9 5.9 0 0 1 1.44-.66c.52-.18 1.14-.27 1.86-.27 1.68 0 2.96.5 3.84 1.5s1.32 2.28 1.32 3.84V294h-5.4v-8.64c0-.48-.08-.85-.24-1.11-.14-.28-.37-.42-.69-.42-.52 0-1.01.2-1.47.6V294h-5.4v-13.8h3.15zm20.324 4.05c-.24-.22-.45-.36-.63-.42s-.39-.09-.63-.09c-.46 0-.86.25-1.2.75-.32.5-.48 1.38-.48 2.64 0 1.2.11 2.03.33 2.49.24.46.55.69.93.69a1.73 1.73 0 0 0 .87-.24c.3-.18.57-.38.81-.6v-5.22zm5.46-9.72V294h-3.21c-.92 0-1.48-.29-1.68-.87-.46.32-.98.58-1.56.78s-1.25.3-2.01.3a5.08 5.08 0 0 1-2.19-.48c-.66-.32-1.23-.78-1.71-1.38-.48-.62-.86-1.36-1.14-2.22-.28-.88-.42-1.88-.42-3 0-1.02.15-1.97.45-2.85s.73-1.64 1.29-2.28 1.22-1.14 1.98-1.5c.78-.36 1.64-.54 2.58-.54.44 0 .83.04 1.17.12.36.06.69.15.99.27l.03-3 .03-2.82h5.4zm17.441 5.13c-.2.28-.42.5-.66.66s-.53.23-.87.21c-.42 0-.83-.13-1.23-.39l-1.47-.78c-.38-.18-.85-.27-1.41-.27-1.26 0-2.21.5-2.85 1.5-.64.98-.96 2.28-.96 3.9 0 1.68.37 2.98 1.11 3.9s1.68 1.38 2.82 1.38c.58 0 1.06-.06 1.44-.18s.82-.35 1.32-.69a4.25 4.25 0 0 1 .6-.33 1.54 1.54 0 0 1 .75-.18c.14 0 .28.02.42.06.16.04.35.15.57.33.22.16.5.4.84.72l1.32 1.32c-1.78 2.26-4.3 3.39-7.56 3.39-1.5 0-2.84-.24-4.02-.72-1.18-.5-2.18-1.18-3-2.04-.8-.88-1.41-1.91-1.83-3.09-.42-1.2-.63-2.49-.63-3.87 0-1.42.22-2.73.66-3.93.46-1.2 1.11-2.24 1.95-3.12s1.85-1.56 3.03-2.04c1.2-.5 2.54-.75 4.02-.75 1.52 0 2.87.28 4.05.84 1.18.54 2.19 1.23 3.03 2.07l-1.44 2.1zm14.9-.39c-.3.56-.81.84-1.53.84-.32 0-.61-.06-.87-.18l-.81-.39c-.26-.14-.54-.27-.84-.39s-.66-.18-1.08-.18c-1.04 0-1.56.46-1.56 1.38 0 .38.2.69.6.93s.9.47 1.5.69l1.98.72c.7.24 1.35.57 1.95.99.62.42 1.13.96 1.53 1.62.4.64.6 1.45.6 2.43 0 .9-.17 1.74-.51 2.52a6.05 6.05 0 0 1-1.41 2.07c-.62.58-1.39 1.04-2.31 1.38-.9.34-1.93.51-3.09.51a9.38 9.38 0 0 1-1.95-.21 10.69 10.69 0 0 1-1.92-.6 13.36 13.36 0 0 1-1.77-.9c-.56-.34-1.05-.72-1.47-1.14l1.41-2.25c.14-.18.35-.34.63-.48a2.07 2.07 0 0 1 .99-.24c.38 0 .72.08 1.02.24a10.71 10.71 0 0 1 .9.54l.99.51c.36.16.78.24 1.26.24.52 0 .93-.13 1.23-.39s.45-.68.45-1.26a1.22 1.22 0 0 0-.6-1.08c-.4-.26-.9-.49-1.5-.69l-1.95-.66c-.7-.24-1.35-.57-1.95-.99s-1.1-.97-1.5-1.65-.6-1.57-.6-2.67c0-.74.15-1.46.45-2.16.32-.72.78-1.35 1.38-1.89.6-.56 1.33-1 2.19-1.32.88-.34 1.88-.51 3-.51 1.24 0 2.42.21 3.54.63 1.14.42 2.1 1 2.88 1.74l-1.26 2.25zm15.205 0c-.3.56-.81.84-1.53.84-.32 0-.61-.06-.87-.18l-.81-.39c-.26-.14-.54-.27-.84-.39s-.66-.18-1.08-.18c-1.04 0-1.56.46-1.56 1.38 0 .38.2.69.6.93s.9.47 1.5.69l1.98.72c.7.24 1.35.57 1.95.99.62.42 1.13.96 1.53 1.62.4.64.6 1.45.6 2.43 0 .9-.17 1.74-.51 2.52a6.05 6.05 0 0 1-1.41 2.07c-.62.58-1.39 1.04-2.31 1.38-.9.34-1.93.51-3.09.51a9.38 9.38 0 0 1-1.95-.21 10.69 10.69 0 0 1-1.92-.6 13.36 13.36 0 0 1-1.77-.9c-.56-.34-1.05-.72-1.47-1.14l1.41-2.25c.14-.18.35-.34.63-.48a2.07 2.07 0 0 1 .99-.24c.38 0 .72.08 1.02.24a10.71 10.71 0 0 1 .9.54l.99.51c.36.16.78.24 1.26.24.52 0 .93-.13 1.23-.39s.45-.68.45-1.26a1.22 1.22 0 0 0-.6-1.08c-.4-.26-.9-.49-1.5-.69l-1.95-.66c-.7-.24-1.35-.57-1.95-.99s-1.1-.97-1.5-1.65-.6-1.57-.6-2.67c0-.74.15-1.46.45-2.16.32-.72.78-1.35 1.38-1.89.6-.56 1.33-1 2.19-1.32.88-.34 1.88-.51 3-.51 1.24 0 2.42.21 3.54.63 1.14.42 2.1 1 2.88 1.74l-1.26 2.25zm-23.317-110.52c3.791-15.167 13.27-22.75 28.437-22.75 22.75 0 25.594 17.062 36.969 19.906 7.583 1.896 14.219-.948 19.906-8.531-3.792 15.167-13.271 22.75-28.438 22.75-22.749 0-25.593-17.063-36.968-19.906-7.584-1.896-14.219.948-19.906 8.531zM149 202.875c3.792-15.167 13.271-22.75 28.438-22.75 22.749 0 25.593 17.062 36.968 19.906 7.584 1.896 14.219-.948 19.906-8.531-3.791 15.167-13.27 22.75-28.437 22.75-22.75 0-25.594-17.063-36.969-19.906-7.583-1.896-14.219.948-19.906 8.531z" fill="#64748b"/><defs><linearGradient id="A" x1="0" y1="400" x2="400" y2="0" gradientUnits="userSpaceOnUse"><stop offset=".09" stop-color="#e2e8f0"/><stop offset=".858" stop-color="#f8fafc"/></linearGradient></defs></svg>