<svg xmlns="http://www.w3.org/2000/svg" width="400" height="400" fill="none" xmlns:v="https://vecta.io/nano"><path fill="url(#A)" d="M0 0h400v400H0z"/><path d="M199.06 291.626c0-.159-.057-.295-.17-.408s-.238-.17-.374-.17h-6.562v-6.902c0-1.02.158-1.949.476-2.788.317-.861.759-1.598 1.326-2.21.589-.612 1.303-1.088 2.142-1.428s1.768-.51 2.788-.51h5.406l.374 6.358h-5.78c-.159 0-.295.057-.408.17a.63.63 0 0 0-.136.408v.544h1.122c1.11 0 2.04.147 2.788.442.77.295 1.382.703 1.836 1.224.476.499.816 1.111 1.02 1.836.204.703.306 1.473.306 2.312 0 1.224-.238 2.38-.714 3.468a8.53 8.53 0 0 1-1.938 2.856c-.839.816-1.848 1.462-3.026 1.938-1.156.476-2.437.714-3.842.714h-2.448c-1.406 0-2.664-.215-3.774-.646-1.088-.431-2.018-1.054-2.788-1.87-.771-.793-1.36-1.768-1.768-2.924s-.612-2.459-.612-3.91v-7.106h6.154v7.276c0 .861.249 1.519.748 1.972s1.303.68 2.414.68h2.448c1.133 0 1.915-.125 2.346-.374s.646-.567.646-.952zm8.224-20.366h6.188V292h-6.188v-20.74zm25.65 13.634a.55.55 0 0 0 .17.408.63.63 0 0 0 .408.136h1.292a.55.55 0 0 1 .34.102c.113.045.192.17.238.374.068.204.113.521.136.952l.034 1.768-.034 1.87c-.023.453-.068.793-.136 1.02-.046.227-.125.363-.238.408-.091.045-.204.068-.34.068h-1.496a6.28 6.28 0 0 1-2.414-.476c-.748-.34-1.315-.986-1.7-1.938-.567.453-1.156.759-1.768.918-.59.136-1.304.204-2.142.204-.884 0-1.7-.125-2.448-.374a5.28 5.28 0 0 1-1.904-1.224c-.522-.567-.93-1.269-1.224-2.108-.272-.861-.408-1.881-.408-3.06 0-.884.147-1.757.442-2.618.317-.884.748-1.666 1.292-2.346.566-.68 1.246-1.235 2.04-1.666.816-.431 1.734-.646 2.754-.646h.952v-2.074h6.154v10.302zm-7.854-1.122c0 .385.079.635.238.748.181.113.419.17.714.17.385 0 .657-.079.816-.238.181-.181.272-.408.272-.68v-1.122h-.918c-.748 0-1.122.374-1.122 1.122zm11.98 1.666c-.136-.385-.238-.759-.306-1.122a8.83 8.83 0 0 1-.068-1.088c0-.748.136-1.507.408-2.278a6.32 6.32 0 0 1 1.292-2.108c.567-.635 1.281-1.156 2.142-1.564.884-.408 1.904-.612 3.06-.612.975 0 1.882.136 2.72.408a5.28 5.28 0 0 1 2.142 1.292c.59.589 1.054 1.36 1.394 2.312s.51 2.108.51 3.468v1.292c0 .952-.158 1.825-.476 2.618a5.32 5.32 0 0 1-1.394 2.074c-.634.589-1.439 1.054-2.414 1.394-.952.317-2.085.476-3.4.476h-7.854c-.136 0-.249-.023-.34-.068-.113-.045-.192-.17-.238-.374-.068-.227-.113-.555-.136-.986l-.034-1.768.034-1.87c.023-.453.068-.782.136-.986.046-.227.125-.363.238-.408a.55.55 0 0 1 .34-.102h2.244zm7.276.204c.114-.181.17-.408.17-.68l.034-.816c0-.385-.079-.725-.238-1.02-.136-.317-.43-.476-.884-.476-.272 0-.498.091-.68.272-.158.159-.238.374-.238.646s.091.589.272.952c.204.363.726.737 1.564 1.122zm2.278-10.846h-6.188v-4.658h6.188v4.658zm12.355 10.166c0 .317.181.476.544.476h1.292a.55.55 0 0 1 .34.102c.113.045.193.17.238.374.068.204.113.521.136.952l.034 1.768-.034 1.87c-.023.453-.068.793-.136 1.02-.045.227-.125.363-.238.408-.091.045-.204.068-.34.068h-.544c-.544 0-1.02-.034-1.428-.102-.136 1.111-.442 2.142-.918 3.094-.476.975-1.088 1.813-1.836 2.516-.748.725-1.632 1.292-2.652 1.7-.997.431-2.085.646-3.264.646h-3.74l-.578-6.528h3.57c1.224 0 2.085-.249 2.584-.748a2.48 2.48 0 0 0 .782-1.87v-10.88h6.188v5.134zm4.463.476h1.666a15.45 15.45 0 0 0 1.734-.17l1.938-.442c.703-.204 1.474-.499 2.312-.884-.09-.272-.226-.453-.408-.544-.181-.113-.419-.17-.714-.17h-7.276l.544-6.188h8.432c.658 0 1.292.091 1.904.272.635.181 1.247.578 1.836 1.19.59.589 1.145 1.462 1.666 2.618.544 1.156 1.043 2.72 1.496 4.692l-6.902 3.944-2.074 1.088c-.634.272-1.28.499-1.938.68a17.18 17.18 0 0 1-2.04.374c-.702.068-1.496.102-2.38.102h-2.414c-.136 0-.249-.023-.34-.068-.113-.045-.192-.17-.238-.374-.068-.227-.113-.555-.136-.986l-.034-1.768.034-1.87c.023-.453.068-.782.136-.986.046-.227.125-.363.238-.408a.55.55 0 0 1 .34-.102h2.618zm20.581 0c0-1.111.226-2.153.68-3.128.453-.997 1.156-2.074 2.108-3.23l-1.428-1.496 4.352-4.284 4.216 4.148c1.065 1.156 1.881 2.199 2.448 3.128.589.907.974 1.745 1.156 2.516.204.771.306 1.553.306 2.346 0 .952-.182 1.825-.544 2.618a6.49 6.49 0 0 1-1.496 2.074c-.612.589-1.36 1.054-2.244 1.394-.862.317-1.802.476-2.822.476s-1.95-.159-2.788-.476-1.553-.759-2.142-1.326a5.99 5.99 0 0 1-1.326-2.04c-.318-.816-.476-1.723-.476-2.72zm8.024-.612c0-.635-.374-1.292-1.122-1.972-.748.725-1.122 1.383-1.122 1.972 0 .657.374.986 1.122.986s1.122-.329 1.122-.986zm14.413 5.678c0 1.269-.216 2.471-.646 3.604s-1.032 2.119-1.802 2.958c-.771.861-1.7 1.541-2.788 2.04-1.066.499-2.256.748-3.57.748h-3.74l-.578-6.528h3.57c1.224 0 2.085-.249 2.584-.748a2.48 2.48 0 0 0 .782-1.87v-10.88h6.188v10.676zm16.079.748c0 1.496-.215 2.811-.646 3.944-.408 1.156-.997 2.119-1.768 2.89s-1.688 1.349-2.754 1.734c-1.042.408-2.187.612-3.434.612h-5.066l-.374-6.562h5.814c.748 0 1.27-.147 1.564-.442.318-.295.476-.771.476-1.428h-.544c-1.405 0-2.561-.159-3.468-.476s-1.62-.759-2.142-1.326c-.498-.589-.85-1.303-1.054-2.142-.181-.839-.272-1.768-.272-2.788 0-.975.148-1.904.442-2.788s.726-1.655 1.292-2.312a6.26 6.26 0 0 1 2.142-1.598c.839-.408 1.791-.612 2.856-.612.93 0 1.814.136 2.652.408a5.65 5.65 0 0 1 2.21 1.326c.635.589 1.134 1.36 1.496 2.312.386.929.578 2.074.578 3.434v5.814zm-7.854-6.392c0 .363.068.646.204.85s.442.306.918.306h.918v-.952c0-.861-.351-1.292-1.054-1.292-.657 0-.986.363-.986 1.088zm12.705-6.324l4.658-4.488 5.984 7.31c.861 1.02 1.416 1.938 1.666 2.754.272.816.408 1.575.408 2.278 0 .771-.136 1.496-.408 2.176-.25.68-.635 1.281-1.156 1.802-.522.499-1.19.895-2.006 1.19-.794.295-1.734.442-2.822.442h-8.976l-.544-6.562h7.854c.362 0 .544-.147.544-.442 0-.204-.125-.465-.374-.782l-4.828-5.678z" fill="#84cc16"/><path fill-rule="evenodd" d="M197.882 91.16c18.808 1.545 30.131 19.254 44.198 31.844 15.54 13.907 39.162 23.438 40.813 44.236 1.689 21.277-16.879 38.116-33.184 51.872-14.702 12.405-32.602 19.422-51.827 19.854-19.73.443-40.435-3.326-54.209-17.471-13.645-14.013-16.022-34.692-15.635-54.255.378-19.084 4.84-38.088 17.744-52.144 13.44-14.64 32.301-25.561 52.1-23.936z" fill="#d9f99d"/><path d="M82.125 273.342L73.489 295h-5.746l-8.67-21.658h4.964c.657 0 1.19.147 1.598.442.408.272.703.657.884 1.156l4.114 11.322 4.148-11.594c.113-.317.374-.612.782-.884.408-.295.941-.442 1.598-.442h4.964zm14.466 4.964c-.34.635-.918.952-1.734.952-.363 0-.691-.068-.986-.204l-.918-.442a9.19 9.19 0 0 0-.952-.442c-.34-.136-.748-.204-1.224-.204-1.179 0-1.768.521-1.768 1.564 0 .431.227.782.68 1.054s1.02.533 1.7.782l2.244.816c.793.272 1.53.646 2.21 1.122.703.476 1.281 1.088 1.734 1.836.453.725.68 1.643.68 2.754 0 1.02-.193 1.972-.578 2.856-.363.884-.895 1.666-1.598 2.346-.703.657-1.575 1.179-2.618 1.564-1.02.385-2.187.578-3.502.578-.725 0-1.462-.079-2.21-.238s-1.473-.385-2.176-.68a15.23 15.23 0 0 1-2.006-1.02c-.635-.385-1.19-.816-1.666-1.292l1.598-2.55c.159-.204.397-.385.714-.544a2.35 2.35 0 0 1 1.122-.272c.431 0 .816.091 1.156.272a11.96 11.96 0 0 1 1.02.612l1.122.578c.408.181.884.272 1.428.272.589 0 1.054-.147 1.394-.442s.51-.771.51-1.428c0-.521-.227-.929-.68-1.224s-1.02-.555-1.7-.782l-2.21-.748c-.793-.272-1.53-.646-2.21-1.122s-1.247-1.099-1.7-1.87-.68-1.779-.68-3.026c0-.839.17-1.655.51-2.448.363-.816.884-1.53 1.564-2.142.68-.635 1.507-1.133 2.482-1.496.997-.385 2.131-.578 3.4-.578a11.33 11.33 0 0 1 4.012.714c1.292.476 2.38 1.133 3.264 1.972l-1.428 2.55zm24.419.442c-.227.317-.476.567-.748.748s-.601.261-.986.238c-.476 0-.941-.147-1.394-.442l-1.666-.884c-.431-.204-.964-.306-1.598-.306-1.428 0-2.505.567-3.23 1.7-.726 1.111-1.088 2.584-1.088 4.42 0 1.904.419 3.377 1.258 4.42s1.904 1.564 3.196 1.564c.657 0 1.201-.068 1.632-.204s.929-.397 1.496-.782a4.75 4.75 0 0 1 .68-.374c.249-.136.532-.204.85-.204.158 0 .317.023.476.068.181.045.396.17.646.374a10.51 10.51 0 0 1 .952.816l1.496 1.496c-2.018 2.561-4.874 3.842-8.568 3.842-1.7 0-3.219-.272-4.556-.816-1.338-.567-2.471-1.337-3.4-2.312-.907-.997-1.598-2.165-2.074-3.502-.476-1.36-.714-2.822-.714-4.386 0-1.609.249-3.094.748-4.454.521-1.36 1.258-2.539 2.21-3.536s2.096-1.768 3.434-2.312c1.36-.567 2.878-.85 4.556-.85 1.722 0 3.252.317 4.59.952 1.337.612 2.482 1.394 3.434 2.346l-1.632 2.38zm10.97.408c1.247 0 2.38.193 3.4.578 1.02.363 1.893.895 2.618 1.598.748.68 1.326 1.519 1.734 2.516.408.975.612 2.085.612 3.332s-.204 2.369-.612 3.366-.986 1.847-1.734 2.55c-.725.68-1.598 1.213-2.618 1.598-1.02.363-2.153.544-3.4.544s-2.38-.181-3.4-.544c-1.02-.385-1.904-.918-2.652-1.598-.725-.703-1.292-1.553-1.7-2.55-.385-.997-.578-2.119-.578-3.366s.193-2.357.578-3.332c.408-.997.975-1.836 1.7-2.516.748-.703 1.632-1.235 2.652-1.598 1.02-.385 2.153-.578 3.4-.578zm0 11.764c1.383 0 2.074-1.247 2.074-3.74 0-2.471-.691-3.706-2.074-3.706s-2.074 1.235-2.074 3.706c0 2.493.691 3.74 2.074 3.74zm19.355-6.97c-.272-.249-.51-.408-.714-.476a2.26 2.26 0 0 0-.714-.102c-.522 0-.975.283-1.36.85-.363.567-.544 1.564-.544 2.992 0 1.36.124 2.301.374 2.822.272.521.623.782 1.054.782.34 0 .668-.091.986-.272a5.69 5.69 0 0 0 .918-.68v-5.916zm6.188-11.016V295h-3.638c-1.043 0-1.678-.329-1.904-.986-.522.363-1.111.657-1.768.884s-1.417.34-2.278.34a5.75 5.75 0 0 1-2.482-.544c-.748-.363-1.394-.884-1.938-1.564-.544-.703-.975-1.541-1.292-2.516-.318-.997-.476-2.131-.476-3.4 0-1.156.17-2.233.51-3.23s.827-1.859 1.462-2.584a6.84 6.84 0 0 1 2.244-1.7c.884-.408 1.858-.612 2.924-.612.498 0 .94.045 1.326.136a5.41 5.41 0 0 1 1.122.306l.034-3.4.034-3.196h6.12zm11.878 11.968c-.045-.453-.193-.839-.442-1.156-.227-.34-.623-.51-1.19-.51-.907 0-1.53.555-1.87 1.666h3.502zm-3.638 3.57c.181.907.476 1.541.884 1.904.431.363.975.544 1.632.544.431 0 .805-.057 1.122-.17l.884-.408a6.75 6.75 0 0 1 .816-.408c.295-.136.623-.204.986-.204s.657.045.884.136.431.227.612.408l1.564 1.938a8.56 8.56 0 0 1-1.768 1.53c-.612.385-1.235.691-1.87.918a8.25 8.25 0 0 1-1.904.442 12.02 12.02 0 0 1-1.768.136c-1.133 0-2.199-.181-3.196-.544s-1.87-.895-2.618-1.598-1.349-1.575-1.802-2.618c-.431-1.043-.646-2.244-.646-3.604 0-1.043.181-2.029.544-2.958a7.47 7.47 0 0 1 1.632-2.448c.703-.703 1.553-1.258 2.55-1.666.997-.431 2.131-.646 3.4-.646 1.088 0 2.085.17 2.992.51.907.317 1.689.782 2.346 1.394s1.167 1.371 1.53 2.278c.363.884.544 1.893.544 3.026 0 .839-.113 1.405-.34 1.7-.227.272-.737.408-1.53.408h-7.48z" fill="#84cc16"/><path d="M228.054 141.362l-15.316-7.374c-.865-.417-1.839-.554-2.785-.393a4.63 4.63 0 0 0-2.499 1.291l-50.136 45.709c-.609.552-.973 1.323-1.013 2.143a3.1 3.1 0 0 0 .8 2.232l.205.204 4.093 3.719c.535.487 1.223.771 1.946.803s1.433-.19 2.009-.628l60.39-45.793a3.08 3.08 0 0 1 1.57-.612 3.07 3.07 0 0 1 1.657.307c.513.254.944.647 1.246 1.133s.462 1.048.462 1.621v-.178c0-.874-.247-1.731-.712-2.471s-1.13-1.334-1.917-1.713h0z" fill="#65a30d"/><g fill="#84cc16"><path d="M228.054 199.635l-15.316 7.377a4.65 4.65 0 0 1-2.785.392c-.946-.161-1.819-.612-2.499-1.29l-50.136-45.712c-.609-.552-.973-1.323-1.013-2.143a3.1 3.1 0 0 1 .8-2.232l.205-.204 4.093-3.719a3.09 3.09 0 0 1 3.963-.175l60.382 45.794a3.08 3.08 0 0 0 1.57.612 3.09 3.09 0 0 0 1.657-.307c.513-.255.944-.648 1.246-1.134s.462-1.048.462-1.62v.191a4.65 4.65 0 0 1-.716 2.463c-.465.737-1.128 1.329-1.913 1.707h0z"/><path d="M212.739 207.019a4.63 4.63 0 0 1-5.283-.897c.381.376.865.632 1.392.734s1.07.048 1.565-.158a2.73 2.73 0 0 0 1.217-.998 2.72 2.72 0 0 0 .461-1.504v-67.384a2.72 2.72 0 0 0-1.68-2.515c-.497-.206-1.045-.26-1.573-.155a2.73 2.73 0 0 0-1.393.747c.679-.679 1.552-1.131 2.499-1.292s1.919-.024 2.785.391l15.313 7.364a4.64 4.64 0 0 1 2.643 4.183v49.938a4.64 4.64 0 0 1-2.632 4.186l-15.314 7.36z"/></g><defs><linearGradient id="A" x1="0" y1="400" x2="400" y2="0" gradientUnits="userSpaceOnUse"><stop offset=".09" stop-color="#d9f99d"/><stop offset=".858" stop-color="#f7fee7"/></linearGradient></defs></svg>